# Blender v2.92.0 OBJ File: ''
# www.blender.org
mtllib AST_1.mtl
o AST_01
v -0.025819 -0.627296 0.149049
v -0.021565 -0.567679 0.235711
v -0.084170 -0.573010 0.184645
v 0.054556 -0.635884 0.096645
v 0.027525 -0.599452 0.192931
v 0.113555 -0.576458 0.176528
v 0.084224 -0.570537 0.228624
v 0.049146 -0.547931 0.277807
v 0.201181 -0.550822 0.036274
v 0.182612 -0.627061 0.119896
v 0.143450 -0.624898 0.052143
v 0.239896 -0.561944 0.104492
v 0.175701 -0.579180 0.185475
v 0.095403 -0.635053 0.153867
v 0.194507 -0.485385 0.320662
v 0.151448 -0.542754 0.243323
v 0.215361 -0.506971 0.247837
v 0.122677 -0.520610 0.303868
v 0.247834 -0.552293 0.185697
v -0.226742 -0.467280 0.084813
v -0.235579 -0.429802 0.181482
v -0.303647 -0.387257 0.107874
v -0.181896 -0.544803 0.068644
v -0.189726 -0.498507 0.153344
v -0.124919 -0.545373 0.123657
v -0.132758 -0.520028 0.214337
v -0.171741 -0.455489 0.240446
v -0.117115 -0.602006 0.037586
v -0.029125 -0.604797 -0.001053
v -0.068716 -0.608834 0.092489
v 0.011986 -0.638595 0.043268
v -0.103996 -0.470145 0.298168
v -0.066433 -0.529644 0.275084
v 0.013719 -0.501870 0.305777
v -0.022340 -0.444747 0.322970
v 0.293292 -0.419388 -0.045026
v 0.194675 -0.494390 -0.105570
v 0.244105 -0.386847 -0.104745
v 0.259290 -0.493987 0.027861
v 0.256455 -0.517008 -0.057749
v 0.181913 -0.575374 -0.035338
v 0.127509 -0.557899 -0.082612
v 0.321571 -0.431450 0.024605
v 0.302719 -0.510615 0.099677
v 0.345783 -0.438599 0.099220
v 0.301438 -0.495652 0.181324
v 0.099623 -0.612954 -0.000569
v 0.054274 -0.613126 -0.054111
v 0.165852 -0.325221 0.365697
v 0.250613 -0.318554 0.332551
v 0.221651 -0.275211 0.388244
v 0.116861 -0.385691 0.382073
v 0.213810 -0.385583 0.354703
v 0.154971 -0.431729 0.345211
v 0.245062 -0.424888 0.305979
v 0.295230 -0.367310 0.304001
v 0.087193 -0.475097 0.336612
v 0.050279 -0.423047 0.359814
v 0.328974 -0.405627 0.250057
v 0.268220 -0.456824 0.245567
v 0.336192 -0.424221 0.175134
v -0.231363 -0.505467 -0.057756
v -0.207870 -0.537191 -0.125251
v -0.185517 -0.563006 -0.072104
v -0.251499 -0.494379 -0.118123
v -0.214027 -0.510496 -0.175362
v -0.167591 -0.504343 -0.161087
v -0.151573 -0.557058 -0.146736
v -0.113467 -0.564276 -0.096643
v -0.182694 -0.454314 -0.249125
v -0.245317 -0.447716 -0.218249
v -0.227914 -0.414096 -0.247707
v -0.125853 -0.468922 -0.212547
v -0.198735 -0.473512 -0.206883
v -0.243184 -0.459071 -0.167280
v -0.052242 -0.568213 -0.137743
v -0.062250 -0.511449 -0.207332
v 0.004074 -0.540347 -0.177167
v -0.102362 -0.540533 -0.175858
v -0.150195 -0.503214 -0.195974
v -0.274637 -0.474859 0.019597
v -0.303635 -0.387325 0.019590
v -0.285188 -0.461869 -0.052223
v -0.216760 -0.532013 0.006547
v -0.322588 -0.397661 -0.051079
v -0.304572 -0.459765 -0.117787
v -0.359421 -0.415484 -0.116271
v -0.308017 -0.449854 -0.182589
v -0.144625 -0.563683 -0.015809
v -0.072594 -0.583811 -0.048940
v -0.219461 -0.315940 -0.337042
v -0.286986 -0.308365 -0.307279
v -0.255960 -0.262534 -0.342164
v -0.174465 -0.339678 -0.305049
v -0.244005 -0.341884 -0.283048
v -0.204203 -0.373273 -0.265900
v -0.262173 -0.371109 -0.244086
v -0.311145 -0.345532 -0.274381
v -0.124152 -0.372684 -0.293292
v -0.097745 -0.423970 -0.223864
v -0.156267 -0.404653 -0.252753
v -0.345120 -0.386038 -0.242552
v -0.294829 -0.424558 -0.236499
v -0.339107 -0.392817 -0.177808
v 0.163474 -0.414839 -0.164707
v 0.118707 -0.480447 -0.138600
v 0.066722 -0.544021 -0.123739
v 0.049246 -0.486347 -0.195811
v 0.085472 -0.420130 -0.206793
v 0.000344 -0.585727 -0.092834
v 0.011220 -0.423338 -0.253865
v -0.032618 -0.443124 -0.197260
v -0.062411 -0.390353 -0.263612
v -0.388108 -0.252047 -0.054132
v -0.408735 -0.194404 -0.106656
v -0.405301 -0.270720 -0.107206
v -0.406926 -0.164289 -0.062977
v -0.400142 -0.119379 -0.115984
v -0.416100 -0.143016 -0.144078
v -0.424210 -0.202646 -0.152647
v -0.413348 -0.275230 -0.164320
v -0.327839 -0.019506 -0.154927
v -0.342856 -0.018890 -0.098247
v -0.305412 0.039140 -0.113738
v -0.340559 -0.091749 -0.192697
v -0.372983 -0.062168 -0.136098
v -0.388969 -0.117743 -0.170567
v -0.374171 -0.087504 -0.081370
v -0.384681 -0.221059 -0.264199
v -0.421083 -0.181442 -0.200975
v -0.386485 -0.146711 -0.236073
v -0.378845 -0.248039 -0.210149
v -0.366568 -0.315496 0.015666
v -0.371053 -0.285314 0.073312
v -0.379680 -0.223579 -0.006161
v -0.363806 -0.329146 -0.050287
v -0.369620 -0.183825 0.037053
v -0.358475 -0.136444 -0.027438
v -0.351488 -0.095070 0.015459
v -0.344684 -0.052618 -0.042196
v -0.373472 -0.339486 -0.112637
v -0.366712 -0.332199 -0.171312
v -0.270881 0.248766 -0.128672
v -0.319378 0.245072 -0.054753
v -0.274582 0.348692 -0.088144
v -0.261236 0.157802 -0.160467
v -0.289209 0.174299 -0.088592
v -0.271206 0.093985 -0.126747
v -0.314461 0.099294 -0.073683
v -0.334699 0.156619 -0.031903
v -0.280082 0.082042 -0.200990
v -0.313062 0.020866 -0.250108
v -0.283828 0.023144 -0.170591
v -0.321071 -0.039822 -0.219326
v -0.337430 0.073349 -0.013516
v -0.315409 0.022447 -0.052674
v -0.351197 -0.008005 -0.001831
v -0.323679 -0.249098 -0.309541
v -0.287106 -0.198594 -0.338783
v -0.342985 -0.285144 -0.266686
v -0.368538 -0.178536 -0.311034
v -0.326035 -0.128839 -0.342727
v -0.365596 -0.318081 -0.226373
v -0.348057 -0.107735 -0.264964
v -0.317550 -0.056820 -0.296085
v -0.429776 -0.020105 0.174722
v -0.406234 -0.003181 0.090806
v -0.377259 -0.074384 0.124089
v -0.410071 0.051766 0.216725
v -0.419048 0.045234 0.136647
v -0.401246 0.101282 0.172290
v -0.405543 0.108510 0.117479
v -0.393470 0.073185 0.075224
v -0.384437 0.198439 0.264470
v -0.405888 0.162312 0.199319
v -0.389015 0.125467 0.239724
v -0.410467 0.232204 0.218531
v -0.416101 0.182524 0.154161
v -0.404707 0.132117 0.147228
v -0.376447 0.232021 0.062610
v -0.403463 0.177030 0.110197
v -0.427043 0.251430 0.098852
v -0.372576 0.151908 0.075389
v -0.419109 0.252136 0.160990
v -0.333225 -0.304439 0.164007
v -0.343884 -0.220419 0.207644
v -0.381040 -0.224365 0.117388
v -0.367625 -0.149582 0.160195
v -0.344465 -0.130867 0.080659
v -0.324251 -0.128498 0.234696
v -0.341092 -0.046063 0.282003
v -0.390183 -0.076826 0.210703
v -0.343800 0.009323 0.226305
v -0.385016 -0.047983 0.051354
v -0.357861 0.034122 0.043200
v -0.265811 0.249538 0.376368
v -0.339034 0.229616 0.326617
v -0.294363 0.181141 0.356063
v -0.329136 0.302766 0.371181
v -0.389909 0.271336 0.295615
v -0.363440 0.153912 0.310117
v -0.310860 0.110703 0.330529
v -0.371101 0.350894 0.322223
v -0.418084 0.307113 0.237471
v -0.401622 0.388651 0.253617
v -0.404477 0.326130 0.166054
v -0.347493 0.085425 0.265344
v -0.313300 0.037791 0.297024
v -0.349672 0.287851 -0.011014
v -0.313535 0.376821 -0.020091
v -0.353098 0.200001 0.013757
v -0.355471 0.312936 0.059510
v -0.374893 0.403614 0.020928
v -0.360494 0.115839 0.027128
v -0.381497 0.407890 0.100243
v -0.414545 0.330801 0.097589
v -0.420647 0.413354 0.172062
v 0.194130 0.053091 0.383679
v 0.120565 0.045849 0.451322
v 0.181289 -0.015037 0.425721
v 0.203852 0.126987 0.346588
v 0.133329 0.098743 0.405216
v 0.138603 0.155839 0.369078
v 0.073783 0.149301 0.417546
v 0.045342 0.103965 0.449380
v 0.163574 0.270081 0.276581
v 0.125116 0.221709 0.342825
v 0.170406 0.187559 0.298695
v 0.080322 0.282444 0.308598
v 0.072992 0.233076 0.382533
v 0.085238 0.175024 0.380563
v -0.066417 0.251344 0.458706
v 0.033665 0.219310 0.432280
v -0.009315 0.290179 0.422762
v -0.003344 0.187349 0.490118
v 0.023112 0.288410 0.351944
v 0.275100 -0.210701 0.398921
v 0.175787 -0.222908 0.438652
v 0.301326 -0.125951 0.371761
v 0.232542 -0.151461 0.455039
v 0.238430 -0.072700 0.397648
v 0.151790 -0.083787 0.453709
v 0.122495 -0.160111 0.492817
v 0.297036 -0.046708 0.321919
v 0.245289 0.007217 0.257609
v 0.246620 0.003543 0.354650
v 0.205236 0.056547 0.288425
v 0.048297 -0.084721 0.512836
v 0.091758 -0.015384 0.489949
v 0.020338 0.057279 0.510538
v -0.028910 -0.008900 0.530040
v 0.205246 0.338325 0.079588
v 0.184515 0.304238 0.187158
v 0.225120 0.247307 0.130302
v 0.160458 0.385963 0.159730
v 0.112700 0.333748 0.235687
v 0.192280 0.218982 0.215539
v 0.213100 0.161199 0.164642
v 0.106206 0.418885 0.225228
v 0.053036 0.355071 0.288549
v 0.049889 0.442669 0.290286
v 0.006832 0.370887 0.354522
v 0.210671 0.142862 0.254016
v 0.224557 0.082800 0.209273
v -0.177556 0.257022 0.434725
v -0.226009 0.315576 0.399766
v -0.222717 0.192132 0.418783
v -0.120539 0.193147 0.460776
v -0.120417 0.318559 0.444298
v -0.165334 0.373369 0.398603
v -0.168912 0.130036 0.458342
v -0.054460 0.124777 0.482378
v -0.106107 0.063824 0.498939
v -0.053540 0.355623 0.402222
v -0.094021 0.423045 0.390357
v -0.031461 0.433522 0.330822
v -0.252348 -0.321449 0.319055
v -0.203769 -0.262969 0.377229
v -0.262368 -0.230775 0.340741
v -0.197136 -0.355959 0.381874
v -0.145428 -0.271309 0.411856
v -0.162703 -0.213822 0.410692
v -0.203596 -0.185340 0.388194
v -0.254873 -0.144709 0.357190
v 0.014394 -0.268803 0.444361
v -0.093968 -0.247200 0.447799
v -0.043778 -0.311493 0.423574
v -0.049939 -0.209282 0.491692
v -0.131246 -0.176609 0.425454
v -0.104756 -0.324454 0.375939
v -0.244754 -0.069138 0.382234
v -0.179079 -0.063459 0.454750
v -0.236374 -0.002261 0.420168
v -0.208498 -0.124661 0.433546
v -0.106604 -0.130588 0.465816
v -0.275419 -0.358911 0.221995
v -0.222636 -0.401691 0.287228
v -0.317313 -0.283151 0.271781
v -0.144194 -0.408170 0.329190
v -0.066361 -0.401387 0.370422
v -0.294366 -0.182607 0.284298
v -0.310898 -0.098647 0.327565
v 0.114364 -0.263701 0.389779
v 0.066865 -0.219608 0.466382
v 0.066021 -0.321574 0.394868
v -0.001513 -0.151372 0.507494
v -0.081133 -0.076922 0.525563
v 0.006077 -0.367746 0.388931
v -0.245127 0.125973 0.385797
v -0.257346 0.059271 0.354210
v -0.196374 0.064562 0.425972
v -0.287825 -0.015689 0.343973
v -0.132108 -0.001763 0.453466
v 0.315278 -0.005240 0.158372
v 0.301690 -0.019035 0.097681
v 0.263214 0.040612 0.113227
v 0.346355 -0.067998 0.204474
v 0.332067 -0.065473 0.135637
v 0.338300 -0.126464 0.174003
v 0.350637 -0.126101 0.116003
v 0.336115 -0.088045 0.078181
v 0.345968 -0.222171 0.268940
v 0.380210 -0.184064 0.201854
v 0.360236 -0.145430 0.245828
v 0.373905 -0.258077 0.220301
v 0.408873 -0.201949 0.149266
v 0.381495 -0.143161 0.142769
v 0.382112 -0.256276 0.038996
v 0.373048 -0.196497 0.102902
v 0.383546 -0.276586 0.096392
v 0.370828 -0.165148 0.056652
v 0.384689 -0.277277 0.159587
v 0.238296 0.234589 0.042520
v 0.209209 0.166113 0.082257
v 0.236623 0.100256 0.131631
v 0.245564 0.096493 0.067009
v 0.238071 0.148204 0.016263
v 0.273336 0.039919 0.182587
v 0.291306 -0.036323 0.229780
v 0.271248 0.073407 0.013510
v 0.273274 0.026065 0.055462
v 0.301822 -0.052405 0.042384
v 0.302530 -0.004966 0.003202
v 0.301103 -0.256305 0.340597
v 0.347763 -0.303587 0.304502
v 0.319249 -0.178562 0.313895
v 0.349488 -0.329585 0.233320
v 0.352238 -0.346496 0.166140
v 0.332880 -0.098810 0.285210
v 0.339155 -0.324688 -0.030923
v 0.318026 -0.286495 -0.078869
v 0.341534 -0.226960 -0.001499
v 0.361363 -0.348002 0.028894
v 0.306344 -0.187846 -0.036566
v 0.335167 -0.134590 0.024189
v 0.311173 -0.094319 -0.014936
v 0.347083 -0.349664 0.099720
v 0.294533 0.224562 -0.068622
v 0.333541 0.174532 -0.108896
v 0.321549 0.246193 -0.114371
v 0.324200 0.148460 -0.061030
v 0.343277 0.108127 -0.111492
v 0.355428 0.129494 -0.140418
v 0.351924 0.182385 -0.152163
v 0.371137 0.250991 -0.154123
v 0.332447 -0.012575 -0.166925
v 0.309477 0.001806 -0.098725
v 0.316562 -0.072920 -0.122821
v 0.351852 0.049600 -0.210405
v 0.335507 0.048804 -0.134891
v 0.364295 0.096709 -0.168301
v 0.306787 0.074616 -0.082461
v 0.374892 0.196580 -0.281482
v 0.304418 0.169613 -0.203620
v 0.349244 0.124287 -0.243971
v 0.394064 0.233031 -0.215906
v 0.270964 0.277264 -0.000216
v 0.242479 0.365001 0.012893
v 0.299725 0.192882 -0.005901
v 0.276006 0.303706 -0.067328
v 0.271632 0.383856 -0.049115
v 0.285594 0.113559 -0.029070
v 0.312709 0.038089 -0.034327
v 0.327828 0.321174 -0.105455
v 0.321171 0.401562 -0.096782
v 0.325086 0.321033 -0.172797
v 0.340283 0.403266 -0.168879
v 0.251148 -0.289319 -0.154431
v 0.223937 -0.190382 -0.166385
v 0.316981 -0.222022 -0.124413
v 0.298618 -0.143684 -0.159194
v 0.305839 -0.132937 -0.079274
v 0.251950 -0.116547 -0.233148
v 0.251321 -0.036346 -0.263770
v 0.280872 -0.060845 -0.188473
v 0.293474 0.012225 -0.232746
v 0.325529 -0.045048 -0.053058
v 0.231377 0.251915 -0.423479
v 0.309125 0.232608 -0.350011
v 0.250623 0.181807 -0.370697
v 0.280174 0.311832 -0.378145
v 0.371250 0.279063 -0.312615
v 0.335658 0.146239 -0.334840
v 0.261970 0.108586 -0.338892
v 0.326872 0.361072 -0.327749
v 0.362022 0.310304 -0.233631
v 0.350175 0.393258 -0.250359
v 0.333310 0.066868 -0.297841
v 0.247587 0.046187 -0.285626
v -0.081603 -0.231454 -0.362950
v 0.010041 -0.206058 -0.368054
v -0.028239 -0.281479 -0.373993
v -0.021699 -0.173423 -0.398230
v 0.045292 -0.139068 -0.347936
v 0.066194 -0.167995 -0.338298
v 0.045974 -0.221215 -0.335793
v 0.024565 -0.297055 -0.341288
v 0.135130 -0.041998 -0.314100
v 0.076635 -0.039054 -0.347421
v 0.139177 0.005030 -0.357069
v 0.145584 -0.109653 -0.306212
v 0.087199 -0.085275 -0.326077
v 0.101193 -0.142609 -0.324511
v 0.023033 -0.100486 -0.364151
v 0.130162 -0.268274 -0.256163
v 0.094077 -0.212212 -0.310680
v 0.150657 -0.188890 -0.293537
v 0.078703 -0.290408 -0.300715
v -0.176820 -0.266734 -0.381189
v -0.211885 -0.205595 -0.377838
v -0.119305 -0.205137 -0.422298
v -0.132492 -0.304478 -0.358155
v -0.159714 -0.144072 -0.409774
v -0.048388 -0.132856 -0.436990
v -0.088781 -0.078802 -0.444108
v 0.008873 -0.060076 -0.401476
v -0.080624 -0.328378 -0.328544
v -0.018696 -0.355412 -0.312665
v 0.165170 0.188926 -0.417490
v 0.196539 0.116017 -0.403595
v 0.205664 0.052327 -0.361456
v 0.130447 0.059658 -0.395447
v 0.105034 0.120104 -0.418126
v 0.207645 -0.015059 -0.332902
v 0.202797 -0.079169 -0.297102
v 0.043881 0.053331 -0.419800
v 0.070403 0.000059 -0.392884
v -0.028329 -0.008620 -0.398952
v 0.177964 -0.327854 -0.188411
v 0.117706 -0.354202 -0.239230
v 0.205154 -0.245675 -0.241146
v 0.056675 -0.371415 -0.291805
v 0.200754 -0.156004 -0.263233
v -0.238037 0.047349 -0.361670
v -0.162671 0.040587 -0.428843
v -0.229498 -0.015466 -0.407158
v -0.227896 0.107939 -0.318635
v -0.196776 0.101059 -0.405515
v -0.191097 0.149725 -0.357882
v -0.122861 0.143048 -0.397753
v -0.088974 0.092957 -0.393100
v -0.202554 0.258461 -0.264811
v -0.175426 0.215056 -0.333151
v -0.212866 0.177512 -0.285057
v -0.162391 0.292582 -0.323627
v -0.125625 0.228330 -0.374817
v -0.141057 0.172656 -0.371414
v 0.020093 0.232993 -0.403283
v -0.078026 0.206412 -0.406670
v -0.036650 0.277120 -0.404494
v -0.032959 0.161900 -0.417274
v -0.094228 0.297504 -0.364361
v -0.250605 -0.146200 -0.389003
v -0.280332 -0.074505 -0.375133
v -0.198851 -0.085140 -0.427655
v -0.289544 0.001197 -0.333583
v -0.256163 0.056889 -0.275532
v -0.127179 -0.018819 -0.452957
v -0.057786 0.043061 -0.414585
v -0.239817 0.304964 -0.189152
v -0.196607 0.383070 -0.146501
v -0.175607 0.337015 -0.238296
v -0.251281 0.216679 -0.216852
v -0.148067 0.415349 -0.214807
v -0.114353 0.358687 -0.289998
v -0.111445 0.448515 -0.296106
v -0.064201 0.371520 -0.357272
v -0.242560 0.129590 -0.237757
v 0.121024 0.252607 -0.431457
v 0.173900 0.322167 -0.413127
v 0.064288 0.183142 -0.389612
v 0.069666 0.302132 -0.380691
v 0.113188 0.374844 -0.393774
v 0.005879 0.110849 -0.422653
v 0.008234 0.343713 -0.376976
v 0.051345 0.404167 -0.342857
v -0.035841 0.447394 -0.348218
v -0.039021 0.583911 0.140909
v -0.032059 0.554553 0.236621
v 0.032132 0.561491 0.187677
v -0.114284 0.604373 0.095819
v -0.086062 0.575007 0.189486
v -0.174243 0.565237 0.185355
v -0.139077 0.578692 0.240012
v -0.100317 0.533199 0.278558
v -0.270080 0.550019 0.031109
v -0.222610 0.571745 0.115138
v -0.186049 0.560338 0.062997
v -0.289489 0.532597 0.104172
v -0.233779 0.563095 0.186923
v -0.149318 0.594718 0.145645
v -0.247196 0.474352 0.324583
v -0.210683 0.537859 0.255916
v -0.296394 0.533055 0.277058
v -0.172941 0.523806 0.322243
v -0.322758 0.564992 0.184758
v 0.178128 0.448727 0.085989
v 0.142896 0.543441 0.086471
v 0.130771 0.468298 0.147611
v 0.076856 0.536210 0.126502
v 0.067138 0.485859 0.203216
v 0.056739 0.584891 0.045780
v -0.028389 0.597126 0.001438
v 0.016397 0.612660 0.098908
v -0.072866 0.601825 0.048044
v 0.010245 0.503148 0.265629
v -0.051657 0.513737 0.333417
v -0.296327 0.475487 -0.044124
v -0.254942 0.470360 -0.102848
v -0.323338 0.478713 0.027044
v -0.230849 0.543407 -0.025171
v -0.180764 0.530439 -0.071506
v -0.350414 0.482069 0.096999
v -0.148461 0.564202 0.011262
v -0.107591 0.570283 -0.038725
v -0.271366 0.370613 0.369734
v -0.324042 0.426347 0.339771
v -0.207053 0.427390 0.367062
v -0.132583 0.489236 0.379381
v -0.354291 0.463105 0.264472
v -0.397939 0.506777 0.178563
v 0.196716 0.520381 -0.042408
v 0.169999 0.577443 -0.111263
v 0.140637 0.586380 -0.052937
v 0.253727 0.553170 -0.091631
v 0.186715 0.584931 -0.185116
v 0.123214 0.596415 -0.186776
v 0.094373 0.596820 -0.143097
v 0.057418 0.593115 -0.093133
v 0.202270 0.496426 -0.343107
v 0.165220 0.576620 -0.269425
v 0.234518 0.519335 -0.263281
v 0.119507 0.521465 -0.313213
v 0.084294 0.599642 -0.247293
v 0.266460 0.554799 -0.179247
v -0.013380 0.574262 -0.135960
v -0.023572 0.557344 -0.235251
v -0.075475 0.543824 -0.175040
v 0.030268 0.581714 -0.189676
v 0.038171 0.568351 -0.299538
v 0.190383 0.437851 0.006832
v 0.159480 0.517544 0.015728
v 0.288030 0.475048 -0.094592
v 0.265491 0.469284 -0.023831
v 0.282313 0.460662 -0.176035
v 0.093627 0.567853 -0.007293
v 0.015634 0.607834 -0.044130
v 0.231004 0.389783 -0.407550
v 0.281867 0.443936 -0.351316
v 0.080282 0.478038 -0.353490
v 0.155082 0.439744 -0.380114
v 0.008584 0.494736 -0.309375
v 0.294606 0.460636 -0.258283
v -0.185688 0.474596 -0.145776
v -0.130639 0.536352 -0.122258
v -0.121648 0.489149 -0.201425
v -0.060424 0.571929 -0.086415
v -0.059022 0.499695 -0.259285
vt 0.051883 0.117069
vt 0.032876 0.136076
vt 0.035240 0.105155
vt 0.067650 0.130948
vt 0.047687 0.142497
vt 0.055744 0.166667
vt 0.045809 0.166667
vt 0.031931 0.166667
vt 0.096751 0.166667
vt 0.071857 0.166667
vt 0.082473 0.147659
vt 0.082473 0.185674
vt 0.060711 0.181568
vt 0.060711 0.151765
vt 0.035240 0.228178
vt 0.047687 0.190836
vt 0.051883 0.216264
vt 0.032876 0.197257
vt 0.067650 0.202385
vt 0.021080 0.021080
vt 0.000282 0.041878
vt 0.000282 0.000282
vt 0.041878 0.041878
vt 0.019406 0.057652
vt 0.038380 0.073682
vt 0.017934 0.094128
vt 0.000282 0.083475
vt 0.062676 0.062676
vt 0.083475 0.083475
vt 0.057068 0.090252
vt 0.075382 0.107751
vt 0.000282 0.125071
vt 0.016875 0.130445
vt 0.016467 0.166667
vt 0.000282 0.166667
vt 0.145869 0.187465
vt 0.145869 0.145869
vt 0.166667 0.166667
vt 0.110918 0.187113
vt 0.128420 0.166667
vt 0.110918 0.146221
vt 0.125071 0.125071
vt 0.125071 0.208263
vt 0.093289 0.206860
vt 0.104273 0.229061
vt 0.075382 0.225582
vt 0.093289 0.126474
vt 0.104273 0.104273
vt 0.000282 0.291455
vt 0.021080 0.312253
vt 0.000282 0.333051
vt 0.000282 0.249859
vt 0.019406 0.275681
vt 0.017934 0.239205
vt 0.038380 0.259651
vt 0.041878 0.291455
vt 0.016875 0.202888
vt 0.000282 0.208263
vt 0.062676 0.270657
vt 0.057068 0.243081
vt 0.083475 0.249859
vt 0.202189 0.105155
vt 0.214636 0.142497
vt 0.199825 0.136076
vt 0.218832 0.117069
vt 0.227660 0.151765
vt 0.222693 0.166667
vt 0.212758 0.166667
vt 0.198880 0.166667
vt 0.249422 0.185674
vt 0.249422 0.147660
vt 0.263700 0.166667
vt 0.234599 0.202385
vt 0.238806 0.166667
vt 0.234599 0.130948
vt 0.199825 0.197257
vt 0.218832 0.216264
vt 0.202189 0.228178
vt 0.214636 0.190836
vt 0.227660 0.181568
vt 0.167231 0.000282
vt 0.186355 0.057652
vt 0.167231 0.041878
vt 0.188029 0.021080
vt 0.205329 0.073682
vt 0.184883 0.094128
vt 0.167231 0.083475
vt 0.208827 0.041878
vt 0.224017 0.090252
vt 0.229626 0.062677
vt 0.242331 0.107751
vt 0.183824 0.130445
vt 0.167231 0.125071
vt 0.183416 0.166667
vt 0.167231 0.166667
vt 0.312818 0.187465
vt 0.312818 0.145869
vt 0.333616 0.166667
vt 0.292020 0.208263
vt 0.295369 0.166667
vt 0.277867 0.187113
vt 0.277867 0.146221
vt 0.292020 0.125071
vt 0.271222 0.229061
vt 0.242331 0.225582
vt 0.260238 0.206860
vt 0.271222 0.104273
vt 0.260238 0.126474
vt 0.250424 0.083475
vt 0.167231 0.291455
vt 0.188029 0.312253
vt 0.167231 0.333051
vt 0.167231 0.249859
vt 0.186355 0.275681
vt 0.184883 0.239205
vt 0.205329 0.259651
vt 0.208827 0.291455
vt 0.167231 0.208263
vt 0.183824 0.202888
vt 0.229626 0.270657
vt 0.224017 0.243081
vt 0.250424 0.249859
vt 0.369138 0.105155
vt 0.381585 0.142497
vt 0.366774 0.136076
vt 0.385781 0.117069
vt 0.394609 0.151765
vt 0.389642 0.166667
vt 0.379707 0.166667
vt 0.365830 0.166667
vt 0.416371 0.185674
vt 0.416371 0.147660
vt 0.430650 0.166667
vt 0.401548 0.202385
vt 0.405755 0.166667
vt 0.394609 0.181568
vt 0.401548 0.130948
vt 0.369138 0.228178
vt 0.381585 0.190836
vt 0.385781 0.216264
vt 0.366774 0.197257
vt 0.334180 0.000282
vt 0.353304 0.057652
vt 0.334180 0.041878
vt 0.354979 0.021080
vt 0.372278 0.073682
vt 0.351832 0.094128
vt 0.334180 0.083475
vt 0.375776 0.041878
vt 0.390966 0.090252
vt 0.396575 0.062677
vt 0.409280 0.107751
vt 0.350773 0.130445
vt 0.334180 0.125071
vt 0.350365 0.166667
vt 0.334180 0.166667
vt 0.479767 0.187465
vt 0.479767 0.145869
vt 0.500565 0.166667
vt 0.458969 0.208263
vt 0.462318 0.166667
vt 0.444816 0.187113
vt 0.444816 0.146221
vt 0.458969 0.125071
vt 0.438171 0.229061
vt 0.417373 0.249859
vt 0.427187 0.206860
vt 0.409280 0.225582
vt 0.438171 0.104273
vt 0.427187 0.126474
vt 0.417373 0.083475
vt 0.334180 0.333051
vt 0.353304 0.275681
vt 0.354979 0.312253
vt 0.334180 0.291455
vt 0.351832 0.239205
vt 0.372278 0.259651
vt 0.375776 0.291455
vt 0.334180 0.249859
vt 0.350773 0.202888
vt 0.334180 0.208263
vt 0.390966 0.243081
vt 0.396575 0.270657
vt 0.051883 0.450403
vt 0.032876 0.469410
vt 0.035240 0.438489
vt 0.067650 0.464282
vt 0.047687 0.475830
vt 0.060711 0.485098
vt 0.045809 0.500000
vt 0.031931 0.500000
vt 0.096751 0.500000
vt 0.071857 0.500000
vt 0.082473 0.480993
vt 0.082473 0.519007
vt 0.060711 0.514902
vt 0.055744 0.500000
vt 0.035240 0.561512
vt 0.047687 0.524170
vt 0.051883 0.549598
vt 0.032876 0.530590
vt 0.067650 0.535719
vt 0.021080 0.354414
vt 0.000282 0.375212
vt 0.000282 0.333616
vt 0.041878 0.375212
vt 0.019406 0.390986
vt 0.038380 0.407016
vt 0.017934 0.427462
vt 0.000282 0.416808
vt 0.062676 0.396010
vt 0.083475 0.416808
vt 0.057068 0.423586
vt 0.075382 0.441085
vt 0.000282 0.458404
vt 0.016875 0.463779
vt 0.016467 0.500000
vt 0.000282 0.500000
vt 0.166667 0.500000
vt 0.128420 0.500000
vt 0.145869 0.479202
vt 0.145869 0.520798
vt 0.110918 0.520446
vt 0.110918 0.479554
vt 0.125071 0.458404
vt 0.125071 0.541596
vt 0.093289 0.540193
vt 0.104273 0.562394
vt 0.075382 0.558915
vt 0.093289 0.459807
vt 0.104273 0.437606
vt 0.000282 0.666384
vt 0.019406 0.609015
vt 0.021080 0.645586
vt 0.000282 0.624788
vt 0.017934 0.572538
vt 0.038380 0.592984
vt 0.041878 0.624788
vt 0.000282 0.583192
vt 0.016875 0.536222
vt 0.000282 0.541596
vt 0.062676 0.603990
vt 0.057068 0.576415
vt 0.083474 0.583192
vt 0.218832 0.450403
vt 0.199825 0.469410
vt 0.202189 0.438489
vt 0.234599 0.464282
vt 0.214636 0.475830
vt 0.227660 0.485098
vt 0.212758 0.500000
vt 0.198880 0.500000
vt 0.263700 0.500000
vt 0.238806 0.500000
vt 0.249422 0.480993
vt 0.249422 0.519007
vt 0.227660 0.514902
vt 0.222693 0.500000
vt 0.202189 0.561512
vt 0.214636 0.524170
vt 0.218832 0.549598
vt 0.199825 0.530590
vt 0.234599 0.535719
vt 0.188029 0.354414
vt 0.167231 0.375212
vt 0.167231 0.333616
vt 0.208827 0.375212
vt 0.186355 0.390986
vt 0.205329 0.407016
vt 0.184883 0.427462
vt 0.167231 0.416808
vt 0.229626 0.396010
vt 0.250424 0.416808
vt 0.224017 0.423586
vt 0.242331 0.441085
vt 0.167231 0.458404
vt 0.183824 0.463779
vt 0.183416 0.500000
vt 0.167231 0.500000
vt 0.333616 0.500000
vt 0.295369 0.500000
vt 0.312818 0.479202
vt 0.312818 0.520798
vt 0.277867 0.520446
vt 0.277867 0.479554
vt 0.292020 0.458404
vt 0.292020 0.541596
vt 0.260238 0.540193
vt 0.271222 0.562394
vt 0.242331 0.558915
vt 0.260238 0.459807
vt 0.271222 0.437606
vt 0.167231 0.666384
vt 0.186355 0.609015
vt 0.188029 0.645586
vt 0.167231 0.624788
vt 0.184883 0.572539
vt 0.205329 0.592984
vt 0.208827 0.624788
vt 0.167231 0.583192
vt 0.183824 0.536222
vt 0.167231 0.541596
vt 0.224017 0.576415
vt 0.229626 0.603990
vt 0.250424 0.583192
vt 0.369138 0.438489
vt 0.381585 0.475830
vt 0.366774 0.469410
vt 0.385781 0.450403
vt 0.394609 0.485098
vt 0.389642 0.500000
vt 0.379707 0.500000
vt 0.365830 0.500000
vt 0.430650 0.500000
vt 0.405755 0.500000
vt 0.416371 0.480993
vt 0.416371 0.519007
vt 0.394609 0.514902
vt 0.401548 0.464282
vt 0.366774 0.530590
vt 0.385781 0.549598
vt 0.369138 0.561512
vt 0.381585 0.524170
vt 0.401548 0.535719
vt 0.334180 0.333616
vt 0.353304 0.390986
vt 0.334180 0.375212
vt 0.354979 0.354414
vt 0.372278 0.407016
vt 0.351832 0.427462
vt 0.334180 0.416808
vt 0.375776 0.375212
vt 0.390966 0.423586
vt 0.396575 0.396010
vt 0.409280 0.441085
vt 0.350773 0.463779
vt 0.334180 0.458404
vt 0.350365 0.500000
vt 0.334180 0.500000
vt 0.500565 0.500000
vt 0.462318 0.500000
vt 0.479767 0.479202
vt 0.479767 0.520798
vt 0.444816 0.520446
vt 0.444816 0.479554
vt 0.458969 0.458404
vt 0.458969 0.541596
vt 0.427187 0.540193
vt 0.438171 0.562394
vt 0.409280 0.558915
vt 0.438171 0.437606
vt 0.427187 0.459807
vt 0.417373 0.416808
vt 0.334180 0.624788
vt 0.354979 0.645586
vt 0.334180 0.666384
vt 0.334180 0.583192
vt 0.353304 0.609015
vt 0.351832 0.572539
vt 0.372278 0.592984
vt 0.375776 0.624788
vt 0.334180 0.541596
vt 0.350773 0.536222
vt 0.396575 0.603990
vt 0.390966 0.576415
vt 0.417373 0.583192
vt 0.552730 0.117069
vt 0.533723 0.136076
vt 0.536087 0.105155
vt 0.568497 0.130948
vt 0.548535 0.142497
vt 0.561558 0.151765
vt 0.546656 0.166667
vt 0.532779 0.166667
vt 0.597599 0.166667
vt 0.572704 0.166667
vt 0.583320 0.147660
vt 0.583320 0.185674
vt 0.561558 0.181568
vt 0.556591 0.166667
vt 0.536087 0.228178
vt 0.548534 0.190836
vt 0.552730 0.216264
vt 0.533723 0.197257
vt 0.568497 0.202385
vt 0.521928 0.021080
vt 0.501130 0.041878
vt 0.501130 0.000282
vt 0.542726 0.041878
vt 0.520253 0.057652
vt 0.539227 0.073682
vt 0.518781 0.094128
vt 0.501130 0.083475
vt 0.563524 0.062677
vt 0.584322 0.083475
vt 0.557915 0.090252
vt 0.576229 0.107751
vt 0.501130 0.125071
vt 0.517722 0.130445
vt 0.517314 0.166667
vt 0.501129 0.166667
vt 0.667514 0.166667
vt 0.629267 0.166667
vt 0.646716 0.145869
vt 0.646716 0.187465
vt 0.611765 0.187113
vt 0.611765 0.146221
vt 0.625918 0.125071
vt 0.625918 0.208263
vt 0.594136 0.206860
vt 0.605120 0.229061
vt 0.576229 0.225582
vt 0.594136 0.126474
vt 0.605120 0.104273
vt 0.501130 0.333051
vt 0.520253 0.275681
vt 0.521928 0.312253
vt 0.501130 0.291455
vt 0.518781 0.239205
vt 0.539227 0.259651
vt 0.542726 0.291455
vt 0.501129 0.249859
vt 0.517722 0.202888
vt 0.501130 0.208263
vt 0.557915 0.243081
vt 0.563524 0.270657
vt 0.584322 0.249859
vt 0.536087 0.438489
vt 0.548534 0.475830
vt 0.533723 0.469410
vt 0.552730 0.450403
vt 0.561558 0.485098
vt 0.556591 0.500000
vt 0.546656 0.500000
vt 0.532779 0.500000
vt 0.583320 0.519007
vt 0.583320 0.480993
vt 0.597599 0.500000
vt 0.568497 0.535719
vt 0.572704 0.500000
vt 0.561558 0.514902
vt 0.568497 0.464282
vt 0.536087 0.561512
vt 0.548534 0.524170
vt 0.552730 0.549598
vt 0.533723 0.530590
vt 0.501130 0.333616
vt 0.520253 0.390986
vt 0.501130 0.375212
vt 0.521928 0.354414
vt 0.539227 0.407016
vt 0.518781 0.427462
vt 0.501130 0.416808
vt 0.542726 0.375212
vt 0.557915 0.423586
vt 0.563524 0.396010
vt 0.576229 0.441085
vt 0.517722 0.463779
vt 0.501130 0.458404
vt 0.517314 0.500000
vt 0.501129 0.500000
vt 0.646716 0.520798
vt 0.646716 0.479202
vt 0.667514 0.500000
vt 0.625918 0.541596
vt 0.629267 0.500000
vt 0.611765 0.520446
vt 0.611765 0.479554
vt 0.625918 0.458404
vt 0.605120 0.562394
vt 0.584322 0.583192
vt 0.594136 0.540193
vt 0.576229 0.558915
vt 0.605120 0.437606
vt 0.594136 0.459807
vt 0.584322 0.416808
vt 0.501130 0.666384
vt 0.520253 0.609015
vt 0.521928 0.645586
vt 0.501130 0.624788
vt 0.518781 0.572539
vt 0.539227 0.592984
vt 0.542726 0.624788
vt 0.501129 0.583192
vt 0.517722 0.536222
vt 0.501130 0.541596
vt 0.557915 0.576415
vt 0.563524 0.603990
vt 0.703036 0.105155
vt 0.715483 0.142497
vt 0.700672 0.136076
vt 0.719679 0.117069
vt 0.728507 0.151765
vt 0.723540 0.166667
vt 0.713605 0.166667
vt 0.699728 0.166667
vt 0.750269 0.185674
vt 0.750269 0.147660
vt 0.764548 0.166667
vt 0.735446 0.202385
vt 0.739653 0.166667
vt 0.728507 0.181568
vt 0.735446 0.130948
vt 0.703036 0.228178
vt 0.715483 0.190836
vt 0.719679 0.216264
vt 0.700672 0.197257
vt 0.668079 0.000282
vt 0.687202 0.057652
vt 0.668079 0.041878
vt 0.688877 0.021080
vt 0.706176 0.073682
vt 0.685730 0.094128
vt 0.668079 0.083475
vt 0.709675 0.041878
vt 0.724864 0.090252
vt 0.730473 0.062677
vt 0.743178 0.107751
vt 0.668079 0.125071
vt 0.684671 0.130445
vt 0.684263 0.166667
vt 0.668079 0.166667
vt 0.813665 0.187465
vt 0.813665 0.145869
vt 0.834463 0.166667
vt 0.792867 0.208263
vt 0.796216 0.166667
vt 0.778714 0.187113
vt 0.778714 0.146221
vt 0.792867 0.125071
vt 0.772069 0.229061
vt 0.751271 0.249859
vt 0.761085 0.206860
vt 0.743178 0.225582
vt 0.772069 0.104273
vt 0.761085 0.126474
vt 0.751271 0.083475
vt 0.668079 0.333051
vt 0.687202 0.275681
vt 0.688877 0.312253
vt 0.668079 0.291455
vt 0.685730 0.239205
vt 0.706176 0.259651
vt 0.709675 0.291455
vt 0.668079 0.249859
vt 0.684671 0.202888
vt 0.668079 0.208263
vt 0.724864 0.243081
vt 0.730473 0.270657
vt 0.719679 0.450403
vt 0.700672 0.469410
vt 0.703036 0.438489
vt 0.735446 0.464282
vt 0.715483 0.475830
vt 0.728507 0.485098
vt 0.713605 0.500000
vt 0.699728 0.500000
vt 0.764548 0.500000
vt 0.739653 0.500000
vt 0.750269 0.480993
vt 0.750269 0.519007
vt 0.728507 0.514902
vt 0.723540 0.500000
vt 0.703036 0.561512
vt 0.715483 0.524170
vt 0.719679 0.549598
vt 0.700672 0.530590
vt 0.735446 0.535719
vt 0.688877 0.354414
vt 0.668079 0.375212
vt 0.668079 0.333616
vt 0.709675 0.375212
vt 0.687202 0.390986
vt 0.706176 0.407016
vt 0.685730 0.427462
vt 0.668079 0.416808
vt 0.730473 0.396010
vt 0.751271 0.416808
vt 0.724864 0.423586
vt 0.743178 0.441085
vt 0.668079 0.458404
vt 0.684671 0.463779
vt 0.684263 0.500000
vt 0.668079 0.500000
vt 0.834463 0.500000
vt 0.796216 0.500000
vt 0.813665 0.479202
vt 0.813665 0.520798
vt 0.778714 0.520446
vt 0.778714 0.479554
vt 0.792867 0.458404
vt 0.792867 0.541596
vt 0.761085 0.540193
vt 0.772069 0.562394
vt 0.743178 0.558915
vt 0.761085 0.459807
vt 0.772069 0.437606
vt 0.668079 0.666384
vt 0.687202 0.609015
vt 0.688877 0.645586
vt 0.668079 0.624788
vt 0.685730 0.572539
vt 0.706176 0.592984
vt 0.709675 0.624788
vt 0.668079 0.583192
vt 0.684671 0.536222
vt 0.668079 0.541596
vt 0.724864 0.576415
vt 0.730473 0.603990
vt 0.751271 0.583192
vt 0.051883 0.783736
vt 0.032876 0.802743
vt 0.035240 0.771822
vt 0.067650 0.797615
vt 0.047687 0.809164
vt 0.055744 0.833333
vt 0.045809 0.833334
vt 0.031931 0.833333
vt 0.096751 0.833334
vt 0.071857 0.833334
vt 0.082473 0.814326
vt 0.082473 0.852341
vt 0.060711 0.848235
vt 0.060711 0.818432
vt 0.035240 0.894845
vt 0.047687 0.857503
vt 0.051883 0.882931
vt 0.032876 0.863924
vt 0.067650 0.869052
vt 0.021080 0.687747
vt 0.000282 0.708545
vt 0.000282 0.666949
vt 0.041878 0.708545
vt 0.019406 0.724319
vt 0.038380 0.740349
vt 0.017934 0.760795
vt 0.000282 0.750141
vt 0.062676 0.729343
vt 0.083474 0.750141
vt 0.057068 0.756919
vt 0.075382 0.774418
vt 0.000282 0.791737
vt 0.016875 0.797112
vt 0.016467 0.833333
vt 0.000282 0.833333
vt 0.166667 0.833334
vt 0.128420 0.833333
vt 0.145869 0.812536
vt 0.145869 0.854132
vt 0.110918 0.853779
vt 0.110918 0.812887
vt 0.125071 0.791737
vt 0.125071 0.874929
vt 0.093289 0.873527
vt 0.083474 0.916526
vt 0.104273 0.895728
vt 0.093289 0.793140
vt 0.104273 0.770939
vt 0.000282 0.958122
vt 0.021080 0.978920
vt 0.000282 0.999718
vt 0.000282 0.916526
vt 0.019406 0.942348
vt 0.038380 0.926318
vt 0.041878 0.958122
vt 0.000282 0.874930
vt 0.017934 0.905872
vt 0.016875 0.869555
vt 0.062676 0.937324
vt 0.057068 0.909748
vt 0.075382 0.892249
vt 0.202189 0.771822
vt 0.214636 0.809164
vt 0.199825 0.802743
vt 0.218832 0.783736
vt 0.227660 0.818432
vt 0.222693 0.833333
vt 0.212758 0.833334
vt 0.198880 0.833333
vt 0.263700 0.833334
vt 0.238806 0.833333
vt 0.249422 0.814326
vt 0.249422 0.852341
vt 0.227660 0.848235
vt 0.234599 0.797615
vt 0.199825 0.863924
vt 0.218832 0.882931
vt 0.202189 0.894845
vt 0.214636 0.857503
vt 0.234599 0.869052
vt 0.167231 0.666949
vt 0.186355 0.724319
vt 0.167231 0.708545
vt 0.208827 0.708545
vt 0.188029 0.687747
vt 0.184883 0.760795
vt 0.167231 0.750141
vt 0.224017 0.756919
vt 0.205329 0.740349
vt 0.229626 0.729343
vt 0.242331 0.774418
vt 0.183824 0.797112
vt 0.167231 0.791737
vt 0.183416 0.833333
vt 0.167231 0.833333
vt 0.312818 0.854132
vt 0.312818 0.812536
vt 0.333616 0.833334
vt 0.292020 0.874929
vt 0.295369 0.833334
vt 0.277867 0.812887
vt 0.292020 0.791737
vt 0.260238 0.873527
vt 0.277867 0.853780
vt 0.271222 0.895728
vt 0.242331 0.892249
vt 0.260238 0.793140
vt 0.271222 0.770939
vt 0.250424 0.750141
vt 0.167231 0.958122
vt 0.188029 0.978920
vt 0.167231 0.999718
vt 0.167231 0.916526
vt 0.186355 0.942348
vt 0.184883 0.905872
vt 0.205329 0.926318
vt 0.208827 0.958122
vt 0.167231 0.874930
vt 0.183824 0.869555
vt 0.229626 0.937324
vt 0.224017 0.909748
vt 0.250424 0.916526
vn -0.2427 -0.9210 0.3049
vn -0.1816 -0.7967 0.5765
vn -0.5518 -0.7642 0.3339
vn 0.0197 -0.9987 0.0462
vn 0.0487 -0.8560 0.5147
vn 0.1938 -0.7677 0.6108
vn 0.2295 -0.8913 0.3910
vn -0.0487 -0.7530 0.6562
vn 0.6956 -0.6949 -0.1823
vn 0.4960 -0.8552 0.1504
vn 0.3402 -0.9075 -0.2463
vn 0.6280 -0.7593 -0.1706
vn 0.1985 -0.8276 0.5251
vn 0.0999 -0.8613 0.4981
vn 0.4242 -0.5402 0.7268
vn 0.2782 -0.8386 0.4683
vn 0.5104 -0.6706 0.5383
vn 0.1477 -0.7176 0.6806
vn 0.5129 -0.7676 0.3845
vn -0.7031 -0.6321 0.3257
vn -0.7050 -0.6481 0.2879
vn -0.7887 -0.5709 0.2283
vn -0.6211 -0.7399 0.2585
vn -0.6717 -0.6780 0.2986
vn -0.5630 -0.7713 0.2967
vn -0.6105 -0.6857 0.3964
vn -0.5802 -0.6752 0.4555
vn -0.4337 -0.9011 -0.0044
vn -0.2562 -0.9301 -0.2631
vn -0.4695 -0.8772 0.1001
vn -0.1370 -0.9781 -0.1567
vn -0.3899 -0.6053 0.6940
vn -0.3077 -0.6619 0.6835
vn -0.1835 -0.5417 0.8203
vn -0.1268 -0.5614 0.8178
vn 0.7753 -0.3545 -0.5228
vn 0.4355 -0.4597 -0.7740
vn 0.6535 -0.3149 -0.6883
vn 0.7170 -0.6533 -0.2431
vn 0.7330 -0.5426 -0.4103
vn 0.4756 -0.8033 -0.3584
vn 0.3219 -0.6871 -0.6513
vn 0.8175 -0.4615 -0.3446
vn 0.7309 -0.6569 -0.1851
vn 0.9585 -0.2712 -0.0884
vn 0.7616 -0.5200 0.3867
vn 0.2225 -0.9250 -0.3079
vn 0.1112 -0.8948 -0.4324
vn 0.2365 -0.1788 0.9550
vn 0.4308 -0.2901 0.8546
vn 0.2987 -0.5669 0.7677
vn 0.1299 -0.2579 0.9574
vn 0.4022 -0.2609 0.8776
vn 0.2356 -0.4447 0.8641
vn 0.5495 -0.5049 0.6657
vn 0.5938 -0.3374 0.7304
vn 0.0023 -0.5174 0.8557
vn -0.1242 -0.4588 0.8798
vn 0.7933 -0.4411 0.4195
vn 0.5988 -0.5936 0.5376
vn 0.9199 -0.3280 0.2148
vn -0.7098 -0.7043 -0.0121
vn -0.5486 -0.7786 -0.3047
vn -0.4242 -0.9054 -0.0178
vn -0.6645 -0.7255 -0.1793
vn -0.3247 -0.7105 -0.6243
vn -0.3770 -0.6979 -0.6089
vn -0.2461 -0.8404 -0.4829
vn -0.1338 -0.9766 -0.1682
vn -0.0034 -0.5583 -0.8296
vn -0.2609 -0.8172 -0.5138
vn -0.2098 -0.3202 -0.9238
vn 0.0535 -0.4423 -0.8953
vn -0.2779 -0.7801 -0.5605
vn -0.4782 -0.7845 -0.3947
vn -0.0843 -0.9062 -0.4143
vn 0.0975 -0.4096 -0.9071
vn 0.2087 -0.6448 -0.7353
vn -0.0964 -0.7621 -0.6403
vn -0.2729 -0.6031 -0.7495
vn -0.7709 -0.6053 0.1981
vn -0.8625 -0.4963 0.0990
vn -0.7651 -0.6325 0.1209
vn -0.6303 -0.7653 0.1305
vn -0.8060 -0.4845 0.3401
vn -0.5731 -0.8193 0.0166
vn -0.8733 -0.4760 0.1036
vn -0.5108 -0.7991 -0.3171
vn -0.3880 -0.9183 -0.0786
vn -0.2310 -0.9436 -0.2373
vn -0.2571 -0.6648 -0.7013
vn -0.4263 -0.4833 -0.7646
vn -0.4448 -0.2727 -0.8531
vn -0.1845 -0.7387 -0.6483
vn -0.1843 -0.7543 -0.6302
vn -0.2101 -0.5484 -0.8094
vn -0.1300 -0.4633 -0.8766
vn -0.3491 -0.4926 -0.7972
vn -0.0476 -0.7183 -0.6941
vn 0.1404 -0.5445 -0.8269
vn 0.0449 -0.5289 -0.8475
vn -0.6576 -0.5189 -0.5462
vn -0.3400 -0.5750 -0.7442
vn -0.8690 -0.4418 -0.2229
vn 0.5311 -0.4189 -0.7365
vn 0.4045 -0.5360 -0.7410
vn 0.3735 -0.6743 -0.6370
vn 0.3101 -0.5280 -0.7906
vn 0.4965 -0.5418 -0.6782
vn -0.0112 -0.9099 -0.4147
vn 0.0042 -0.7389 -0.6738
vn 0.0097 -0.4958 -0.8684
vn -0.0687 -0.7618 -0.6442
vn -0.9510 -0.1717 0.2572
vn -0.9721 -0.0114 0.2344
vn -0.9357 -0.2441 0.2548
vn -0.9214 0.1737 0.3476
vn -0.9126 0.3958 0.1025
vn -0.9251 0.3773 0.0437
vn -0.9968 -0.0798 0.0088
vn -0.9313 -0.2811 -0.2318
vn -0.7766 0.5407 -0.3234
vn -0.8614 0.5073 0.0236
vn -0.8650 0.3798 -0.3281
vn -0.7939 0.5253 -0.3061
vn -0.8247 0.5229 -0.2157
vn -0.7391 0.5863 -0.3315
vn -0.8535 0.4068 0.3258
vn -0.8586 -0.3073 -0.4104
vn -0.9509 0.0390 -0.3069
vn -0.8133 0.4678 -0.3460
vn -0.8672 -0.2770 -0.4139
vn -0.9028 -0.4209 0.0885
vn -0.9485 -0.2877 0.1325
vn -0.9749 0.0255 0.2213
vn -0.8733 -0.4519 0.1820
vn -0.9768 0.2062 0.0580
vn -0.9059 0.2884 0.3102
vn -0.9920 -0.0322 -0.1219
vn -0.9662 0.2516 0.0561
vn -0.9075 -0.4129 0.0774
vn -0.8626 -0.4893 -0.1286
vn -0.9132 0.0816 -0.3992
vn -0.8301 0.0241 -0.5571
vn -0.7923 0.1879 -0.5804
vn -0.9671 0.0674 -0.2451
vn -0.8500 0.0196 -0.5264
vn -0.9243 0.1970 -0.3268
vn -0.8704 0.0694 -0.4875
vn -0.8777 0.0198 -0.4788
vn -0.9357 0.3375 -0.1029
vn -0.8983 0.4288 -0.0952
vn -0.9109 0.4061 -0.0730
vn -0.9432 0.3289 -0.0476
vn -0.9123 -0.0358 -0.4080
vn -0.9480 0.1967 -0.2501
vn -0.9091 0.1251 -0.3973
vn -0.5466 -0.3378 -0.7662
vn -0.4489 -0.2732 -0.8508
vn -0.7408 -0.3259 -0.5874
vn -0.7655 -0.0011 -0.6434
vn -0.7207 0.0960 -0.6865
vn -0.8643 -0.2309 -0.4468
vn -0.8493 0.4780 -0.2241
vn -0.9091 0.2866 -0.3024
vn -0.9454 -0.2357 0.2253
vn -0.9042 -0.1104 -0.4125
vn -0.8954 -0.4066 -0.1814
vn -0.8199 -0.0737 0.5677
vn -0.9816 0.1405 -0.1293
vn -0.9902 0.0975 0.1002
vn -0.9683 0.1102 -0.2241
vn -0.8554 0.0590 -0.5145
vn -0.8876 -0.1163 0.4458
vn -0.9644 -0.1393 0.2249
vn -0.8928 -0.1272 0.4321
vn -0.9576 -0.1461 0.2482
vn -0.9843 -0.1763 -0.0045
vn -0.9963 -0.0851 0.0079
vn -0.8203 -0.0461 -0.5701
vn -0.8760 -0.1865 -0.4447
vn -0.9099 -0.0338 -0.4134
vn -0.8821 0.0290 -0.4702
vn -0.9954 0.0293 0.0916
vn -0.8617 -0.4226 0.2810
vn -0.9105 -0.0742 0.4067
vn -0.9908 -0.0497 0.1257
vn -0.9843 -0.1123 0.1362
vn -0.9978 -0.0172 -0.0639
vn -0.8361 -0.2793 0.4721
vn -0.8719 0.0174 0.4894
vn -0.8519 -0.2900 0.4360
vn -0.7406 -0.0504 0.6701
vn -0.9173 -0.1905 -0.3498
vn -0.8566 0.0493 -0.5137
vn -0.5011 -0.0763 0.8620
vn -0.6381 -0.1769 0.7493
vn -0.5904 -0.0704 0.8041
vn -0.5161 -0.0230 0.8562
vn -0.8272 -0.1632 0.5376
vn -0.7528 -0.1802 0.6331
vn -0.6310 -0.2833 0.7222
vn -0.7434 0.1761 0.6453
vn -0.9833 0.0550 0.1737
vn -0.9053 0.2491 0.3441
vn -0.9910 0.1319 -0.0243
vn -0.7012 -0.3403 0.6265
vn -0.8196 -0.0430 0.5714
vn -0.8975 0.1504 -0.4146
vn -0.8088 0.1028 -0.5790
vn -0.9196 -0.0299 -0.3917
vn -0.8336 0.0929 -0.5445
vn -0.8418 0.0809 -0.5337
vn -0.9066 0.0083 -0.4219
vn -0.9259 0.1952 -0.3234
vn -0.8739 0.2608 -0.4102
vn -0.9908 0.1036 -0.0872
vn 0.7421 0.3631 0.5634
vn 0.5285 0.3964 0.7507
vn 0.6045 0.2242 0.7644
vn 0.8315 0.3449 0.4355
vn 0.4979 0.4307 0.7527
vn 0.5036 0.5016 0.7034
vn 0.6209 0.3469 0.7029
vn 0.4907 0.3651 0.7911
vn 0.7092 0.4745 0.5214
vn 0.6015 0.4399 0.6668
vn 0.8053 0.4141 0.4242
vn 0.5030 0.5922 0.6294
vn 0.6050 0.4762 0.6381
vn 0.5802 0.4133 0.7018
vn 0.0526 0.3342 0.9410
vn 0.6326 0.4497 0.6306
vn 0.5523 0.4295 0.7145
vn 0.2969 0.2223 0.9287
vn 0.7217 0.4441 0.5309
vn 0.6809 -0.3027 0.6669
vn 0.2115 -0.6032 0.7690
vn 0.8274 0.1575 0.5391
vn 0.5187 0.0274 0.8545
vn 0.6040 0.3674 0.7072
vn 0.4708 0.2259 0.8529
vn 0.2780 -0.1726 0.9449
vn 0.7947 0.5228 0.3084
vn 0.7693 0.5930 0.2377
vn 0.7563 0.5249 0.3904
vn 0.9344 0.3174 0.1618
vn 0.2627 -0.0207 0.9647
vn 0.4774 0.1241 0.8699
vn 0.2758 0.3863 0.8802
vn -0.0748 0.1004 0.9921
vn 0.8852 0.2820 0.3701
vn 0.8235 0.3862 0.4156
vn 0.9695 0.0980 0.2247
vn 0.8216 0.3090 0.4790
vn 0.6452 0.4287 0.6324
vn 0.9315 0.2026 0.3022
vn 0.9817 0.1559 0.1091
vn 0.7555 0.3113 0.5764
vn 0.7473 0.1911 0.6364
vn 0.6400 0.3923 0.6606
vn 0.6485 0.3515 0.6751
vn 0.9535 0.2452 0.1753
vn 0.8917 0.3586 0.2760
vn -0.3879 0.1256 0.9131
vn -0.3645 0.1744 0.9147
vn -0.5716 0.0352 0.8198
vn -0.2570 0.1636 0.9524
vn -0.0670 0.3889 0.9189
vn -0.1888 0.3955 0.8989
vn -0.4858 0.0696 0.8713
vn -0.0359 0.1987 0.9794
vn -0.3922 0.0553 0.9182
vn 0.3238 0.4886 0.8102
vn 0.2345 0.2890 0.9281
vn 0.5396 0.3787 0.7519
vn -0.7423 -0.3582 0.5663
vn -0.5881 -0.1021 0.8023
vn -0.7105 -0.0983 0.6968
vn -0.3782 -0.4636 0.8013
vn -0.3381 -0.3196 0.8852
vn -0.4985 -0.0503 0.8655
vn -0.5527 -0.2731 0.7874
vn -0.7195 -0.2218 0.6582
vn 0.1725 -0.5331 0.8283
vn -0.3980 -0.3828 0.8337
vn -0.1739 -0.4826 0.8584
vn -0.2555 -0.3491 0.9016
vn -0.4817 -0.2691 0.8340
vn -0.2100 -0.4819 0.8507
vn -0.7354 -0.1143 0.6679
vn -0.5215 0.0155 0.8531
vn -0.6641 0.0726 0.7441
vn -0.5933 -0.2595 0.7620
vn -0.4764 -0.3855 0.7902
vn -0.7667 -0.5619 0.3106
vn -0.6207 -0.6677 0.4109
vn -0.8434 -0.2761 0.4610
vn -0.3108 -0.6555 0.6882
vn -0.1792 -0.5484 0.8168
vn -0.8676 -0.0746 0.4916
vn -0.7966 -0.2004 0.5703
vn 0.2033 -0.5331 0.8212
vn 0.1880 -0.5872 0.7873
vn 0.2682 -0.2971 0.9164
vn -0.0256 -0.2722 0.9619
vn -0.3764 -0.1307 0.9172
vn 0.0808 -0.5056 0.8590
vn -0.6628 -0.1576 0.7320
vn -0.7346 0.0012 0.6785
vn -0.6271 -0.0035 0.7790
vn -0.7698 0.0983 0.6306
vn -0.5145 0.0694 0.8547
vn 0.8394 0.5429 0.0250
vn 0.8584 0.4664 -0.2135
vn 0.8678 0.4943 -0.0502
vn 0.9140 0.3934 0.0992
vn 0.9472 0.2975 -0.1198
vn 0.9193 0.3930 0.0220
vn 0.8921 0.4508 -0.0301
vn 0.8811 0.4264 -0.2048
vn 0.8690 0.0780 0.4885
vn 0.8931 0.2712 0.3588
vn 0.9495 0.1712 0.2629
vn 0.9372 -0.1030 0.3333
vn 0.9901 0.1284 -0.0561
vn 0.7703 0.6330 -0.0774
vn 0.9469 0.0477 -0.3180
vn 0.9364 0.2219 -0.2719
vn 0.9748 -0.2133 -0.0656
vn 0.9233 0.2894 -0.2526
vn 0.9336 -0.3441 0.0999
vn 0.8556 -0.0249 0.5171
vn 0.9819 0.0778 0.1725
vn 0.9050 0.4156 0.0913
vn 0.9041 0.3838 0.1878
vn 0.8053 0.0432 0.5912
vn 0.7796 0.5748 0.2487
vn 0.7114 0.6273 0.3169
vn 0.8564 0.3095 0.4132
vn 0.9159 0.3734 0.1472
vn 0.9370 0.3362 -0.0947
vn 0.9246 0.1730 0.3395
vn 0.6863 -0.2160 0.6945
vn 0.7759 -0.2301 0.5874
vn 0.8880 -0.0392 0.4581
vn 0.9193 -0.3265 0.2199
vn 0.9490 -0.3132 0.0352
vn 0.8857 0.3220 0.3345
vn 0.8439 -0.1810 -0.5051
vn 0.8692 -0.1635 -0.4666
vn 0.8026 0.2132 -0.5572
vn 0.9237 -0.3461 -0.1644
vn 0.9554 0.1396 -0.2601
vn 0.8422 0.2988 -0.4487
vn 0.9973 0.0584 -0.0435
vn 0.9506 -0.3093 0.0250
vn 0.9044 0.2716 0.3291
vn 0.8939 0.2013 0.4006
vn 0.7930 0.1213 0.5970
vn 0.8985 -0.0196 0.4386
vn 0.8749 -0.1521 0.4598
vn 0.9832 0.1590 0.0893
vn 0.9690 -0.2318 0.0855
vn 0.8031 0.1968 0.5623
vn 0.9156 -0.3745 -0.1463
vn 0.9923 0.0196 0.1224
vn 0.9745 -0.1481 -0.1689
vn 0.9030 -0.3878 -0.1849
vn 0.8955 -0.2374 0.3765
vn 0.9974 0.0361 0.0620
vn 0.9213 -0.0955 0.3770
vn 0.9323 -0.2921 -0.2131
vn 0.9886 -0.1500 0.0115
vn 0.9963 0.0689 0.0506
vn 0.9808 -0.1687 0.0980
vn 0.8910 0.2072 0.4040
vn 0.7999 0.3459 0.4905
vn 0.8305 0.0244 0.5564
vn 0.8530 0.0524 0.5192
vn 0.7715 0.0525 0.6340
vn 0.8138 -0.0236 0.5806
vn 0.9518 0.1995 0.2328
vn 0.8980 -0.1027 0.4279
vn 0.8499 0.2536 0.4618
vn 0.9556 0.1510 0.2530
vn 0.9328 0.3310 0.1428
vn 0.6689 -0.2848 -0.6866
vn 0.7270 -0.2375 -0.6442
vn 0.8745 -0.0926 -0.4761
vn 0.8263 -0.2171 -0.5196
vn 0.9977 -0.0624 -0.0249
vn 0.7519 -0.3536 -0.5564
vn 0.7827 -0.2480 -0.5709
vn 0.8263 -0.2565 -0.5014
vn 0.6142 -0.5545 -0.5615
vn 0.9972 0.0047 0.0740
vn 0.3896 -0.0541 -0.9194
vn 0.5955 -0.1112 -0.7956
vn 0.4838 -0.2576 -0.8364
vn 0.5650 0.0835 -0.8209
vn 0.8616 0.1300 -0.4906
vn 0.6584 -0.2300 -0.7166
vn 0.4457 -0.4455 -0.7764
vn 0.8010 0.2883 -0.5247
vn 0.9209 0.3661 0.1340
vn 0.9293 0.3488 -0.1213
vn 0.6279 -0.5289 -0.5710
vn 0.5708 -0.4824 -0.6644
vn 0.1600 -0.4777 -0.8638
vn 0.4386 -0.1999 -0.8762
vn 0.0213 -0.3019 -0.9531
vn 0.4949 -0.3882 -0.7774
vn 0.5009 -0.0091 -0.8655
vn 0.4686 -0.1189 -0.8754
vn 0.5653 -0.1880 -0.8032
vn 0.4578 -0.3307 -0.8253
vn 0.2312 -0.4166 -0.8792
vn 0.5068 -0.4798 -0.7162
vn 0.2921 -0.5662 -0.7708
vn 0.3605 -0.1233 -0.9246
vn 0.4333 -0.1088 -0.8946
vn 0.4078 -0.0660 -0.9107
vn 0.6409 -0.1912 -0.7435
vn 0.5358 -0.3796 -0.7542
vn 0.4862 -0.2706 -0.8309
vn 0.4665 -0.2591 -0.8457
vn 0.6350 -0.2158 -0.7418
vn -0.1605 -0.4167 -0.8948
vn -0.3993 -0.2497 -0.8822
vn 0.0046 -0.4249 -0.9052
vn 0.1135 -0.5263 -0.8427
vn -0.2442 -0.2329 -0.9414
vn 0.3285 -0.1932 -0.9245
vn 0.1247 -0.0539 -0.9907
vn 0.4987 -0.1137 -0.8593
vn 0.0054 -0.6051 -0.7961
vn -0.0099 -0.6485 -0.7612
vn 0.1123 -0.1639 -0.9801
vn 0.4220 -0.2390 -0.8745
vn 0.5486 -0.4256 -0.7197
vn 0.2921 -0.3888 -0.8738
vn 0.0494 0.0116 -0.9987
vn 0.4962 -0.3975 -0.7718
vn 0.4561 -0.3443 -0.8206
vn 0.1067 -0.2226 -0.9690
vn 0.3437 -0.4480 -0.8253
vn 0.2357 -0.0142 -0.9717
vn 0.5987 -0.4008 -0.6935
vn 0.6427 -0.3751 -0.6681
vn 0.6954 -0.2971 -0.6543
vn 0.4246 -0.5259 -0.7370
vn 0.6863 -0.2855 -0.6689
vn -0.7768 0.3866 -0.4972
vn -0.2250 0.3089 -0.9241
vn -0.5717 0.2199 -0.7904
vn -0.8880 0.3504 -0.2978
vn -0.5135 0.3492 -0.7838
vn -0.6704 0.4792 -0.5665
vn -0.2569 0.1787 -0.9498
vn -0.0720 0.1400 -0.9875
vn -0.8070 0.3051 -0.5056
vn -0.7477 0.2597 -0.6111
vn -0.8630 0.2538 -0.4369
vn -0.6790 0.4383 -0.5889
vn -0.5450 0.2206 -0.8089
vn -0.5142 0.3119 -0.7990
vn 0.0283 0.0686 -0.9972
vn -0.2957 0.1671 -0.9406
vn -0.1428 0.2419 -0.9597
vn -0.0469 0.0526 -0.9975
vn -0.5257 0.3770 -0.7626
vn -0.4307 -0.2713 -0.8607
vn -0.6916 0.1214 -0.7120
vn -0.3353 -0.1624 -0.9280
vn -0.7993 0.4051 -0.4438
vn -0.7867 0.5268 -0.3219
vn 0.0123 0.1116 -0.9937
vn 0.0686 0.1125 -0.9913
vn -0.7941 0.3908 -0.4655
vn -0.7196 0.3132 -0.6197
vn -0.7149 0.4961 -0.4928
vn -0.9081 0.1209 -0.4009
vn -0.8278 0.2924 -0.4789
vn -0.7490 0.3463 -0.5649
vn -0.7217 0.4241 -0.5470
vn -0.5001 0.2697 -0.8229
vn -0.9094 0.2376 -0.3414
vn -0.1864 0.0749 -0.9796
vn -0.0177 0.1917 -0.9813
vn -0.0471 0.0105 -0.9988
vn -0.1605 0.2267 -0.9606
vn -0.2654 0.2022 -0.9427
vn -0.0399 0.0934 -0.9948
vn -0.0314 0.3223 -0.9461
vn -0.2353 0.3592 -0.9031
vn -0.1797 0.5055 -0.8439
vn 0.0071 0.9487 0.3161
vn 0.2090 0.8738 0.4391
vn 0.5092 0.7346 0.4485
vn -0.1400 0.9899 -0.0224
vn 0.0867 0.9506 0.2979
vn -0.2153 0.9477 0.2356
vn -0.0089 0.9604 0.2786
vn 0.1178 0.8782 0.4636
vn -0.4961 0.8436 -0.2055
vn -0.2954 0.9542 -0.0465
vn -0.2239 0.9521 -0.2083
vn -0.5234 0.8251 -0.2128
vn -0.0718 0.9865 0.1473
vn -0.2027 0.9546 0.2183
vn -0.2885 0.5698 0.7695
vn -0.2060 0.8866 0.4142
vn -0.3294 0.6982 0.6356
vn -0.2274 0.7834 0.5784
vn -0.3762 0.9265 0.0020
vn 0.9082 0.2976 0.2944
vn 0.6434 0.6842 0.3434
vn 0.6999 0.4558 0.5499
vn 0.5761 0.6706 0.4674
vn 0.6914 0.5398 0.4802
vn 0.4099 0.9090 0.0754
vn -0.1079 0.9879 -0.1118
vn 0.2572 0.9502 0.1758
vn -0.1493 0.9821 -0.1151
vn 0.5921 0.5647 0.5749
vn 0.4091 0.6453 0.6451
vn -0.8004 0.3702 -0.4715
vn -0.6202 0.3872 -0.6822
vn -0.7727 0.5178 -0.3672
vn -0.3205 0.8641 -0.3881
vn -0.3576 0.8322 -0.4238
vn -0.7218 0.5702 -0.3923
vn -0.3092 0.9269 -0.2126
vn -0.3157 0.9209 -0.2287
vn -0.3055 0.3104 0.9002
vn -0.4584 0.4481 0.7675
vn -0.3074 0.3853 0.8701
vn -0.0785 0.5368 0.8400
vn -0.6903 0.4745 0.5462
vn -0.8361 0.5484 0.0149
vn 0.4670 0.6190 0.6314
vn 0.3056 0.9301 0.2036
vn 0.3513 0.8802 0.3192
vn 0.5516 0.7378 0.3892
vn 0.3121 0.9466 -0.0806
vn 0.0880 0.9961 0.0071
vn -0.0045 1.0000 -0.0003
vn 0.0126 0.9998 -0.0176
vn 0.2199 0.6858 -0.6938
vn 0.2927 0.8284 -0.4775
vn 0.6538 0.6818 -0.3281
vn 0.0552 0.6357 -0.7700
vn -0.0603 0.9584 -0.2789
vn 0.7430 0.6367 -0.2062
vn -0.2722 0.9457 -0.1777
vn -0.5073 0.7780 -0.3705
vn -0.4748 0.8150 -0.3321
vn -0.2697 0.9601 -0.0735
vn -0.2796 0.7076 -0.6489
vn 0.7728 0.3410 0.5352
vn 0.7928 0.5480 0.2668
vn 0.9362 0.2951 0.1908
vn 0.6439 0.2311 0.7293
vn 0.8687 0.4939 -0.0393
vn 0.3684 0.9081 0.1991
vn 0.0221 0.9988 -0.0447
vn 0.2723 0.2210 -0.9365
vn 0.6527 0.5109 -0.5595
vn -0.2412 0.3843 -0.8912
vn -0.0785 0.4494 -0.8899
vn -0.3868 0.4741 -0.7910
vn 0.7505 0.6538 -0.0971
vn -0.6132 0.4563 -0.6447
vn -0.4608 0.8063 -0.3708
vn -0.6423 0.6002 -0.4767
vn -0.3034 0.9253 -0.2275
vn -0.4880 0.6985 -0.5234
usemtl Material.004
s 1
f 1/1/1 2/2/2 3/3/3
f 4/4/4 5/5/5 1/1/1
f 5/5/5 6/6/6 7/7/7
f 5/5/5 8/8/8 2/2/2
f 9/9/9 10/10/10 11/11/11
f 12/12/12 13/13/13 10/10/10
f 10/10/10 6/6/6 14/14/14
f 11/11/11 14/14/14 4/4/4
f 15/15/15 16/16/16 17/17/17
f 18/18/18 7/7/7 16/16/16
f 16/16/16 6/6/6 13/13/13
f 17/17/17 13/13/13 19/19/19
f 20/20/20 21/21/21 22/22/22
f 23/23/23 24/24/24 20/20/20
f 25/25/25 26/26/26 24/24/24
f 24/24/24 27/27/27 21/21/21
f 28/28/28 25/25/25 23/23/23
f 29/29/29 30/30/30 28/28/28
f 31/31/31 1/1/1 30/30/30
f 30/30/30 3/3/3 25/25/25
f 26/26/26 32/32/32 27/27/27
f 3/3/3 33/33/33 26/26/26
f 2/2/2 34/34/34 33/33/33
f 33/33/33 35/35/35 32/32/32
f 36/36/36 37/37/37 38/38/38
f 36/36/36 39/39/39 40/40/40
f 40/40/40 9/9/9 41/41/41
f 37/37/37 41/41/41 42/42/42
f 43/43/43 44/44/44 39/39/39
f 45/45/45 46/46/46 44/44/44
f 44/44/44 19/19/19 12/12/12
f 39/39/39 12/12/12 9/9/9
f 42/42/42 47/47/47 48/48/48
f 41/41/41 11/11/11 47/47/47
f 47/47/47 4/4/4 31/31/31
f 48/48/48 31/31/31 29/29/29
f 49/49/49 50/50/50 51/51/51
f 52/52/52 53/53/53 49/49/49
f 54/54/54 55/55/55 53/53/53
f 53/53/53 56/56/56 50/50/50
f 52/52/52 57/57/57 54/54/54
f 58/58/58 34/34/34 57/57/57
f 57/57/57 8/8/8 18/18/18
f 54/54/54 18/18/18 15/15/15
f 55/55/55 59/59/59 56/56/56
f 55/55/55 17/17/17 60/60/60
f 17/17/17 46/46/46 60/60/60
f 60/60/60 61/61/61 59/59/59
f 62/62/62 63/63/63 64/64/64
f 65/65/65 66/66/66 63/63/63
f 63/63/63 67/67/67 68/68/68
f 64/64/64 68/68/68 69/69/69
f 70/70/70 71/71/71 72/72/72
f 73/73/73 74/74/74 70/70/70
f 74/74/74 67/67/67 66/66/66
f 74/74/74 75/75/75 71/71/71
f 76/76/76 77/77/77 78/78/78
f 69/69/69 79/79/79 76/76/76
f 68/68/68 80/80/80 79/79/79
f 79/79/79 73/73/73 77/77/77
f 22/81/22 81/82/81 20/83/20
f 82/84/82 83/85/83 81/82/81
f 81/82/81 62/62/62 84/86/84
f 20/83/20 84/86/84 23/87/23
f 85/88/85 86/89/86 83/85/83
f 87/90/87 88/91/88 86/89/86
f 86/89/86 75/75/75 65/65/65
f 83/85/83 65/65/65 62/62/62
f 23/87/23 89/92/89 28/93/28
f 84/86/84 64/64/64 89/92/89
f 89/92/89 69/69/69 90/94/90
f 28/93/28 90/94/90 29/95/29
f 91/96/91 92/97/92 93/98/93
f 94/99/94 95/100/95 91/96/91
f 96/101/96 97/102/97 95/100/95
f 95/100/95 98/103/98 92/97/92
f 99/104/99 96/101/96 94/99/94
f 99/104/99 100/105/100 101/106/101
f 101/106/101 73/73/73 70/70/70
f 101/106/101 72/72/72 96/101/96
f 97/102/97 102/107/102 98/103/98
f 72/72/72 103/108/103 97/102/97
f 71/71/71 88/91/88 103/108/103
f 103/108/103 104/109/104 102/107/102
f 37/110/37 105/111/105 38/112/38
f 42/113/42 106/114/106 37/110/37
f 107/115/107 108/116/108 106/114/106
f 106/114/106 109/117/109 105/111/105
f 48/118/48 107/115/107 42/113/42
f 29/95/29 110/119/110 48/118/48
f 90/94/90 76/76/76 110/119/110
f 110/119/110 78/78/78 107/115/107
f 108/116/108 111/120/111 109/117/109
f 78/78/78 112/121/112 108/116/108
f 77/77/77 100/105/100 112/121/112
f 112/121/112 113/122/113 111/120/111
f 114/123/114 115/124/115 116/125/116
f 117/126/117 118/127/118 115/124/115
f 115/124/115 119/128/119 120/129/120
f 116/125/116 120/129/120 121/130/121
f 122/131/122 123/132/123 124/133/124
f 125/134/125 126/135/126 122/131/122
f 127/136/127 118/127/118 126/135/126
f 126/135/126 128/137/128 123/132/123
f 129/138/129 130/139/130 131/140/131
f 132/141/132 120/129/120 130/139/130
f 130/139/130 119/128/119 127/136/127
f 131/140/131 127/136/127 125/134/125
f 22/142/22 133/143/133 82/144/82
f 134/145/134 135/146/135 133/143/133
f 133/143/133 114/123/114 136/147/136
f 82/144/82 136/147/136 85/148/85
f 137/149/137 138/150/138 135/146/135
f 139/151/139 140/152/140 138/150/138
f 138/150/138 128/137/128 117/126/117
f 135/146/135 117/126/117 114/123/114
f 85/148/85 141/153/141 87/154/87
f 136/147/136 116/125/116 141/153/141
f 141/153/141 121/130/121 142/155/142
f 141/153/141 104/156/104 87/154/87
f 143/157/143 144/158/144 145/159/145
f 146/160/146 147/161/147 143/157/143
f 148/162/148 149/163/149 147/161/147
f 147/161/147 150/164/150 144/158/144
f 151/165/151 148/162/148 146/160/146
f 152/166/152 153/167/153 151/165/151
f 154/168/154 122/131/122 153/167/153
f 153/167/153 124/133/124 148/162/148
f 149/163/149 155/169/155 150/164/150
f 124/133/124 156/170/156 149/163/149
f 123/132/123 140/152/140 156/170/156
f 156/170/156 157/171/157 155/169/155
f 93/172/93 158/173/158 159/174/159
f 92/175/92 160/176/160 158/173/158
f 158/173/158 129/138/129 161/177/161
f 159/174/159 161/177/161 162/178/162
f 98/179/98 163/180/163 160/176/160
f 102/181/102 142/155/142 163/180/163
f 163/180/163 121/130/121 132/141/132
f 160/176/160 132/141/132 129/138/129
f 162/178/162 164/182/164 165/183/165
f 161/177/161 131/140/131 164/182/164
f 164/182/164 125/134/125 154/168/154
f 165/183/165 154/168/154 152/166/152
f 166/184/166 167/185/167 168/186/168
f 169/187/169 170/188/170 166/184/166
f 171/189/171 172/190/172 170/188/170
f 170/188/170 173/191/173 167/185/167
f 174/192/174 175/193/175 176/194/176
f 177/195/177 178/196/178 175/193/175
f 175/193/175 179/197/179 171/189/171
f 176/194/176 171/189/171 169/187/169
f 180/198/180 181/199/181 182/200/182
f 183/201/183 172/190/172 181/199/181
f 181/199/181 179/197/179 178/196/178
f 182/200/182 178/196/178 184/202/184
f 185/203/185 134/204/134 22/205/22
f 186/206/186 187/207/187 185/203/185
f 188/208/188 189/209/189 187/207/187
f 187/207/187 137/210/137 134/204/134
f 190/211/190 188/208/188 186/206/186
f 191/212/191 192/213/192 190/211/190
f 193/214/193 166/184/166 192/213/192
f 192/213/192 168/186/168 188/208/188
f 189/209/189 139/215/139 137/210/137
f 168/186/168 194/216/194 189/209/189
f 167/185/167 195/217/195 194/216/194
f 194/216/194 157/218/157 139/215/139
f 196/219/196 197/220/197 198/221/198
f 199/222/199 200/223/200 197/220/197
f 197/220/197 174/192/174 201/224/201
f 198/221/198 201/224/201 202/225/202
f 203/226/203 204/227/204 200/223/200
f 205/228/205 206/229/206 204/227/204
f 204/227/204 184/202/184 177/195/177
f 200/223/200 177/195/177 174/192/174
f 202/225/202 207/230/207 208/231/208
f 201/224/201 176/194/176 207/230/207
f 207/230/207 169/187/169 193/214/193
f 208/231/208 193/214/193 191/212/191
f 145/232/145 209/233/209 210/234/210
f 144/235/144 211/236/211 209/233/209
f 209/233/209 180/198/180 212/237/212
f 210/234/210 212/237/212 213/238/213
f 150/239/150 214/240/214 211/236/211
f 155/241/155 195/217/195 214/240/214
f 214/240/214 173/191/173 183/201/183
f 211/236/211 183/201/183 180/198/180
f 212/237/212 215/242/215 213/238/213
f 212/237/212 182/200/182 216/243/216
f 216/243/216 184/202/184 206/229/206
f 215/242/215 206/229/206 217/244/217
f 218/245/218 219/246/219 220/247/220
f 221/248/221 222/249/222 218/245/218
f 223/250/223 224/251/224 222/249/222
f 222/249/222 225/252/225 219/246/219
f 226/253/226 227/254/227 228/255/228
f 229/256/229 230/257/230 227/254/227
f 227/254/227 231/258/231 223/250/223
f 228/255/228 223/250/223 221/248/221
f 232/259/232 233/260/233 234/261/234
f 235/262/235 224/251/224 233/260/233
f 233/260/233 231/258/231 230/257/230
f 233/260/233 236/263/236 234/261/234
f 237/264/237 238/265/238 51/266/51
f 239/267/239 240/268/240 237/264/237
f 241/269/241 242/270/242 240/268/240
f 240/268/240 243/271/243 238/265/238
f 244/272/244 241/269/241 239/267/239
f 245/273/245 246/274/246 244/272/244
f 247/275/247 218/245/218 246/274/246
f 246/274/246 220/247/220 241/269/241
f 242/270/242 248/276/248 243/271/243
f 220/247/220 249/277/249 242/270/242
f 219/246/219 250/278/250 249/277/249
f 249/277/249 251/279/251 248/276/248
f 252/280/252 253/281/253 254/282/254
f 255/283/255 256/284/256 253/281/253
f 253/281/253 226/253/226 257/285/257
f 254/282/254 257/285/257 258/286/258
f 259/287/259 260/288/260 256/284/256
f 261/289/261 262/290/262 260/288/260
f 260/288/260 236/263/236 229/256/229
f 256/284/256 229/256/229 226/253/226
f 258/286/258 263/291/263 264/292/264
f 257/285/257 228/255/228 263/291/263
f 263/291/263 221/248/221 247/275/247
f 264/292/264 247/275/247 245/273/245
f 196/293/196 265/294/265 266/295/266
f 267/296/267 268/297/268 265/294/265
f 265/294/265 232/259/232 269/298/269
f 266/295/266 269/298/269 270/299/270
f 271/300/271 272/301/272 268/297/268
f 273/302/273 250/278/250 272/301/272
f 272/301/272 225/252/225 235/262/235
f 268/297/268 235/262/235 232/259/232
f 270/299/270 274/303/274 275/304/275
f 269/298/269 234/261/234 274/303/274
f 234/261/234 262/290/262 274/303/274
f 274/303/274 276/305/276 275/304/275
f 277/306/277 278/307/278 279/308/279
f 280/309/280 281/310/281 278/307/278
f 278/307/278 282/311/282 283/312/283
f 279/308/279 283/312/283 284/313/284
f 285/314/285 286/315/286 287/316/287
f 288/317/288 289/318/289 286/315/286
f 286/315/286 282/311/282 281/310/281
f 286/315/286 290/319/290 287/316/287
f 291/320/291 292/321/292 293/322/293
f 284/313/284 294/323/294 291/320/291
f 283/312/283 289/318/289 294/323/294
f 294/323/294 295/324/295 292/321/292
f 22/325/22 296/326/296 185/327/185
f 21/328/21 297/329/297 296/326/296
f 296/326/296 277/306/277 298/330/298
f 185/327/185 298/330/298 186/331/186
f 27/332/27 299/333/299 297/329/297
f 32/334/32 300/335/300 299/333/299
f 299/333/299 290/319/290 280/309/280
f 297/329/297 280/309/280 277/306/277
f 186/331/186 301/336/301 190/337/190
f 298/330/298 279/308/279 301/336/301
f 301/336/301 284/313/284 302/338/302
f 190/337/190 302/338/302 191/339/191
f 51/340/51 303/341/303 49/342/49
f 238/343/238 304/344/304 303/341/303
f 303/341/303 285/314/285 305/345/305
f 49/342/49 305/345/305 52/346/52
f 243/347/243 306/348/306 304/344/304
f 248/349/248 307/350/307 306/348/306
f 306/348/306 295/324/295 288/317/288
f 304/344/304 288/317/288 285/314/285
f 305/345/305 58/351/58 52/346/52
f 285/314/285 308/352/308 305/345/305
f 287/316/287 300/335/300 308/352/308
f 308/352/308 35/353/35 58/351/58
f 198/354/198 267/355/267 196/356/196
f 202/357/202 309/358/309 198/354/198
f 310/359/310 311/360/311 309/358/309
f 309/358/309 271/361/271 267/355/267
f 208/362/208 310/359/310 202/357/202
f 191/339/191 312/363/312 208/362/208
f 302/338/302 291/320/291 312/363/312
f 312/363/312 293/322/293 310/359/310
f 311/360/311 273/364/273 271/361/271
f 293/322/293 313/365/313 311/360/311
f 292/321/292 307/350/307 313/365/313
f 313/365/313 251/366/251 273/364/273
f 314/367/314 315/368/315 316/369/316
f 317/370/317 318/371/318 314/367/314
f 319/372/319 320/373/320 318/371/318
f 318/371/318 321/374/321 315/368/315
f 322/375/322 323/376/323 324/377/324
f 325/378/325 326/379/326 323/376/323
f 323/376/323 327/380/327 319/372/319
f 324/377/324 319/372/319 317/370/317
f 328/381/328 329/382/329 330/383/330
f 331/384/331 320/373/320 329/382/329
f 329/382/329 327/380/327 326/379/326
f 330/383/330 326/379/326 332/385/332
f 254/386/254 333/387/333 252/388/252
f 258/389/258 334/390/334 254/386/254
f 335/391/335 336/392/336 334/390/334
f 334/390/334 337/393/337 333/387/333
f 264/394/264 335/391/335 258/389/258
f 245/395/245 338/396/338 264/394/264
f 339/397/339 314/367/314 338/396/338
f 338/396/338 316/369/316 335/391/335
f 336/392/336 340/398/340 337/393/337
f 316/369/316 341/399/341 336/392/336
f 315/368/315 342/400/342 341/399/341
f 341/399/341 343/401/343 340/398/340
f 51/402/51 344/403/344 237/404/237
f 50/405/50 345/406/345 344/403/344
f 344/403/344 322/375/322 346/407/346
f 237/404/237 346/407/346 239/408/239
f 56/409/56 347/410/347 345/406/345
f 59/411/59 348/412/348 347/410/347
f 347/410/347 332/385/332 325/378/325
f 345/406/345 325/378/325 322/375/322
f 239/408/239 349/413/349 244/414/244
f 346/407/346 324/377/324 349/413/349
f 349/413/349 317/370/317 339/397/339
f 244/414/244 339/397/339 245/395/245
f 38/415/38 350/416/350 36/417/36
f 351/418/351 352/419/352 350/416/350
f 350/416/350 328/381/328 353/420/353
f 350/416/350 43/421/43 36/417/36
f 354/422/354 355/423/355 352/419/352
f 356/424/356 342/400/342 355/423/355
f 355/423/355 321/374/321 331/384/331
f 352/419/352 331/384/331 328/381/328
f 43/421/43 357/425/357 45/426/45
f 353/420/353 330/383/330 357/425/357
f 357/425/357 332/385/332 348/412/348
f 357/425/357 61/427/61 45/426/45
f 358/428/358 359/429/359 360/430/360
f 361/431/361 362/432/362 359/429/359
f 359/429/359 363/433/363 364/434/364
f 360/430/360 364/434/364 365/435/365
f 366/436/366 367/437/367 368/438/368
f 369/439/369 370/440/370 366/436/366
f 371/441/371 362/432/362 370/440/370
f 370/440/370 372/442/372 367/437/367
f 373/443/373 374/444/374 375/445/375
f 376/446/376 364/434/364 374/444/374
f 374/444/374 363/433/363 371/441/371
f 375/445/375 371/441/371 369/439/369
f 252/447/252 377/448/377 378/449/378
f 333/450/333 379/451/379 377/448/377
f 377/448/377 358/428/358 380/452/380
f 378/449/378 380/452/380 381/453/381
f 337/454/337 382/455/382 379/451/379
f 340/456/340 383/457/383 382/455/382
f 382/455/382 372/442/372 361/431/361
f 379/451/379 361/431/361 358/428/358
f 381/453/381 384/458/384 385/459/385
f 380/452/380 360/430/360 384/458/384
f 360/430/360 386/460/386 384/458/384
f 384/458/384 387/461/387 385/459/385
f 388/462/388 351/463/351 38/464/38
f 389/465/389 390/466/390 388/462/388
f 391/467/391 392/468/392 390/466/390
f 390/466/390 354/469/354 351/463/351
f 393/470/393 391/467/391 389/465/389
f 394/471/394 395/472/395 393/470/393
f 396/473/396 366/436/366 395/472/395
f 395/472/395 368/438/368 391/467/391
f 392/468/392 356/474/356 354/469/354
f 368/438/368 397/475/397 392/468/392
f 367/437/367 383/457/383 397/475/397
f 397/475/397 343/476/343 356/474/356
f 398/477/398 399/478/399 400/479/400
f 401/480/401 402/481/402 399/478/399
f 399/478/399 373/443/373 403/482/403
f 400/479/400 403/482/403 404/483/404
f 405/484/405 406/485/406 402/481/402
f 407/486/407 386/460/386 406/485/406
f 406/485/406 365/435/365 376/446/376
f 402/481/402 376/446/376 373/443/373
f 404/483/404 408/487/408 409/488/409
f 403/482/403 375/445/375 408/487/408
f 408/487/408 369/439/369 396/473/396
f 409/488/409 396/473/396 394/471/394
f 410/489/410 411/490/411 412/491/412
f 413/492/413 414/493/414 411/490/411
f 411/490/411 415/494/415 416/495/416
f 411/490/411 417/496/417 412/491/412
f 418/497/418 419/498/419 420/499/420
f 421/500/421 422/501/422 418/497/418
f 423/502/423 414/493/414 422/501/422
f 422/501/422 424/503/424 419/498/419
f 425/504/425 426/505/426 427/506/427
f 428/507/428 416/495/416 426/505/426
f 426/505/426 415/494/415 423/502/423
f 427/506/427 423/502/423 421/500/421
f 93/508/93 429/509/429 91/510/91
f 430/511/430 431/512/431 429/509/429
f 429/509/429 410/489/410 432/513/432
f 91/510/91 432/513/432 94/514/94
f 433/515/433 434/516/434 431/512/431
f 435/517/435 436/518/436 434/516/434
f 434/516/434 424/503/424 413/492/413
f 431/512/431 413/492/413 410/489/410
f 432/513/432 99/519/99 94/514/94
f 410/489/410 437/520/437 432/513/432
f 412/491/412 438/521/438 437/520/437
f 437/520/437 113/522/113 99/519/99
f 400/523/400 439/524/439 398/525/398
f 404/526/404 440/527/440 400/523/400
f 441/528/441 442/529/442 440/527/440
f 440/527/440 443/530/443 439/524/439
f 409/531/409 441/528/441 404/526/404
f 394/532/394 444/533/444 409/531/409
f 445/534/445 418/497/418 444/533/444
f 444/533/444 420/499/420 441/528/441
f 442/529/442 446/535/446 443/530/443
f 420/499/420 447/536/447 442/529/442
f 419/498/419 436/518/436 447/536/447
f 447/536/447 448/537/448 446/535/446
f 38/538/38 449/539/449 388/540/388
f 105/541/105 450/542/450 449/539/449
f 449/539/449 425/504/425 451/543/451
f 388/540/388 451/543/451 389/544/389
f 109/545/109 452/546/452 450/542/450
f 111/547/111 438/521/438 452/546/452
f 452/546/452 417/496/417 428/507/428
f 450/542/450 428/507/428 425/504/425
f 389/544/389 453/548/453 393/549/393
f 451/543/451 427/506/427 453/548/453
f 453/548/453 421/500/421 445/534/445
f 393/549/393 445/534/445 394/532/394
f 454/550/454 455/551/455 456/552/456
f 457/553/457 458/554/458 454/550/454
f 459/555/459 460/556/460 458/554/458
f 458/554/458 461/557/461 455/551/455
f 462/558/462 463/559/463 464/560/464
f 465/561/465 466/562/466 463/559/463
f 463/559/463 467/563/467 459/555/459
f 464/560/464 459/555/459 457/553/457
f 468/564/468 469/565/469 470/566/470
f 471/567/471 460/556/460 469/565/469
f 469/565/469 467/563/467 466/562/466
f 469/565/469 472/568/472 470/566/470
f 159/569/159 430/570/430 93/571/93
f 162/572/162 473/573/473 159/569/159
f 474/574/474 475/575/475 473/573/473
f 473/573/473 433/576/433 430/570/430
f 165/577/165 474/574/474 162/572/162
f 152/578/152 476/579/476 165/577/165
f 477/580/477 454/550/454 476/579/476
f 476/579/476 456/552/456 474/574/474
f 475/575/475 435/581/435 433/576/433
f 456/552/456 478/582/478 475/575/475
f 455/551/455 479/583/479 478/582/478
f 478/582/478 448/584/448 435/581/435
f 145/585/145 480/586/480 143/587/143
f 481/588/481 482/589/482 480/586/480
f 480/586/480 462/558/462 483/590/483
f 143/587/143 483/590/483 146/591/146
f 484/592/484 485/593/485 482/589/482
f 486/594/486 487/595/487 485/593/485
f 485/593/485 472/568/472 465/561/465
f 482/589/482 465/561/465 462/558/462
f 146/591/146 488/596/488 151/597/151
f 483/590/483 464/560/464 488/596/488
f 488/596/488 457/553/457 477/580/477
f 151/597/151 477/580/477 152/578/152
f 398/598/398 489/599/489 490/600/490
f 439/601/439 491/602/491 489/599/489
f 489/599/489 468/564/468 492/603/492
f 490/600/490 492/603/492 493/604/493
f 443/605/443 494/606/494 491/602/491
f 446/607/446 479/583/479 494/606/494
f 494/606/494 461/557/461 471/567/471
f 491/602/491 471/567/471 468/564/468
f 493/604/493 495/608/495 496/609/496
f 492/603/492 470/566/470 495/608/495
f 470/566/470 487/595/487 495/608/495
f 495/608/495 497/610/497 496/609/496
f 498/611/498 499/612/499 500/613/500
f 501/614/501 502/615/502 498/611/498
f 502/615/502 503/616/503 504/617/504
f 502/615/502 505/618/505 499/612/499
f 506/619/506 507/620/507 508/621/508
f 509/622/509 510/623/510 507/620/507
f 507/620/507 503/616/503 511/624/511
f 508/621/508 511/624/511 501/614/501
f 512/625/512 513/626/513 514/627/514
f 515/628/515 504/617/504 513/626/513
f 513/626/513 503/616/503 510/623/510
f 514/627/514 510/623/510 516/629/516
f 517/630/517 255/631/255 252/632/252
f 518/633/518 519/634/519 517/630/517
f 520/635/520 521/636/521 519/634/519
f 519/634/519 259/637/259 255/631/255
f 522/638/522 520/635/520 518/633/518
f 523/639/523 524/640/524 522/638/522
f 525/641/525 498/611/498 524/640/524
f 524/640/524 500/613/500 520/635/520
f 521/636/521 261/642/261 259/637/259
f 500/613/500 526/643/526 521/636/521
f 499/612/499 527/644/527 526/643/526
f 526/643/526 276/645/276 261/642/261
f 145/646/145 528/647/528 529/648/529
f 210/649/210 530/650/530 528/647/528
f 528/647/528 506/619/506 531/651/531
f 529/648/529 531/651/531 532/652/532
f 213/653/213 533/654/533 530/650/530
f 217/655/217 533/654/533 215/656/215
f 533/654/533 516/629/516 509/622/509
f 530/650/530 509/622/509 506/619/506
f 532/652/532 534/657/534 535/658/535
f 531/651/531 508/621/508 534/657/534
f 534/657/534 501/614/501 525/641/525
f 535/658/535 525/641/525 523/639/523
f 266/659/266 199/660/199 196/661/196
f 270/662/270 536/663/536 266/659/266
f 536/663/536 512/625/512 537/664/537
f 536/663/536 203/665/203 199/660/199
f 275/666/275 538/667/538 270/662/270
f 275/666/275 527/644/527 539/668/539
f 539/668/539 505/618/505 515/628/515
f 538/667/538 515/628/515 512/625/512
f 537/664/537 205/669/205 203/665/203
f 512/625/512 540/670/540 537/664/537
f 540/670/540 516/629/516 541/671/541
f 540/670/540 217/655/217 205/669/205
f 542/672/542 543/673/543 544/674/544
f 545/675/545 546/676/546 543/673/543
f 543/673/543 547/677/547 548/678/548
f 544/674/544 548/678/548 549/679/549
f 550/680/550 551/681/551 552/682/552
f 553/683/553 554/684/554 551/681/551
f 551/681/551 547/677/547 546/676/546
f 552/682/552 546/676/546 555/685/555
f 556/686/556 557/687/557 558/688/558
f 549/679/549 559/689/559 556/686/556
f 559/689/559 547/677/547 554/684/554
f 559/689/559 560/690/560 557/687/557
f 252/691/252 561/692/561 517/693/517
f 381/694/381 561/692/561 378/695/378
f 561/692/561 542/672/542 562/696/562
f 517/693/517 562/696/562 518/697/518
f 381/694/381 563/698/563 564/699/564
f 385/700/385 565/701/565 563/698/563
f 563/698/563 555/685/555 545/675/545
f 564/699/564 545/675/545 542/672/542
f 518/697/518 566/702/566 522/703/522
f 562/696/562 544/674/544 566/702/566
f 566/702/566 549/679/549 567/704/567
f 522/703/522 567/704/567 523/705/523
f 490/706/490 401/707/401 398/708/398
f 493/709/493 568/710/568 490/706/490
f 568/710/568 550/680/550 569/711/569
f 568/710/568 405/712/405 401/707/401
f 493/709/493 570/713/570 571/714/571
f 496/715/496 572/716/572 570/713/570
f 570/713/570 560/690/560 553/683/553
f 571/714/571 553/683/553 550/680/550
f 405/712/405 573/717/573 407/718/407
f 569/711/569 552/682/552 573/717/573
f 552/682/552 565/701/565 573/717/573
f 573/717/573 387/719/387 407/718/407
f 529/720/529 481/721/481 145/722/145
f 532/723/532 574/724/574 529/720/529
f 575/725/575 576/726/576 574/724/574
f 574/724/574 484/727/484 481/721/481
f 535/728/535 575/725/575 532/723/532
f 523/705/523 577/729/577 535/728/535
f 567/704/567 556/686/556 577/729/577
f 577/729/577 558/688/558 575/725/575
f 576/726/576 486/730/486 484/727/484
f 558/688/558 578/731/578 576/726/576
f 557/687/557 572/716/572 578/731/578
f 578/731/578 497/732/497 486/730/486
f 1/1/1 5/5/5 2/2/2
f 4/4/4 14/14/14 5/5/5
f 5/5/5 14/14/14 6/6/6
f 5/5/5 7/7/7 8/8/8
f 9/9/9 12/12/12 10/10/10
f 12/12/12 19/19/19 13/13/13
f 10/10/10 13/13/13 6/6/6
f 11/11/11 10/10/10 14/14/14
f 15/15/15 18/18/18 16/16/16
f 18/18/18 8/8/8 7/7/7
f 16/16/16 7/7/7 6/6/6
f 17/17/17 16/16/16 13/13/13
f 20/20/20 24/24/24 21/21/21
f 23/23/23 25/25/25 24/24/24
f 25/25/25 3/3/3 26/26/26
f 24/24/24 26/26/26 27/27/27
f 28/28/28 30/30/30 25/25/25
f 29/29/29 31/31/31 30/30/30
f 31/31/31 4/4/4 1/1/1
f 30/30/30 1/1/1 3/3/3
f 26/26/26 33/33/33 32/32/32
f 3/3/3 2/2/2 33/33/33
f 2/2/2 8/8/8 34/34/34
f 33/33/33 34/34/34 35/35/35
f 36/36/36 40/40/40 37/37/37
f 36/36/36 43/43/43 39/39/39
f 40/40/40 39/39/39 9/9/9
f 37/37/37 40/40/40 41/41/41
f 43/43/43 45/45/45 44/44/44
f 45/45/45 61/61/61 46/46/46
f 44/44/44 46/46/46 19/19/19
f 39/39/39 44/44/44 12/12/12
f 42/42/42 41/41/41 47/47/47
f 41/41/41 9/9/9 11/11/11
f 47/47/47 11/11/11 4/4/4
f 48/48/48 47/47/47 31/31/31
f 49/49/49 53/53/53 50/50/50
f 52/52/52 54/54/54 53/53/53
f 54/54/54 15/15/15 55/55/55
f 53/53/53 55/55/55 56/56/56
f 52/52/52 58/58/58 57/57/57
f 58/58/58 35/35/35 34/34/34
f 57/57/57 34/34/34 8/8/8
f 54/54/54 57/57/57 18/18/18
f 55/55/55 60/60/60 59/59/59
f 55/55/55 15/15/15 17/17/17
f 17/17/17 19/19/19 46/46/46
f 60/60/60 46/46/46 61/61/61
f 62/62/62 65/65/65 63/63/63
f 65/65/65 75/75/75 66/66/66
f 63/63/63 66/66/66 67/67/67
f 64/64/64 63/63/63 68/68/68
f 70/70/70 74/74/74 71/71/71
f 73/73/73 80/80/80 74/74/74
f 74/74/74 80/80/80 67/67/67
f 74/74/74 66/66/66 75/75/75
f 76/76/76 79/79/79 77/77/77
f 69/69/69 68/68/68 79/79/79
f 68/68/68 67/67/67 80/80/80
f 79/79/79 80/80/80 73/73/73
f 22/81/22 82/84/82 81/82/81
f 82/84/82 85/88/85 83/85/83
f 81/82/81 83/85/83 62/62/62
f 20/83/20 81/82/81 84/86/84
f 85/88/85 87/90/87 86/89/86
f 87/90/87 104/109/104 88/91/88
f 86/89/86 88/91/88 75/75/75
f 83/85/83 86/89/86 65/65/65
f 23/87/23 84/86/84 89/92/89
f 84/86/84 62/62/62 64/64/64
f 89/92/89 64/64/64 69/69/69
f 28/93/28 89/92/89 90/94/90
f 91/96/91 95/100/95 92/97/92
f 94/99/94 96/101/96 95/100/95
f 96/101/96 72/72/72 97/102/97
f 95/100/95 97/102/97 98/103/98
f 99/104/99 101/106/101 96/101/96
f 99/104/99 113/122/113 100/105/100
f 101/106/101 100/105/100 73/73/73
f 101/106/101 70/70/70 72/72/72
f 97/102/97 103/108/103 102/107/102
f 72/72/72 71/71/71 103/108/103
f 71/71/71 75/75/75 88/91/88
f 103/108/103 88/91/88 104/109/104
f 37/110/37 106/114/106 105/111/105
f 42/113/42 107/115/107 106/114/106
f 107/115/107 78/78/78 108/116/108
f 106/114/106 108/116/108 109/117/109
f 48/118/48 110/119/110 107/115/107
f 29/95/29 90/94/90 110/119/110
f 90/94/90 69/69/69 76/76/76
f 110/119/110 76/76/76 78/78/78
f 108/116/108 112/121/112 111/120/111
f 78/78/78 77/77/77 112/121/112
f 77/77/77 73/73/73 100/105/100
f 112/121/112 100/105/100 113/122/113
f 114/123/114 117/126/117 115/124/115
f 117/126/117 128/137/128 118/127/118
f 115/124/115 118/127/118 119/128/119
f 116/125/116 115/124/115 120/129/120
f 122/131/122 126/135/126 123/132/123
f 125/134/125 127/136/127 126/135/126
f 127/136/127 119/128/119 118/127/118
f 126/135/126 118/127/118 128/137/128
f 129/138/129 132/141/132 130/139/130
f 132/141/132 121/130/121 120/129/120
f 130/139/130 120/129/120 119/128/119
f 131/140/131 130/139/130 127/136/127
f 22/142/22 134/145/134 133/143/133
f 134/145/134 137/149/137 135/146/135
f 133/143/133 135/146/135 114/123/114
f 82/144/82 133/143/133 136/147/136
f 137/149/137 139/151/139 138/150/138
f 139/151/139 157/171/157 140/152/140
f 138/150/138 140/152/140 128/137/128
f 135/146/135 138/150/138 117/126/117
f 85/148/85 136/147/136 141/153/141
f 136/147/136 114/123/114 116/125/116
f 141/153/141 116/125/116 121/130/121
f 141/153/141 142/155/142 104/156/104
f 143/157/143 147/161/147 144/158/144
f 146/160/146 148/162/148 147/161/147
f 148/162/148 124/133/124 149/163/149
f 147/161/147 149/163/149 150/164/150
f 151/165/151 153/167/153 148/162/148
f 152/166/152 154/168/154 153/167/153
f 154/168/154 125/134/125 122/131/122
f 153/167/153 122/131/122 124/133/124
f 149/163/149 156/170/156 155/169/155
f 124/133/124 123/132/123 156/170/156
f 123/132/123 128/137/128 140/152/140
f 156/170/156 140/152/140 157/171/157
f 93/172/93 92/175/92 158/173/158
f 92/175/92 98/179/98 160/176/160
f 158/173/158 160/176/160 129/138/129
f 159/174/159 158/173/158 161/177/161
f 98/179/98 102/181/102 163/180/163
f 102/181/102 104/156/104 142/155/142
f 163/180/163 142/155/142 121/130/121
f 160/176/160 163/180/163 132/141/132
f 162/178/162 161/177/161 164/182/164
f 161/177/161 129/138/129 131/140/131
f 164/182/164 131/140/131 125/134/125
f 165/183/165 164/182/164 154/168/154
f 166/184/166 170/188/170 167/185/167
f 169/187/169 171/189/171 170/188/170
f 171/189/171 179/197/179 172/190/172
f 170/188/170 172/190/172 173/191/173
f 174/192/174 177/195/177 175/193/175
f 177/195/177 184/202/184 178/196/178
f 175/193/175 178/196/178 179/197/179
f 176/194/176 175/193/175 171/189/171
f 180/198/180 183/201/183 181/199/181
f 183/201/183 173/191/173 172/190/172
f 181/199/181 172/190/172 179/197/179
f 182/200/182 181/199/181 178/196/178
f 185/203/185 187/207/187 134/204/134
f 186/206/186 188/208/188 187/207/187
f 188/208/188 168/186/168 189/209/189
f 187/207/187 189/209/189 137/210/137
f 190/211/190 192/213/192 188/208/188
f 191/212/191 193/214/193 192/213/192
f 193/214/193 169/187/169 166/184/166
f 192/213/192 166/184/166 168/186/168
f 189/209/189 194/216/194 139/215/139
f 168/186/168 167/185/167 194/216/194
f 167/185/167 173/191/173 195/217/195
f 194/216/194 195/217/195 157/218/157
f 196/219/196 199/222/199 197/220/197
f 199/222/199 203/226/203 200/223/200
f 197/220/197 200/223/200 174/192/174
f 198/221/198 197/220/197 201/224/201
f 203/226/203 205/228/205 204/227/204
f 205/228/205 217/244/217 206/229/206
f 204/227/204 206/229/206 184/202/184
f 200/223/200 204/227/204 177/195/177
f 202/225/202 201/224/201 207/230/207
f 201/224/201 174/192/174 176/194/176
f 207/230/207 176/194/176 169/187/169
f 208/231/208 207/230/207 193/214/193
f 145/232/145 144/235/144 209/233/209
f 144/235/144 150/239/150 211/236/211
f 209/233/209 211/236/211 180/198/180
f 210/234/210 209/233/209 212/237/212
f 150/239/150 155/241/155 214/240/214
f 155/241/155 157/218/157 195/217/195
f 214/240/214 195/217/195 173/191/173
f 211/236/211 214/240/214 183/201/183
f 212/237/212 216/243/216 215/242/215
f 212/237/212 180/198/180 182/200/182
f 216/243/216 182/200/182 184/202/184
f 215/242/215 216/243/216 206/229/206
f 218/245/218 222/249/222 219/246/219
f 221/248/221 223/250/223 222/249/222
f 223/250/223 231/258/231 224/251/224
f 222/249/222 224/251/224 225/252/225
f 226/253/226 229/256/229 227/254/227
f 229/256/229 236/263/236 230/257/230
f 227/254/227 230/257/230 231/258/231
f 228/255/228 227/254/227 223/250/223
f 232/259/232 235/262/235 233/260/233
f 235/262/235 225/252/225 224/251/224
f 233/260/233 224/251/224 231/258/231
f 233/260/233 230/257/230 236/263/236
f 237/264/237 240/268/240 238/265/238
f 239/267/239 241/269/241 240/268/240
f 241/269/241 220/247/220 242/270/242
f 240/268/240 242/270/242 243/271/243
f 244/272/244 246/274/246 241/269/241
f 245/273/245 247/275/247 246/274/246
f 247/275/247 221/248/221 218/245/218
f 246/274/246 218/245/218 220/247/220
f 242/270/242 249/277/249 248/276/248
f 220/247/220 219/246/219 249/277/249
f 219/246/219 225/252/225 250/278/250
f 249/277/249 250/278/250 251/279/251
f 252/280/252 255/283/255 253/281/253
f 255/283/255 259/287/259 256/284/256
f 253/281/253 256/284/256 226/253/226
f 254/282/254 253/281/253 257/285/257
f 259/287/259 261/289/261 260/288/260
f 261/289/261 276/305/276 262/290/262
f 260/288/260 262/290/262 236/263/236
f 256/284/256 260/288/260 229/256/229
f 258/286/258 257/285/257 263/291/263
f 257/285/257 226/253/226 228/255/228
f 263/291/263 228/255/228 221/248/221
f 264/292/264 263/291/263 247/275/247
f 196/293/196 267/296/267 265/294/265
f 267/296/267 271/300/271 268/297/268
f 265/294/265 268/297/268 232/259/232
f 266/295/266 265/294/265 269/298/269
f 271/300/271 273/302/273 272/301/272
f 273/302/273 251/279/251 250/278/250
f 272/301/272 250/278/250 225/252/225
f 268/297/268 272/301/272 235/262/235
f 270/299/270 269/298/269 274/303/274
f 269/298/269 232/259/232 234/261/234
f 234/261/234 236/263/236 262/290/262
f 274/303/274 262/290/262 276/305/276
f 277/306/277 280/309/280 278/307/278
f 280/309/280 290/319/290 281/310/281
f 278/307/278 281/310/281 282/311/282
f 279/308/279 278/307/278 283/312/283
f 285/314/285 288/317/288 286/315/286
f 288/317/288 295/324/295 289/318/289
f 286/315/286 289/318/289 282/311/282
f 286/315/286 281/310/281 290/319/290
f 291/320/291 294/323/294 292/321/292
f 284/313/284 283/312/283 294/323/294
f 283/312/283 282/311/282 289/318/289
f 294/323/294 289/318/289 295/324/295
f 22/325/22 21/328/21 296/326/296
f 21/328/21 27/332/27 297/329/297
f 296/326/296 297/329/297 277/306/277
f 185/327/185 296/326/296 298/330/298
f 27/332/27 32/334/32 299/333/299
f 32/334/32 35/353/35 300/335/300
f 299/333/299 300/335/300 290/319/290
f 297/329/297 299/333/299 280/309/280
f 186/331/186 298/330/298 301/336/301
f 298/330/298 277/306/277 279/308/279
f 301/336/301 279/308/279 284/313/284
f 190/337/190 301/336/301 302/338/302
f 51/340/51 238/343/238 303/341/303
f 238/343/238 243/347/243 304/344/304
f 303/341/303 304/344/304 285/314/285
f 49/342/49 303/341/303 305/345/305
f 243/347/243 248/349/248 306/348/306
f 248/349/248 251/366/251 307/350/307
f 306/348/306 307/350/307 295/324/295
f 304/344/304 306/348/306 288/317/288
f 305/345/305 308/352/308 58/351/58
f 285/314/285 287/316/287 308/352/308
f 287/316/287 290/319/290 300/335/300
f 308/352/308 300/335/300 35/353/35
f 198/354/198 309/358/309 267/355/267
f 202/357/202 310/359/310 309/358/309
f 310/359/310 293/322/293 311/360/311
f 309/358/309 311/360/311 271/361/271
f 208/362/208 312/363/312 310/359/310
f 191/339/191 302/338/302 312/363/312
f 302/338/302 284/313/284 291/320/291
f 312/363/312 291/320/291 293/322/293
f 311/360/311 313/365/313 273/364/273
f 293/322/293 292/321/292 313/365/313
f 292/321/292 295/324/295 307/350/307
f 313/365/313 307/350/307 251/366/251
f 314/367/314 318/371/318 315/368/315
f 317/370/317 319/372/319 318/371/318
f 319/372/319 327/380/327 320/373/320
f 318/371/318 320/373/320 321/374/321
f 322/375/322 325/378/325 323/376/323
f 325/378/325 332/385/332 326/379/326
f 323/376/323 326/379/326 327/380/327
f 324/377/324 323/376/323 319/372/319
f 328/381/328 331/384/331 329/382/329
f 331/384/331 321/374/321 320/373/320
f 329/382/329 320/373/320 327/380/327
f 330/383/330 329/382/329 326/379/326
f 254/386/254 334/390/334 333/387/333
f 258/389/258 335/391/335 334/390/334
f 335/391/335 316/369/316 336/392/336
f 334/390/334 336/392/336 337/393/337
f 264/394/264 338/396/338 335/391/335
f 245/395/245 339/397/339 338/396/338
f 339/397/339 317/370/317 314/367/314
f 338/396/338 314/367/314 316/369/316
f 336/392/336 341/399/341 340/398/340
f 316/369/316 315/368/315 341/399/341
f 315/368/315 321/374/321 342/400/342
f 341/399/341 342/400/342 343/401/343
f 51/402/51 50/405/50 344/403/344
f 50/405/50 56/409/56 345/406/345
f 344/403/344 345/406/345 322/375/322
f 237/404/237 344/403/344 346/407/346
f 56/409/56 59/411/59 347/410/347
f 59/411/59 61/427/61 348/412/348
f 347/410/347 348/412/348 332/385/332
f 345/406/345 347/410/347 325/378/325
f 239/408/239 346/407/346 349/413/349
f 346/407/346 322/375/322 324/377/324
f 349/413/349 324/377/324 317/370/317
f 244/414/244 349/413/349 339/397/339
f 38/415/38 351/418/351 350/416/350
f 351/418/351 354/422/354 352/419/352
f 350/416/350 352/419/352 328/381/328
f 350/416/350 353/420/353 43/421/43
f 354/422/354 356/424/356 355/423/355
f 356/424/356 343/401/343 342/400/342
f 355/423/355 342/400/342 321/374/321
f 352/419/352 355/423/355 331/384/331
f 43/421/43 353/420/353 357/425/357
f 353/420/353 328/381/328 330/383/330
f 357/425/357 330/383/330 332/385/332
f 357/425/357 348/412/348 61/427/61
f 358/428/358 361/431/361 359/429/359
f 361/431/361 372/442/372 362/432/362
f 359/429/359 362/432/362 363/433/363
f 360/430/360 359/429/359 364/434/364
f 366/436/366 370/440/370 367/437/367
f 369/439/369 371/441/371 370/440/370
f 371/441/371 363/433/363 362/432/362
f 370/440/370 362/432/362 372/442/372
f 373/443/373 376/446/376 374/444/374
f 376/446/376 365/435/365 364/434/364
f 374/444/374 364/434/364 363/433/363
f 375/445/375 374/444/374 371/441/371
f 252/447/252 333/450/333 377/448/377
f 333/450/333 337/454/337 379/451/379
f 377/448/377 379/451/379 358/428/358
f 378/449/378 377/448/377 380/452/380
f 337/454/337 340/456/340 382/455/382
f 340/456/340 343/476/343 383/457/383
f 382/455/382 383/457/383 372/442/372
f 379/451/379 382/455/382 361/431/361
f 381/453/381 380/452/380 384/458/384
f 380/452/380 358/428/358 360/430/360
f 360/430/360 365/435/365 386/460/386
f 384/458/384 386/460/386 387/461/387
f 388/462/388 390/466/390 351/463/351
f 389/465/389 391/467/391 390/466/390
f 391/467/391 368/438/368 392/468/392
f 390/466/390 392/468/392 354/469/354
f 393/470/393 395/472/395 391/467/391
f 394/471/394 396/473/396 395/472/395
f 396/473/396 369/439/369 366/436/366
f 395/472/395 366/436/366 368/438/368
f 392/468/392 397/475/397 356/474/356
f 368/438/368 367/437/367 397/475/397
f 367/437/367 372/442/372 383/457/383
f 397/475/397 383/457/383 343/476/343
f 398/477/398 401/480/401 399/478/399
f 401/480/401 405/484/405 402/481/402
f 399/478/399 402/481/402 373/443/373
f 400/479/400 399/478/399 403/482/403
f 405/484/405 407/486/407 406/485/406
f 407/486/407 387/461/387 386/460/386
f 406/485/406 386/460/386 365/435/365
f 402/481/402 406/485/406 376/446/376
f 404/483/404 403/482/403 408/487/408
f 403/482/403 373/443/373 375/445/375
f 408/487/408 375/445/375 369/439/369
f 409/488/409 408/487/408 396/473/396
f 410/489/410 413/492/413 411/490/411
f 413/492/413 424/503/424 414/493/414
f 411/490/411 414/493/414 415/494/415
f 411/490/411 416/495/416 417/496/417
f 418/497/418 422/501/422 419/498/419
f 421/500/421 423/502/423 422/501/422
f 423/502/423 415/494/415 414/493/414
f 422/501/422 414/493/414 424/503/424
f 425/504/425 428/507/428 426/505/426
f 428/507/428 417/496/417 416/495/416
f 426/505/426 416/495/416 415/494/415
f 427/506/427 426/505/426 423/502/423
f 93/508/93 430/511/430 429/509/429
f 430/511/430 433/515/433 431/512/431
f 429/509/429 431/512/431 410/489/410
f 91/510/91 429/509/429 432/513/432
f 433/515/433 435/517/435 434/516/434
f 435/517/435 448/537/448 436/518/436
f 434/516/434 436/518/436 424/503/424
f 431/512/431 434/516/434 413/492/413
f 432/513/432 437/520/437 99/519/99
f 410/489/410 412/491/412 437/520/437
f 412/491/412 417/496/417 438/521/438
f 437/520/437 438/521/438 113/522/113
f 400/523/400 440/527/440 439/524/439
f 404/526/404 441/528/441 440/527/440
f 441/528/441 420/499/420 442/529/442
f 440/527/440 442/529/442 443/530/443
f 409/531/409 444/533/444 441/528/441
f 394/532/394 445/534/445 444/533/444
f 445/534/445 421/500/421 418/497/418
f 444/533/444 418/497/418 420/499/420
f 442/529/442 447/536/447 446/535/446
f 420/499/420 419/498/419 447/536/447
f 419/498/419 424/503/424 436/518/436
f 447/536/447 436/518/436 448/537/448
f 38/538/38 105/541/105 449/539/449
f 105/541/105 109/545/109 450/542/450
f 449/539/449 450/542/450 425/504/425
f 388/540/388 449/539/449 451/543/451
f 109/545/109 111/547/111 452/546/452
f 111/547/111 113/522/113 438/521/438
f 452/546/452 438/521/438 417/496/417
f 450/542/450 452/546/452 428/507/428
f 389/544/389 451/543/451 453/548/453
f 451/543/451 425/504/425 427/506/427
f 453/548/453 427/506/427 421/500/421
f 393/549/393 453/548/453 445/534/445
f 454/550/454 458/554/458 455/551/455
f 457/553/457 459/555/459 458/554/458
f 459/555/459 467/563/467 460/556/460
f 458/554/458 460/556/460 461/557/461
f 462/558/462 465/561/465 463/559/463
f 465/561/465 472/568/472 466/562/466
f 463/559/463 466/562/466 467/563/467
f 464/560/464 463/559/463 459/555/459
f 468/564/468 471/567/471 469/565/469
f 471/567/471 461/557/461 460/556/460
f 469/565/469 460/556/460 467/563/467
f 469/565/469 466/562/466 472/568/472
f 159/569/159 473/573/473 430/570/430
f 162/572/162 474/574/474 473/573/473
f 474/574/474 456/552/456 475/575/475
f 473/573/473 475/575/475 433/576/433
f 165/577/165 476/579/476 474/574/474
f 152/578/152 477/580/477 476/579/476
f 477/580/477 457/553/457 454/550/454
f 476/579/476 454/550/454 456/552/456
f 475/575/475 478/582/478 435/581/435
f 456/552/456 455/551/455 478/582/478
f 455/551/455 461/557/461 479/583/479
f 478/582/478 479/583/479 448/584/448
f 145/585/145 481/588/481 480/586/480
f 481/588/481 484/592/484 482/589/482
f 480/586/480 482/589/482 462/558/462
f 143/587/143 480/586/480 483/590/483
f 484/592/484 486/594/486 485/593/485
f 486/594/486 497/610/497 487/595/487
f 485/593/485 487/595/487 472/568/472
f 482/589/482 485/593/485 465/561/465
f 146/591/146 483/590/483 488/596/488
f 483/590/483 462/558/462 464/560/464
f 488/596/488 464/560/464 457/553/457
f 151/597/151 488/596/488 477/580/477
f 398/598/398 439/601/439 489/599/489
f 439/601/439 443/605/443 491/602/491
f 489/599/489 491/602/491 468/564/468
f 490/600/490 489/599/489 492/603/492
f 443/605/443 446/607/446 494/606/494
f 446/607/446 448/584/448 479/583/479
f 494/606/494 479/583/479 461/557/461
f 491/602/491 494/606/494 471/567/471
f 493/604/493 492/603/492 495/608/495
f 492/603/492 468/564/468 470/566/470
f 470/566/470 472/568/472 487/595/487
f 495/608/495 487/595/487 497/610/497
f 498/611/498 502/615/502 499/612/499
f 501/614/501 511/624/511 502/615/502
f 502/615/502 511/624/511 503/616/503
f 502/615/502 504/617/504 505/618/505
f 506/619/506 509/622/509 507/620/507
f 509/622/509 516/629/516 510/623/510
f 507/620/507 510/623/510 503/616/503
f 508/621/508 507/620/507 511/624/511
f 512/625/512 515/628/515 513/626/513
f 515/628/515 505/618/505 504/617/504
f 513/626/513 504/617/504 503/616/503
f 514/627/514 513/626/513 510/623/510
f 517/630/517 519/634/519 255/631/255
f 518/633/518 520/635/520 519/634/519
f 520/635/520 500/613/500 521/636/521
f 519/634/519 521/636/521 259/637/259
f 522/638/522 524/640/524 520/635/520
f 523/639/523 525/641/525 524/640/524
f 525/641/525 501/614/501 498/611/498
f 524/640/524 498/611/498 500/613/500
f 521/636/521 526/643/526 261/642/261
f 500/613/500 499/612/499 526/643/526
f 499/612/499 505/618/505 527/644/527
f 526/643/526 527/644/527 276/645/276
f 145/646/145 210/649/210 528/647/528
f 210/649/210 213/653/213 530/650/530
f 528/647/528 530/650/530 506/619/506
f 529/648/529 528/647/528 531/651/531
f 213/653/213 215/656/215 533/654/533
f 217/655/217 541/671/541 533/654/533
f 533/654/533 541/671/541 516/629/516
f 530/650/530 533/654/533 509/622/509
f 532/652/532 531/651/531 534/657/534
f 531/651/531 506/619/506 508/621/508
f 534/657/534 508/621/508 501/614/501
f 535/658/535 534/657/534 525/641/525
f 266/659/266 536/663/536 199/660/199
f 270/662/270 538/667/538 536/663/536
f 536/663/536 538/667/538 512/625/512
f 536/663/536 537/664/537 203/665/203
f 275/666/275 539/668/539 538/667/538
f 275/666/275 276/645/276 527/644/527
f 539/668/539 527/644/527 505/618/505
f 538/667/538 539/668/539 515/628/515
f 537/664/537 540/670/540 205/669/205
f 512/625/512 514/627/514 540/670/540
f 540/670/540 514/627/514 516/629/516
f 540/670/540 541/671/541 217/655/217
f 542/672/542 545/675/545 543/673/543
f 545/675/545 555/685/555 546/676/546
f 543/673/543 546/676/546 547/677/547
f 544/674/544 543/673/543 548/678/548
f 550/680/550 553/683/553 551/681/551
f 553/683/553 560/690/560 554/684/554
f 551/681/551 554/684/554 547/677/547
f 552/682/552 551/681/551 546/676/546
f 556/686/556 559/689/559 557/687/557
f 549/679/549 548/678/548 559/689/559
f 559/689/559 548/678/548 547/677/547
f 559/689/559 554/684/554 560/690/560
f 252/691/252 378/695/378 561/692/561
f 381/694/381 564/699/564 561/692/561
f 561/692/561 564/699/564 542/672/542
f 517/693/517 561/692/561 562/696/562
f 381/694/381 385/700/385 563/698/563
f 385/700/385 387/719/387 565/701/565
f 563/698/563 565/701/565 555/685/555
f 564/699/564 563/698/563 545/675/545
f 518/697/518 562/696/562 566/702/566
f 562/696/562 542/672/542 544/674/544
f 566/702/566 544/674/544 549/679/549
f 522/703/522 566/702/566 567/704/567
f 490/706/490 568/710/568 401/707/401
f 493/709/493 571/714/571 568/710/568
f 568/710/568 571/714/571 550/680/550
f 568/710/568 569/711/569 405/712/405
f 493/709/493 496/715/496 570/713/570
f 496/715/496 497/732/497 572/716/572
f 570/713/570 572/716/572 560/690/560
f 571/714/571 570/713/570 553/683/553
f 405/712/405 569/711/569 573/717/573
f 569/711/569 550/680/550 552/682/552
f 552/682/552 555/685/555 565/701/565
f 573/717/573 565/701/565 387/719/387
f 529/720/529 574/724/574 481/721/481
f 532/723/532 575/725/575 574/724/574
f 575/725/575 558/688/558 576/726/576
f 574/724/574 576/726/576 484/727/484
f 535/728/535 577/729/577 575/725/575
f 523/705/523 567/704/567 577/729/577
f 567/704/567 549/679/549 556/686/556
f 577/729/577 556/686/556 558/688/558
f 576/726/576 578/731/578 486/730/486
f 558/688/558 557/687/557 578/731/578
f 557/687/557 560/690/560 572/716/572
f 578/731/578 572/716/572 497/732/497
