# Blender v2.92.0 OBJ File: ''
# www.blender.org
mtllib AST_3.mtl
o AST_03
v -0.558087 -0.078982 -0.289025
v -0.568655 -0.077505 -0.177519
v -0.564297 -0.001234 -0.266191
v -0.576637 -0.162744 -0.307011
v -0.592880 -0.133751 -0.210508
v -0.597474 -0.203651 -0.226950
v -0.621750 -0.194255 -0.138033
v -0.574121 -0.162147 -0.092593
v -0.559730 -0.360173 -0.286777
v -0.631726 -0.287813 -0.228140
v -0.581165 -0.260621 -0.307479
v -0.576282 -0.371385 -0.184541
v -0.633171 -0.294440 -0.141880
v -0.606342 -0.233799 -0.167091
v -0.609519 -0.245900 -0.013764
v -0.634633 -0.361364 -0.014321
v -0.576972 -0.323804 0.053639
v -0.643159 -0.274121 -0.075621
v -0.611641 -0.375468 -0.097491
v -0.493067 0.248546 -0.429164
v -0.528469 0.240804 -0.274282
v -0.468869 0.393749 -0.363451
v -0.492541 0.137305 -0.454288
v -0.542574 0.159380 -0.328055
v -0.485882 0.065646 -0.338656
v -0.566158 0.068575 -0.233317
v -0.546228 0.131665 -0.184500
v -0.479124 0.031720 -0.462032
v -0.433852 -0.076403 -0.436132
v -0.521268 -0.022911 -0.372425
v -0.524424 -0.120010 -0.384504
v -0.572379 0.033090 -0.097405
v -0.570173 -0.019984 -0.141080
v -0.598787 -0.107846 -0.051992
v -0.602745 -0.059469 -0.005323
v -0.384014 -0.561718 -0.412824
v -0.487937 -0.439184 -0.354462
v -0.420171 -0.400360 -0.445582
v -0.463376 -0.603061 -0.338290
v -0.562797 -0.465171 -0.271789
v -0.494932 -0.325692 -0.363170
v -0.441079 -0.285022 -0.453133
v -0.506048 -0.609198 -0.224424
v -0.596000 -0.471639 -0.161205
v -0.546722 -0.627200 -0.115190
v -0.633156 -0.471827 -0.053867
v -0.548398 -0.225509 -0.403335
v -0.488223 -0.179362 -0.493964
v -0.498107 -0.407677 0.367063
v -0.544448 -0.366525 0.203592
v -0.493227 -0.473228 0.287312
v -0.583897 -0.243730 0.183761
v -0.584783 -0.324009 0.290863
v -0.632421 -0.292150 0.134159
v -0.573114 -0.418401 0.132215
v -0.499018 -0.522243 0.198952
v -0.651204 -0.148158 0.099028
v -0.632590 -0.199256 0.040763
v -0.539074 -0.582850 0.115037
v -0.601960 -0.452479 0.047808
v -0.548265 -0.611233 -0.001152
v 0.269339 -0.091532 -0.519032
v 0.168578 -0.093434 -0.538782
v 0.248476 -0.022997 -0.528333
v 0.277894 -0.166893 -0.497828
v 0.193977 -0.144485 -0.525552
v 0.210864 -0.203386 -0.536328
v 0.124377 -0.210534 -0.522823
v 0.084577 -0.170819 -0.524036
v 0.298830 -0.335950 -0.568242
v 0.204641 -0.283574 -0.532888
v 0.284104 -0.251855 -0.513668
v 0.195507 -0.365583 -0.578390
v 0.139520 -0.284415 -0.596351
v 0.154246 -0.238563 -0.526489
v 0.010174 -0.253310 -0.604222
v 0.011036 -0.375659 -0.597233
v -0.076328 -0.357626 -0.594298
v 0.072738 -0.276226 -0.601817
v 0.097877 -0.383640 -0.556825
v 0.399815 0.183982 -0.476517
v 0.272154 0.192030 -0.550133
v 0.365757 0.273768 -0.503350
v 0.387481 0.101510 -0.429812
v 0.315964 0.119542 -0.532306
v 0.339150 0.045405 -0.510939
v 0.212431 0.050206 -0.504968
v 0.181547 0.102155 -0.562695
v 0.437154 0.020469 -0.456267
v 0.421831 -0.074585 -0.426371
v 0.353477 -0.035060 -0.497835
v 0.353104 -0.122039 -0.468231
v 0.092621 0.010241 -0.563619
v 0.131124 -0.040430 -0.533031
v 0.044503 -0.126142 -0.545935
v -0.005901 -0.078853 -0.546435
v 0.509060 -0.438230 -0.380763
v 0.406696 -0.398354 -0.514082
v 0.472721 -0.342082 -0.408249
v 0.413735 -0.528172 -0.470156
v 0.291248 -0.440692 -0.556251
v 0.372790 -0.306269 -0.480353
v 0.459893 -0.254143 -0.430201
v 0.285577 -0.582758 -0.517000
v 0.176724 -0.464445 -0.590619
v 0.151809 -0.595230 -0.525787
v 0.063452 -0.468123 -0.570851
v 0.365848 -0.210927 -0.482252
v 0.428338 -0.166524 -0.414422
v -0.290204 -0.402208 -0.487344
v -0.298106 -0.590033 -0.471030
v -0.197726 -0.284712 -0.533787
v -0.224754 -0.438814 -0.509602
v -0.138846 -0.328234 -0.549186
v -0.130464 -0.450979 -0.504965
v -0.193211 -0.573188 -0.475838
v -0.102120 -0.181548 -0.592510
v -0.049102 -0.223109 -0.578501
v -0.088208 -0.591377 -0.507693
v -0.049811 -0.469960 -0.573999
v 0.027607 -0.618531 -0.542711
v 0.543113 -0.081929 0.274150
v 0.574236 -0.076950 0.167438
v 0.536383 -0.007115 0.243610
v 0.524032 -0.167199 0.286413
v 0.543488 -0.142655 0.194653
v 0.562562 -0.205896 0.217351
v 0.588348 -0.201735 0.130796
v 0.600565 -0.155756 0.089362
v 0.532948 -0.359693 0.287295
v 0.581002 -0.289675 0.217543
v 0.557580 -0.259941 0.302443
v 0.610396 -0.393244 0.212363
v 0.620372 -0.297763 0.143727
v 0.597099 -0.231818 0.166043
v 0.649660 -0.241295 0.013642
v 0.652453 -0.380192 0.013895
v 0.668473 -0.348395 -0.068003
v 0.642035 -0.277828 0.076436
v 0.630142 -0.395519 0.105490
v 0.427920 0.222195 0.362105
v 0.498174 0.218596 0.232204
v 0.436604 0.353976 0.300816
v 0.436254 0.125261 0.399094
v 0.461401 0.137980 0.279009
v 0.497504 0.062672 0.323285
v 0.501458 0.054423 0.200653
v 0.520332 0.115829 0.155697
v 0.456533 0.030525 0.432832
v 0.477458 -0.067294 0.465941
v 0.494649 -0.027057 0.350060
v 0.503716 -0.119352 0.368992
v 0.532923 0.023368 0.077307
v 0.560529 -0.020513 0.123790
v 0.565453 -0.116946 0.039737
v 0.581828 -0.062544 -0.003633
v 0.306197 -0.460749 0.378153
v 0.442910 -0.421301 0.353360
v 0.357667 -0.351887 0.390393
v 0.377261 -0.502031 0.291630
v 0.510957 -0.461162 0.269358
v 0.488092 -0.331455 0.382286
v 0.406229 -0.265498 0.425715
v 0.438079 -0.544405 0.202914
v 0.575351 -0.493912 0.173237
v 0.504472 -0.596189 0.115664
v 0.614611 -0.500525 0.058717
v 0.529692 -0.224472 0.395788
v 0.464985 -0.174494 0.472195
v 0.613446 -0.347000 -0.310938
v 0.557538 -0.526166 -0.312394
v 0.645536 -0.253645 -0.204854
v 0.606345 -0.406365 -0.222989
v 0.683945 -0.303812 -0.144145
v 0.632809 -0.454653 -0.143578
v 0.587321 -0.596673 -0.224693
v 0.608130 -0.159499 -0.098436
v 0.636603 -0.199184 -0.044885
v 0.538232 -0.582896 -0.104494
v 0.645997 -0.490952 -0.047816
v 0.543881 -0.613557 0.004948
v -0.267231 -0.085500 0.509386
v -0.183759 -0.086081 0.595421
v -0.262505 -0.011478 0.543623
v -0.308799 -0.157485 0.542078
v -0.213912 -0.142821 0.582721
v -0.182495 -0.238625 0.619505
v -0.157606 -0.204357 0.660148
v -0.101771 -0.169575 0.649873
v -0.326983 -0.342503 0.560224
v -0.253454 -0.283909 0.621145
v -0.303332 -0.250792 0.528722
v -0.248170 -0.383085 0.636148
v -0.162054 -0.305400 0.636068
v -0.236057 -0.205954 0.584326
v -0.015867 -0.266508 0.664780
v -0.049021 -0.375549 0.589058
v 0.050836 -0.362972 0.606895
v -0.087395 -0.296069 0.676248
v -0.138543 -0.405657 0.660638
v -0.378486 0.204479 0.470311
v -0.304565 0.214740 0.622910
v -0.378319 0.320655 0.563586
v -0.403088 0.105212 0.445282
v -0.323473 0.130035 0.539639
v -0.295505 0.061970 0.459354
v -0.237763 0.056952 0.574875
v -0.199114 0.130820 0.614962
v -0.383478 0.022731 0.401921
v -0.395456 -0.061434 0.396600
v -0.346851 -0.025733 0.470799
v -0.357652 -0.110605 0.466870
v -0.096741 0.031877 0.630166
v -0.147841 -0.030397 0.615242
v -0.049556 -0.127813 0.653747
v 0.007309 -0.080404 0.699922
v -0.422087 -0.392950 0.490360
v -0.494709 -0.327101 0.410532
v -0.400925 -0.468658 0.421122
v -0.328950 -0.446271 0.546271
v -0.402424 -0.293866 0.493190
v -0.459504 -0.238886 0.414966
v -0.315412 -0.527113 0.471121
v -0.222906 -0.480616 0.581496
v -0.215724 -0.576507 0.508068
v -0.113561 -0.506643 0.615176
v -0.394351 -0.194749 0.497249
v -0.420392 -0.152054 0.403984
v 0.272709 -0.384794 0.467866
v 0.204781 -0.501969 0.422333
v 0.194216 -0.283111 0.528578
v 0.171720 -0.409716 0.482615
v 0.120975 -0.326747 0.564352
v 0.088912 -0.446886 0.531017
v 0.113373 -0.541671 0.467506
v 0.111490 -0.185912 0.611215
v 0.047344 -0.231088 0.637457
v 0.011171 -0.576614 0.505652
v -0.004665 -0.478291 0.572672
v -0.101023 -0.582902 0.513880
v -0.187460 -0.742935 0.009112
v -0.309954 -0.736722 0.015270
v -0.275045 -0.674964 -0.063561
v -0.103529 -0.741593 0.102582
v -0.221046 -0.727166 0.078188
v -0.146237 -0.710311 0.143718
v -0.241895 -0.709859 0.148406
v -0.322402 -0.685924 0.102816
v -0.043756 -0.684167 0.311948
v -0.027591 -0.735365 0.197950
v 0.040579 -0.679645 0.285253
v -0.133100 -0.674649 0.319751
v -0.091246 -0.710996 0.224650
v -0.178668 -0.688550 0.171716
v -0.318538 -0.625446 0.286373
v -0.236850 -0.673099 0.222136
v -0.221806 -0.638756 0.305323
v -0.332002 -0.675463 0.199852
v -0.153739 -0.660923 0.228120
v -0.276233 -0.625099 -0.295778
v -0.188755 -0.625708 -0.191464
v -0.327779 -0.617293 -0.220792
v -0.236714 -0.674526 -0.144170
v -0.366888 -0.685878 -0.151056
v -0.097999 -0.687548 -0.099498
v -0.000436 -0.703901 0.009446
v -0.144342 -0.694041 -0.044240
v -0.052519 -0.741866 0.053662
v -0.404490 -0.731485 -0.048401
v -0.405720 -0.655391 0.052665
v 0.252888 -0.583596 0.297288
v 0.193212 -0.621270 0.364166
v 0.092543 -0.629893 0.385026
v 0.122089 -0.694470 0.260823
v 0.180969 -0.673637 0.206314
v -0.005934 -0.664775 0.417803
v -0.112846 -0.648607 0.415124
v 0.037481 -0.722230 0.152752
v 0.096055 -0.752466 0.109724
v -0.398097 -0.573559 0.244409
v -0.408406 -0.541468 0.344586
v -0.316490 -0.589719 0.381617
v -0.419156 -0.639328 0.161476
v -0.215541 -0.623390 0.403148
v -0.002588 0.632334 0.167031
v 0.007543 0.653702 0.297538
v 0.092667 0.614352 0.259114
v -0.097177 0.587132 0.084619
v -0.066325 0.617386 0.205737
v -0.136659 0.580261 0.132126
v -0.135393 0.596887 0.234016
v -0.090787 0.624909 0.323875
v -0.305717 0.538983 0.029425
v -0.187571 0.550675 0.012944
v -0.279365 0.513641 -0.047149
v -0.324234 0.572651 0.115038
v -0.214444 0.542716 0.078302
v -0.232975 0.569759 0.146537
v -0.308773 0.586203 0.337318
v -0.230317 0.619246 0.228035
v -0.321413 0.574244 0.222946
v -0.197258 0.618222 0.334779
v -0.172397 0.610862 0.161765
v 0.332844 0.495790 0.235189
v 0.342850 0.414791 0.393696
v 0.222181 0.561496 0.164673
v 0.237400 0.488374 0.293319
v 0.154212 0.560943 0.215304
v 0.188951 0.594262 0.347908
v 0.262509 0.485117 0.483613
v 0.101790 0.573709 0.081832
v -0.002337 0.571954 -0.007865
v 0.053247 0.595791 0.129910
v -0.050510 0.573974 0.040105
v 0.167843 0.552478 0.571695
v 0.074292 0.608867 0.392781
v -0.037533 0.647430 0.430191
v 0.031954 0.560068 0.613563
v -0.497301 0.427230 -0.237758
v -0.326955 0.512534 -0.274894
v -0.508104 0.439265 -0.128197
v -0.362345 0.499437 -0.192119
v -0.372886 0.461004 -0.092805
v -0.242943 0.486928 -0.119388
v -0.202500 0.507107 -0.185504
v -0.514501 0.446241 -0.017864
v -0.531893 0.464370 0.094746
v -0.402156 0.507283 -0.002236
v -0.417975 0.526324 0.100507
v -0.105889 0.549248 -0.098196
v -0.148993 0.540305 -0.044121
v -0.382143 0.493292 0.453004
v -0.418545 0.365840 0.418153
v -0.309380 0.417824 0.590102
v -0.258725 0.534906 0.434996
v -0.389642 0.498973 0.326431
v -0.471740 0.408733 0.320696
v -0.201153 0.466991 0.585190
v -0.153165 0.592908 0.436619
v -0.092332 0.512276 0.597238
v -0.409922 0.514359 0.214310
v -0.515273 0.446941 0.212785
v -0.303834 0.228452 -0.577285
v -0.224681 0.152639 -0.606735
v -0.302110 0.120754 -0.557429
v -0.201226 0.250185 -0.607814
v -0.145339 0.162480 -0.657774
v -0.172166 0.095784 -0.633187
v -0.240538 0.065823 -0.630097
v -0.310982 0.024650 -0.573258
v -0.017090 0.107457 -0.585572
v -0.010830 0.230458 -0.640497
v 0.061878 0.195278 -0.607840
v -0.091920 0.015922 -0.606286
v -0.068024 0.137396 -0.644429
v -0.103782 0.255132 -0.642308
v -0.301116 -0.062663 -0.580109
v -0.184305 -0.062747 -0.590188
v -0.279693 -0.144944 -0.586396
v -0.213027 -0.002049 -0.597197
v -0.134013 0.057008 -0.645587
v -0.375015 0.297787 -0.485045
v -0.344382 0.432399 -0.436170
v -0.268462 0.328391 -0.534039
v -0.397261 0.188998 -0.519250
v -0.226811 0.444161 -0.475716
v -0.172958 0.359154 -0.598665
v -0.113563 0.457686 -0.512653
v -0.059328 0.362338 -0.638010
v -0.418330 0.081342 -0.551707
v -0.377921 -0.023773 -0.507900
v 0.295749 0.353482 -0.532936
v 0.211587 0.248651 -0.586671
v 0.127765 0.150290 -0.595402
v 0.139067 0.296714 -0.619883
v 0.198366 0.393831 -0.527106
v -0.050962 -0.029448 -0.568038
v 0.040372 0.060511 -0.578050
v 0.101479 0.437867 -0.542807
v 0.048002 0.333443 -0.628010
v -0.005494 0.482845 -0.563195
v -0.315816 -0.303699 -0.460642
v -0.362835 -0.219719 -0.520142
v -0.240393 -0.217346 -0.548626
v -0.394113 -0.122577 -0.546338
v -0.146206 -0.124405 -0.590839
v 0.509530 0.191081 -0.307327
v 0.559653 0.139206 -0.233253
v 0.516399 0.104663 -0.307545
v 0.553344 0.224035 -0.222435
v 0.540093 0.148409 -0.156054
v 0.576748 0.093472 -0.176110
v 0.581222 0.066271 -0.241663
v 0.502546 0.020139 -0.287760
v 0.554316 0.103975 -0.025473
v 0.514435 0.210166 -0.052526
v 0.516145 0.185964 0.025451
v 0.611043 0.027834 -0.088356
v 0.538990 0.131669 -0.090420
v 0.546690 0.060571 -0.144586
v 0.554093 0.229783 -0.129172
v 0.566784 -0.047773 -0.306403
v 0.600352 -0.052441 -0.184167
v 0.585200 -0.123716 -0.278618
v 0.570378 0.001693 -0.213175
v 0.456378 0.238509 -0.400293
v 0.425654 0.338022 -0.418944
v 0.504361 0.284440 -0.314910
v 0.455277 0.149414 -0.377107
v 0.489799 0.400205 -0.337591
v 0.525722 0.313519 -0.212709
v 0.483450 0.409847 -0.102120
v 0.504728 0.425379 -0.215672
v 0.451232 0.062115 -0.359651
v 0.484301 -0.021320 -0.372645
v 0.427064 0.357775 0.184295
v 0.481271 0.251377 0.151224
v 0.493103 0.150886 0.091221
v 0.471343 0.271096 0.063156
v 0.464352 0.387617 0.096721
v 0.534601 0.065513 0.026640
v 0.567650 -0.020545 -0.051902
v 0.465918 0.393852 -0.002895
v 0.531344 0.306651 -0.012361
v 0.532775 0.316885 -0.110033
v 0.570015 -0.270266 -0.347036
v 0.517964 -0.195634 -0.349013
v 0.616054 -0.192087 -0.247568
v 0.528042 -0.103834 -0.386985
v 0.616636 -0.104374 -0.143008
v 0.319286 0.226277 0.570655
v 0.237385 0.152463 0.608067
v 0.310205 0.121371 0.551478
v 0.218651 0.250265 0.617851
v 0.155496 0.164292 0.637726
v 0.170885 0.100553 0.601130
v 0.220382 0.071093 0.561661
v 0.305632 0.027353 0.547804
v 0.024435 0.117196 0.678367
v 0.032708 0.245394 0.718288
v -0.053682 0.214230 0.674828
v 0.107434 0.023351 0.646773
v 0.091440 0.146942 0.676403
v 0.140917 0.068106 0.612715
v 0.116909 0.258107 0.647436
v 0.303906 -0.056256 0.572137
v 0.190152 -0.059596 0.604289
v 0.280064 -0.138874 0.576075
v 0.216946 0.002944 0.590126
v 0.403612 0.298704 0.470319
v 0.322068 0.345613 0.572968
v 0.388885 0.184451 0.485264
v 0.197791 0.362384 0.626786
v 0.088918 0.372421 0.696741
v 0.395264 0.080659 0.506833
v 0.373592 -0.019870 0.490147
v -0.201734 0.274447 0.626820
v -0.113353 0.180588 0.614029
v -0.117039 0.312738 0.637311
v -0.040124 0.076527 0.687606
v 0.060766 -0.023750 0.661267
v -0.028224 0.348210 0.682827
v 0.312574 -0.296198 0.479845
v 0.355308 -0.211498 0.513308
v 0.246290 -0.216035 0.564388
v 0.383399 -0.116522 0.527664
v 0.155136 -0.121422 0.613899
v -0.513820 0.196452 0.310243
v -0.547600 0.141822 0.228556
v -0.483048 0.109174 0.288242
v -0.553552 0.230188 0.220305
v -0.555862 0.160462 0.140328
v -0.574957 0.097273 0.176013
v -0.525606 0.068363 0.217521
v -0.494408 0.025762 0.293568
v -0.615000 0.115363 0.013617
v -0.593248 0.237231 0.036021
v -0.569747 0.209733 -0.044721
v -0.633772 0.028215 0.099131
v -0.635629 0.147250 0.083663
v -0.582440 0.068720 0.139205
v -0.606254 0.248881 0.131108
v -0.489939 -0.048018 0.266687
v -0.558035 -0.049421 0.171915
v -0.531517 -0.115369 0.257835
v -0.546347 0.006982 0.207986
v -0.501610 0.296190 0.311936
v -0.450282 0.255219 0.400960
v -0.440394 0.159469 0.371487
v -0.558229 0.330423 0.218589
v -0.595432 0.351859 0.109407
v -0.444667 0.063215 0.360876
v -0.413928 -0.018459 0.323971
v -0.547963 0.285724 -0.191377
v -0.561457 0.175492 -0.119967
v -0.558514 0.313032 -0.097369
v -0.613233 0.076793 -0.049733
v -0.603369 -0.014288 0.045321
v -0.612344 0.347347 -0.005554
v -0.538839 -0.254436 0.319068
v -0.512756 -0.172917 0.345347
v -0.595761 -0.171586 0.247498
v -0.468770 -0.094346 0.346981
v -0.611157 -0.098094 0.145305
v 0.017909 -0.656475 -0.297006
v 0.014063 -0.672683 -0.181024
v -0.064460 -0.650215 -0.275187
v 0.105184 -0.659948 -0.307776
v 0.075092 -0.652084 -0.210800
v 0.142985 -0.665461 -0.229432
v 0.138242 -0.682329 -0.138061
v 0.095804 -0.703350 -0.097789
v 0.311665 -0.692192 -0.296790
v 0.222850 -0.687747 -0.224513
v 0.200453 -0.661780 -0.302637
v 0.318749 -0.660142 -0.190414
v 0.232320 -0.680074 -0.139758
v 0.169378 -0.671187 -0.168453
v 0.182384 -0.676876 -0.001335
v 0.308751 -0.695267 -0.005177
v 0.274059 -0.674524 0.070506
v 0.215835 -0.677615 -0.065863
v 0.323783 -0.701871 -0.100201
v -0.209324 -0.588383 -0.331499
v -0.130206 -0.604720 -0.362980
v -0.132310 -0.633148 -0.240844
v -0.037453 -0.633743 -0.385104
v 0.066130 -0.655124 -0.396813
v -0.041413 -0.658950 -0.136893
v 0.046798 -0.677429 -0.037288
v 0.419991 -0.590215 -0.353185
v 0.421945 -0.621004 -0.255553
v 0.294430 -0.634859 -0.382496
v 0.438516 -0.681389 -0.162017
v 0.437076 -0.702250 -0.050107
v 0.168620 -0.587890 -0.381299
v 0.316470 -0.614401 0.237811
v 0.237698 -0.699417 0.152389
v 0.380793 -0.685032 0.173963
v 0.141245 -0.711291 0.053258
v 0.405942 -0.676674 0.054941
v 0.308263 0.534745 -0.043699
v 0.185645 0.571239 -0.025871
v 0.280019 0.524021 0.033131
v 0.336834 0.569412 -0.131072
v 0.223006 0.585778 -0.084486
v 0.173779 0.603794 -0.186033
v 0.135446 0.593029 -0.147530
v 0.091019 0.607787 -0.100163
v 0.302270 0.527766 -0.348626
v 0.213237 0.531047 -0.238826
v 0.307231 0.513736 -0.229525
v 0.203532 0.560133 -0.352275
v 0.141009 0.586665 -0.251118
v 0.240187 0.584098 -0.162794
v -0.001415 0.597304 -0.187920
v 0.004294 0.585212 -0.320628
v -0.076729 0.557752 -0.282364
v 0.065487 0.618224 -0.228945
v 0.097143 0.569155 -0.340299
v 0.358341 0.473807 0.163846
v 0.369929 0.462569 0.075367
v 0.258722 0.545653 0.106558
v 0.394542 0.478214 -0.013599
v 0.405922 0.486253 -0.112501
v 0.143210 0.557060 0.028184
v 0.046031 0.572369 -0.056123
v 0.332329 0.401121 -0.413029
v 0.260746 0.478590 -0.441080
v 0.371253 0.444577 -0.318580
v 0.151929 0.500356 -0.434925
v 0.053267 0.567962 -0.451530
v 0.425486 0.514513 -0.226377
v -0.249267 0.515807 -0.332380
v -0.152374 0.551995 -0.237434
v -0.152777 0.522411 -0.376705
v -0.051659 0.553347 -0.146278
v -0.054529 0.539537 -0.414523
vt 0.051883 0.117069
vt 0.032876 0.136076
vt 0.035240 0.105155
vt 0.067650 0.130948
vt 0.047687 0.142497
vt 0.060711 0.151765
vt 0.045809 0.166667
vt 0.031931 0.166667
vt 0.096751 0.166667
vt 0.071857 0.166667
vt 0.082473 0.147659
vt 0.082473 0.185674
vt 0.060711 0.181568
vt 0.055744 0.166667
vt 0.032876 0.197257
vt 0.051883 0.216264
vt 0.035240 0.228178
vt 0.047687 0.190836
vt 0.067650 0.202385
vt 0.021080 0.021080
vt 0.000282 0.041878
vt 0.000282 0.000282
vt 0.041878 0.041878
vt 0.019406 0.057652
vt 0.038380 0.073682
vt 0.017934 0.094128
vt 0.000282 0.083475
vt 0.062676 0.062676
vt 0.083475 0.083475
vt 0.057068 0.090252
vt 0.075382 0.107751
vt 0.000282 0.125071
vt 0.016875 0.130445
vt 0.016467 0.166667
vt 0.000282 0.166667
vt 0.166667 0.166667
vt 0.128420 0.166667
vt 0.145869 0.145869
vt 0.145869 0.187465
vt 0.110918 0.187113
vt 0.110918 0.146221
vt 0.125071 0.125071
vt 0.125071 0.208263
vt 0.093289 0.206860
vt 0.104273 0.229061
vt 0.075382 0.225582
vt 0.093289 0.126474
vt 0.104273 0.104273
vt 0.000282 0.333051
vt 0.019406 0.275681
vt 0.021080 0.312253
vt 0.000282 0.249859
vt 0.000282 0.291455
vt 0.017934 0.239205
vt 0.038380 0.259651
vt 0.041878 0.291455
vt 0.000282 0.208263
vt 0.016875 0.202888
vt 0.062676 0.270657
vt 0.057068 0.243081
vt 0.083475 0.249859
vt 0.218832 0.117069
vt 0.199825 0.136076
vt 0.202189 0.105155
vt 0.234599 0.130948
vt 0.214636 0.142497
vt 0.227660 0.151765
vt 0.212758 0.166667
vt 0.198880 0.166667
vt 0.263700 0.166667
vt 0.238806 0.166667
vt 0.249422 0.147660
vt 0.249422 0.185674
vt 0.227660 0.181568
vt 0.222693 0.166667
vt 0.199825 0.197257
vt 0.218832 0.216264
vt 0.202189 0.228178
vt 0.214636 0.190836
vt 0.234599 0.202385
vt 0.188029 0.021080
vt 0.167231 0.041878
vt 0.167231 0.000282
vt 0.208827 0.041878
vt 0.186355 0.057652
vt 0.205329 0.073682
vt 0.184883 0.094128
vt 0.167231 0.083475
vt 0.229626 0.062677
vt 0.250424 0.083475
vt 0.224017 0.090252
vt 0.242331 0.107751
vt 0.167231 0.125071
vt 0.183824 0.130445
vt 0.183416 0.166667
vt 0.167231 0.166667
vt 0.333616 0.166667
vt 0.295369 0.166667
vt 0.312818 0.145869
vt 0.312818 0.187465
vt 0.277867 0.187113
vt 0.277867 0.146221
vt 0.292020 0.125071
vt 0.292020 0.208263
vt 0.260238 0.206860
vt 0.271222 0.229061
vt 0.242331 0.225582
vt 0.260238 0.126474
vt 0.271222 0.104273
vt 0.167231 0.291455
vt 0.188029 0.312253
vt 0.167231 0.333051
vt 0.167231 0.249859
vt 0.186355 0.275681
vt 0.184883 0.239205
vt 0.205329 0.259651
vt 0.208827 0.291455
vt 0.167231 0.208263
vt 0.183824 0.202888
vt 0.229626 0.270657
vt 0.224017 0.243081
vt 0.250424 0.249859
vt 0.385781 0.117069
vt 0.366774 0.136076
vt 0.369138 0.105155
vt 0.401548 0.130948
vt 0.381585 0.142497
vt 0.394609 0.151765
vt 0.379707 0.166667
vt 0.365830 0.166667
vt 0.430650 0.166667
vt 0.405755 0.166667
vt 0.416371 0.147660
vt 0.416371 0.185674
vt 0.394609 0.181568
vt 0.389642 0.166667
vt 0.366774 0.197257
vt 0.385781 0.216264
vt 0.369138 0.228178
vt 0.381585 0.190836
vt 0.401548 0.202385
vt 0.354979 0.021080
vt 0.334180 0.041878
vt 0.334180 0.000282
vt 0.375776 0.041878
vt 0.353304 0.057652
vt 0.372278 0.073682
vt 0.351832 0.094128
vt 0.334180 0.083475
vt 0.396575 0.062677
vt 0.417373 0.083475
vt 0.390966 0.090252
vt 0.409280 0.107751
vt 0.334180 0.125071
vt 0.350773 0.130445
vt 0.350365 0.166667
vt 0.334180 0.166667
vt 0.500565 0.166667
vt 0.462318 0.166667
vt 0.479767 0.145869
vt 0.479767 0.187465
vt 0.444816 0.187113
vt 0.444816 0.146221
vt 0.458969 0.125071
vt 0.458969 0.208263
vt 0.427187 0.206860
vt 0.438171 0.229061
vt 0.409280 0.225582
vt 0.427187 0.126474
vt 0.438171 0.104273
vt 0.334180 0.291455
vt 0.354979 0.312253
vt 0.334180 0.333051
vt 0.334180 0.249859
vt 0.353304 0.275681
vt 0.351832 0.239205
vt 0.372278 0.259651
vt 0.375776 0.291455
vt 0.334180 0.208263
vt 0.350773 0.202888
vt 0.396575 0.270657
vt 0.390966 0.243081
vt 0.417373 0.249859
vt 0.051883 0.450403
vt 0.032876 0.469410
vt 0.035240 0.438489
vt 0.067650 0.464282
vt 0.047687 0.475830
vt 0.055744 0.500000
vt 0.045809 0.500000
vt 0.031931 0.500000
vt 0.096751 0.500000
vt 0.071857 0.500000
vt 0.082473 0.480993
vt 0.082473 0.519007
vt 0.060711 0.514902
vt 0.060711 0.485098
vt 0.032876 0.530590
vt 0.051883 0.549598
vt 0.035240 0.561512
vt 0.047687 0.524170
vt 0.067650 0.535719
vt 0.021080 0.354414
vt 0.000282 0.375212
vt 0.000282 0.333616
vt 0.041878 0.375212
vt 0.019406 0.390986
vt 0.038380 0.407016
vt 0.017934 0.427462
vt 0.000282 0.416808
vt 0.062676 0.396010
vt 0.083475 0.416808
vt 0.057068 0.423586
vt 0.075382 0.441085
vt 0.000282 0.458404
vt 0.016875 0.463779
vt 0.016467 0.500000
vt 0.000282 0.500000
vt 0.166667 0.500000
vt 0.128420 0.500000
vt 0.145869 0.479202
vt 0.145869 0.520798
vt 0.110918 0.520446
vt 0.110918 0.479554
vt 0.125071 0.458404
vt 0.125071 0.541596
vt 0.093289 0.540193
vt 0.104273 0.562394
vt 0.075382 0.558915
vt 0.093289 0.459807
vt 0.104273 0.437606
vt 0.000282 0.624788
vt 0.021080 0.645586
vt 0.000282 0.666384
vt 0.000282 0.583192
vt 0.019406 0.609015
vt 0.017934 0.572538
vt 0.038380 0.592984
vt 0.041878 0.624788
vt 0.000282 0.541596
vt 0.016875 0.536222
vt 0.062676 0.603990
vt 0.057068 0.576415
vt 0.083475 0.583192
vt 0.218832 0.450403
vt 0.199825 0.469410
vt 0.202189 0.438489
vt 0.234599 0.464282
vt 0.214636 0.475830
vt 0.227660 0.485098
vt 0.212758 0.500000
vt 0.198880 0.500000
vt 0.249422 0.519007
vt 0.249422 0.480993
vt 0.263700 0.500000
vt 0.234599 0.535719
vt 0.238806 0.500000
vt 0.222693 0.500000
vt 0.202189 0.561512
vt 0.214636 0.524170
vt 0.218832 0.549598
vt 0.199825 0.530590
vt 0.227660 0.514902
vt 0.188029 0.354414
vt 0.167231 0.375212
vt 0.167231 0.333616
vt 0.208827 0.375212
vt 0.186355 0.390986
vt 0.205329 0.407016
vt 0.184883 0.427462
vt 0.167231 0.416808
vt 0.229626 0.396010
vt 0.250424 0.416808
vt 0.224017 0.423586
vt 0.242331 0.441085
vt 0.167231 0.458404
vt 0.183824 0.463779
vt 0.183416 0.500000
vt 0.167231 0.500000
vt 0.312818 0.520798
vt 0.312818 0.479202
vt 0.333616 0.500000
vt 0.292020 0.541596
vt 0.295369 0.500000
vt 0.277867 0.520446
vt 0.277867 0.479554
vt 0.292020 0.458404
vt 0.271222 0.562394
vt 0.250424 0.583192
vt 0.260238 0.540193
vt 0.242331 0.558915
vt 0.260238 0.459807
vt 0.271222 0.437606
vt 0.167231 0.624788
vt 0.188029 0.645586
vt 0.167231 0.666384
vt 0.184883 0.572539
vt 0.186355 0.609015
vt 0.205329 0.592984
vt 0.208827 0.624788
vt 0.167231 0.583192
vt 0.183824 0.536222
vt 0.167231 0.541596
vt 0.224017 0.576415
vt 0.229626 0.603990
vt 0.385781 0.450403
vt 0.366774 0.469410
vt 0.369138 0.438489
vt 0.401548 0.464282
vt 0.381585 0.475830
vt 0.394609 0.485098
vt 0.379707 0.500000
vt 0.365830 0.500000
vt 0.416371 0.519007
vt 0.416371 0.480993
vt 0.430650 0.500000
vt 0.401548 0.535719
vt 0.405755 0.500000
vt 0.394609 0.514902
vt 0.369138 0.561512
vt 0.381585 0.524170
vt 0.385781 0.549598
vt 0.366774 0.530590
vt 0.389642 0.500000
vt 0.354979 0.354414
vt 0.334180 0.375212
vt 0.334180 0.333616
vt 0.375776 0.375212
vt 0.353304 0.390986
vt 0.372278 0.407016
vt 0.351832 0.427462
vt 0.334180 0.416808
vt 0.396575 0.396010
vt 0.417373 0.416808
vt 0.390966 0.423586
vt 0.409280 0.441085
vt 0.334180 0.458404
vt 0.350773 0.463779
vt 0.350365 0.500000
vt 0.334180 0.500000
vt 0.479767 0.520798
vt 0.479767 0.479202
vt 0.500565 0.500000
vt 0.458969 0.541596
vt 0.462318 0.500000
vt 0.444816 0.520446
vt 0.444816 0.479554
vt 0.458969 0.458404
vt 0.438171 0.562394
vt 0.417373 0.583192
vt 0.427187 0.540193
vt 0.409280 0.558915
vt 0.438171 0.437606
vt 0.427187 0.459807
vt 0.334180 0.666384
vt 0.353304 0.609015
vt 0.354979 0.645586
vt 0.334180 0.624788
vt 0.351832 0.572539
vt 0.372278 0.592984
vt 0.375776 0.624788
vt 0.334180 0.583192
vt 0.350773 0.536222
vt 0.334180 0.541596
vt 0.390966 0.576415
vt 0.396575 0.603990
vt 0.536087 0.105155
vt 0.548534 0.142497
vt 0.533723 0.136076
vt 0.552730 0.117069
vt 0.561558 0.151765
vt 0.556591 0.166667
vt 0.546656 0.166667
vt 0.532779 0.166667
vt 0.583320 0.185674
vt 0.583320 0.147660
vt 0.597599 0.166667
vt 0.568497 0.202385
vt 0.572704 0.166667
vt 0.568497 0.130948
vt 0.533723 0.197257
vt 0.552730 0.216264
vt 0.536087 0.228178
vt 0.548534 0.190836
vt 0.561558 0.181568
vt 0.501130 0.000282
vt 0.520253 0.057652
vt 0.501130 0.041878
vt 0.521928 0.021080
vt 0.539227 0.073682
vt 0.518781 0.094128
vt 0.501130 0.083475
vt 0.542726 0.041878
vt 0.557915 0.090252
vt 0.563524 0.062677
vt 0.576229 0.107751
vt 0.517722 0.130445
vt 0.501130 0.125071
vt 0.517314 0.166667
vt 0.501129 0.166667
vt 0.646716 0.187465
vt 0.646716 0.145869
vt 0.667514 0.166667
vt 0.625918 0.208263
vt 0.629267 0.166667
vt 0.611765 0.187113
vt 0.611765 0.146221
vt 0.625918 0.125071
vt 0.605120 0.229061
vt 0.576229 0.225582
vt 0.594136 0.206860
vt 0.605120 0.104273
vt 0.594136 0.126474
vt 0.584322 0.083475
vt 0.501130 0.291455
vt 0.521928 0.312253
vt 0.501130 0.333051
vt 0.501129 0.249859
vt 0.520253 0.275681
vt 0.518781 0.239205
vt 0.539227 0.259651
vt 0.542726 0.291455
vt 0.501130 0.208263
vt 0.517722 0.202888
vt 0.563524 0.270657
vt 0.557915 0.243081
vt 0.584322 0.249859
vt 0.536087 0.438489
vt 0.548534 0.475830
vt 0.533723 0.469410
vt 0.552730 0.450403
vt 0.561558 0.485098
vt 0.556591 0.500000
vt 0.546656 0.500000
vt 0.532779 0.500000
vt 0.583320 0.519007
vt 0.583320 0.480993
vt 0.597599 0.500000
vt 0.568497 0.535719
vt 0.572704 0.500000
vt 0.561558 0.514902
vt 0.568497 0.464282
vt 0.533723 0.530590
vt 0.552730 0.549598
vt 0.536087 0.561512
vt 0.548534 0.524170
vt 0.501130 0.333616
vt 0.520253 0.390986
vt 0.501130 0.375212
vt 0.521928 0.354414
vt 0.539227 0.407016
vt 0.518781 0.427462
vt 0.501130 0.416808
vt 0.542726 0.375212
vt 0.557915 0.423586
vt 0.584322 0.416808
vt 0.563524 0.396010
vt 0.517722 0.463779
vt 0.501130 0.458404
vt 0.517314 0.500000
vt 0.501129 0.500000
vt 0.646716 0.520798
vt 0.646716 0.479202
vt 0.667514 0.500000
vt 0.625918 0.541596
vt 0.629267 0.500000
vt 0.611765 0.520446
vt 0.611765 0.479554
vt 0.625918 0.458404
vt 0.605120 0.562394
vt 0.584322 0.583192
vt 0.594136 0.540193
vt 0.576229 0.558915
vt 0.605120 0.437606
vt 0.594136 0.459807
vt 0.576229 0.441085
vt 0.501130 0.624788
vt 0.521928 0.645586
vt 0.501130 0.666384
vt 0.501129 0.583192
vt 0.520253 0.609015
vt 0.518781 0.572539
vt 0.539227 0.592984
vt 0.542726 0.624788
vt 0.501130 0.541596
vt 0.517722 0.536222
vt 0.563524 0.603990
vt 0.557915 0.576415
vt 0.703036 0.105155
vt 0.715483 0.142497
vt 0.700672 0.136076
vt 0.719679 0.117069
vt 0.728507 0.151765
vt 0.723540 0.166667
vt 0.713605 0.166667
vt 0.699728 0.166667
vt 0.750269 0.185674
vt 0.750269 0.147660
vt 0.764548 0.166667
vt 0.735446 0.202385
vt 0.739653 0.166667
vt 0.728507 0.181568
vt 0.735446 0.130948
vt 0.700672 0.197257
vt 0.719679 0.216264
vt 0.703036 0.228178
vt 0.715483 0.190836
vt 0.668079 0.000282
vt 0.687202 0.057652
vt 0.668079 0.041878
vt 0.688877 0.021080
vt 0.706176 0.073682
vt 0.685730 0.094128
vt 0.668079 0.083475
vt 0.709675 0.041878
vt 0.724864 0.090252
vt 0.730473 0.062677
vt 0.743178 0.107751
vt 0.684671 0.130445
vt 0.668079 0.125071
vt 0.684263 0.166667
vt 0.668079 0.166667
vt 0.834463 0.166667
vt 0.796216 0.166667
vt 0.813665 0.145869
vt 0.792867 0.208263
vt 0.813665 0.187465
vt 0.778714 0.187113
vt 0.778714 0.146221
vt 0.792867 0.125071
vt 0.772069 0.229061
vt 0.751271 0.249859
vt 0.761085 0.206860
vt 0.743178 0.225582
vt 0.772069 0.104273
vt 0.761085 0.126474
vt 0.751271 0.083475
vt 0.668079 0.291455
vt 0.688877 0.312253
vt 0.668079 0.333051
vt 0.668079 0.249859
vt 0.687202 0.275681
vt 0.685730 0.239205
vt 0.706176 0.259651
vt 0.709675 0.291455
vt 0.668079 0.208263
vt 0.684671 0.202888
vt 0.730473 0.270657
vt 0.724864 0.243081
vt 0.703036 0.438489
vt 0.715483 0.475830
vt 0.700672 0.469410
vt 0.719679 0.450403
vt 0.728507 0.485098
vt 0.723540 0.500000
vt 0.713605 0.500000
vt 0.699728 0.500000
vt 0.750269 0.519007
vt 0.750269 0.480993
vt 0.764548 0.500000
vt 0.735446 0.535719
vt 0.739653 0.500000
vt 0.728507 0.514902
vt 0.735446 0.464282
vt 0.700672 0.530590
vt 0.719679 0.549598
vt 0.703036 0.561512
vt 0.715483 0.524170
vt 0.688877 0.354414
vt 0.668079 0.375212
vt 0.668079 0.333616
vt 0.706176 0.407016
vt 0.687202 0.390986
vt 0.685730 0.427462
vt 0.668079 0.416808
vt 0.709675 0.375212
vt 0.724864 0.423586
vt 0.730473 0.396010
vt 0.743178 0.441085
vt 0.684671 0.463779
vt 0.668079 0.458404
vt 0.684263 0.500000
vt 0.668079 0.500000
vt 0.813665 0.520798
vt 0.813665 0.479202
vt 0.834463 0.500000
vt 0.792867 0.541596
vt 0.796216 0.500000
vt 0.778714 0.520446
vt 0.778714 0.479554
vt 0.792867 0.458404
vt 0.772069 0.562394
vt 0.751271 0.583192
vt 0.761085 0.540193
vt 0.743178 0.558915
vt 0.772069 0.437606
vt 0.761085 0.459807
vt 0.751271 0.416808
vt 0.668079 0.624788
vt 0.688877 0.645586
vt 0.668079 0.666384
vt 0.668079 0.583192
vt 0.687202 0.609015
vt 0.685730 0.572539
vt 0.706176 0.592984
vt 0.709675 0.624788
vt 0.668079 0.541596
vt 0.684671 0.536222
vt 0.724864 0.576415
vt 0.730473 0.603990
vt 0.051883 0.783736
vt 0.032876 0.802743
vt 0.035240 0.771822
vt 0.067650 0.797615
vt 0.047687 0.809164
vt 0.060711 0.818432
vt 0.045809 0.833334
vt 0.031931 0.833333
vt 0.096751 0.833334
vt 0.071857 0.833333
vt 0.082473 0.814326
vt 0.082473 0.852341
vt 0.060711 0.848235
vt 0.055744 0.833333
vt 0.032876 0.863924
vt 0.051883 0.882931
vt 0.035240 0.894845
vt 0.047687 0.857503
vt 0.067650 0.869052
vt 0.021080 0.687747
vt 0.000282 0.708545
vt 0.000282 0.666949
vt 0.041878 0.708545
vt 0.019406 0.724319
vt 0.038380 0.740349
vt 0.017934 0.760795
vt 0.000282 0.750141
vt 0.062676 0.729343
vt 0.083474 0.750141
vt 0.057068 0.756919
vt 0.075382 0.774418
vt 0.000282 0.791737
vt 0.016875 0.797112
vt 0.016467 0.833333
vt 0.000282 0.833333
vt 0.166667 0.833334
vt 0.128420 0.833333
vt 0.145869 0.812535
vt 0.145869 0.854132
vt 0.110918 0.853779
vt 0.110918 0.812887
vt 0.125071 0.791737
vt 0.125071 0.874929
vt 0.093289 0.873527
vt 0.104273 0.895728
vt 0.075382 0.892249
vt 0.093289 0.793140
vt 0.104273 0.770939
vt 0.000282 0.958122
vt 0.021080 0.978920
vt 0.000282 0.999718
vt 0.000282 0.916526
vt 0.019406 0.942348
vt 0.017934 0.905872
vt 0.038380 0.926318
vt 0.041878 0.958122
vt 0.000282 0.874930
vt 0.016875 0.869555
vt 0.062676 0.937324
vt 0.057068 0.909748
vt 0.083474 0.916526
vt 0.218832 0.783736
vt 0.199825 0.802743
vt 0.202189 0.771822
vt 0.234599 0.797615
vt 0.214636 0.809164
vt 0.222693 0.833333
vt 0.212758 0.833334
vt 0.198880 0.833333
vt 0.263700 0.833334
vt 0.238806 0.833333
vt 0.249422 0.814326
vt 0.249422 0.852341
vt 0.227660 0.848235
vt 0.227660 0.818432
vt 0.199825 0.863924
vt 0.218832 0.882931
vt 0.202189 0.894845
vt 0.214636 0.857503
vt 0.234599 0.869052
vt 0.188029 0.687747
vt 0.167231 0.708545
vt 0.167231 0.666949
vt 0.208827 0.708545
vt 0.186355 0.724319
vt 0.205329 0.740349
vt 0.184883 0.760795
vt 0.167231 0.750141
vt 0.229626 0.729343
vt 0.250424 0.750141
vt 0.224017 0.756919
vt 0.242331 0.774418
vt 0.183824 0.797112
vt 0.167231 0.791737
vt 0.183416 0.833333
vt 0.167231 0.833333
vt 0.333616 0.833334
vt 0.295369 0.833334
vt 0.312818 0.812536
vt 0.312818 0.854132
vt 0.277867 0.853780
vt 0.277867 0.812887
vt 0.292020 0.791737
vt 0.292020 0.874929
vt 0.260238 0.873527
vt 0.271222 0.895728
vt 0.242331 0.892249
vt 0.271222 0.770939
vt 0.260238 0.793140
vt 0.167231 0.958122
vt 0.188029 0.978920
vt 0.167231 0.999718
vt 0.167231 0.916526
vt 0.186355 0.942348
vt 0.184883 0.905872
vt 0.205329 0.926318
vt 0.208827 0.958122
vt 0.167231 0.874930
vt 0.183824 0.869555
vt 0.229626 0.937324
vt 0.224017 0.909748
vt 0.250424 0.916526
vn -0.9485 0.1503 -0.2790
vn -0.9893 0.1332 -0.0594
vn -0.9483 0.1213 -0.2933
vn -0.9328 0.1769 -0.3139
vn -0.9498 0.3056 -0.0669
vn -0.9612 0.1652 -0.2208
vn -0.9450 0.3257 0.0304
vn -0.9745 0.2178 -0.0537
vn -0.8269 -0.2285 -0.5139
vn -0.9648 -0.0928 -0.2461
vn -0.8698 -0.1336 -0.4750
vn -0.9366 -0.2331 -0.2618
vn -0.9848 -0.0862 -0.1509
vn -0.9769 0.1265 -0.1724
vn -0.9944 0.0635 0.0840
vn -0.9682 0.0282 0.2484
vn -0.9851 -0.1428 0.0954
vn -0.9855 0.1536 0.0728
vn -0.9506 -0.1122 -0.2895
vn -0.7868 0.2779 -0.5512
vn -0.9653 0.1757 -0.1934
vn -0.7166 0.5303 -0.4530
vn -0.8699 0.0043 -0.4933
vn -0.9665 -0.0257 -0.2553
vn -0.9308 -0.0063 -0.3655
vn -0.9732 0.1181 -0.1976
vn -0.9855 0.1335 -0.1045
vn -0.8408 -0.2098 -0.4990
vn -0.7228 0.1469 -0.6753
vn -0.8593 0.1492 -0.4892
vn -0.7977 0.2825 -0.5328
vn -0.9499 -0.0002 -0.3124
vn -0.9910 0.0542 -0.1222
vn -0.9602 0.0203 -0.2785
vn -0.9739 0.0844 -0.2109
vn -0.4712 -0.5522 -0.6878
vn -0.7209 -0.1555 -0.6753
vn -0.5217 -0.1561 -0.8388
vn -0.4739 -0.7254 -0.4992
vn -0.8771 -0.1814 -0.4447
vn -0.7272 -0.3006 -0.6172
vn -0.4489 -0.4086 -0.7947
vn -0.5722 -0.7422 -0.3489
vn -0.9319 -0.1577 -0.3267
vn -0.7133 -0.6734 -0.1941
vn -0.9752 -0.2206 -0.0202
vn -0.8320 -0.1838 -0.5235
vn -0.6577 0.0210 -0.7530
vn -0.7778 -0.4613 0.4268
vn -0.8794 -0.3770 0.2906
vn -0.8102 -0.4934 0.3165
vn -0.9054 -0.0964 0.4134
vn -0.9568 -0.1711 0.2351
vn -0.9411 -0.2577 0.2188
vn -0.9055 -0.2122 0.3674
vn -0.7244 -0.4644 0.5095
vn -0.9825 0.1047 0.1543
vn -0.9528 -0.1345 -0.2723
vn -0.7154 -0.5813 0.3875
vn -0.9232 -0.1466 0.3553
vn -0.7189 -0.6604 0.2167
vn 0.2990 -0.1588 -0.9409
vn 0.0869 -0.0578 -0.9945
vn 0.1137 0.1022 -0.9882
vn 0.3451 0.0471 -0.9374
vn 0.1261 -0.0510 -0.9907
vn 0.1242 0.1049 -0.9867
vn 0.2025 0.3210 -0.9252
vn 0.3219 0.0712 -0.9441
vn 0.2977 0.2789 -0.9130
vn 0.2439 0.3574 -0.9015
vn 0.3146 0.2722 -0.9093
vn 0.0874 0.1093 -0.9902
vn 0.2876 0.2613 -0.9214
vn 0.2270 0.3686 -0.9014
vn -0.0089 0.2523 -0.9676
vn 0.1196 -0.1575 -0.9802
vn -0.3996 -0.0901 -0.9123
vn 0.1939 0.1816 -0.9641
vn 0.0719 -0.0795 -0.9942
vn 0.7123 -0.1534 -0.6849
vn 0.4059 -0.0620 -0.9118
vn 0.6094 0.1858 -0.7708
vn 0.7724 0.0238 -0.6347
vn 0.4402 -0.1693 -0.8818
vn 0.4050 0.0460 -0.9131
vn 0.2082 -0.2037 -0.9566
vn 0.3519 -0.3664 -0.8613
vn 0.7404 0.1585 -0.6532
vn 0.5650 -0.1324 -0.8144
vn 0.4496 -0.1848 -0.8739
vn 0.5118 -0.0681 -0.8564
vn 0.2429 -0.2922 -0.9250
vn 0.1703 -0.0239 -0.9851
vn 0.1996 0.0847 -0.9762
vn 0.1928 -0.0630 -0.9792
vn 0.6813 -0.1897 -0.7070
vn 0.6244 0.0688 -0.7780
vn 0.6531 0.0408 -0.7561
vn 0.6191 -0.4926 -0.6115
vn 0.3321 -0.1740 -0.9271
vn 0.5592 0.2597 -0.7873
vn 0.5871 0.1200 -0.8006
vn 0.2570 -0.7209 -0.6437
vn 0.0286 -0.1346 -0.9905
vn 0.1883 -0.7813 -0.5950
vn 0.0425 -0.1470 -0.9882
vn 0.4433 0.1522 -0.8834
vn 0.5537 0.0843 -0.8285
vn -0.3919 -0.0239 -0.9197
vn -0.2553 -0.6898 -0.6775
vn -0.3633 -0.2150 -0.9065
vn -0.1879 -0.1742 -0.9666
vn -0.3926 -0.1429 -0.9086
vn -0.3497 -0.2581 -0.9006
vn -0.1089 -0.7195 -0.6859
vn 0.0407 -0.0590 -0.9974
vn -0.0635 0.1180 -0.9910
vn -0.3982 -0.6750 -0.6211
vn -0.3339 -0.2578 -0.9067
vn -0.0526 -0.7130 -0.6992
vn 0.9479 0.0166 0.3182
vn 0.9798 0.0838 0.1815
vn 0.9154 0.3425 0.2117
vn 0.9638 0.1461 0.2228
vn 0.9450 0.0092 0.3270
vn 0.8935 0.3310 0.3034
vn 0.8682 0.3327 0.3683
vn 0.9101 0.3701 0.1861
vn 0.7638 -0.2438 0.5977
vn 0.8919 0.1199 0.4362
vn 0.9479 0.0033 0.3185
vn 0.8592 -0.1470 0.4901
vn 0.9298 0.1197 0.3480
vn 0.8698 0.3533 0.3444
vn 0.9650 0.2348 0.1170
vn 0.9760 -0.0985 0.1942
vn 0.9930 -0.0712 0.0944
vn 0.9558 0.1278 0.2649
vn 0.9598 -0.1598 0.2305
vn 0.9431 0.0734 0.3244
vn 0.9600 0.1619 0.2285
vn 0.8723 0.4494 0.1926
vn 0.8937 0.2785 0.3517
vn 0.9366 0.1546 0.3144
vn 0.9118 0.3295 0.2451
vn 0.9349 0.3036 0.1840
vn 0.9891 0.1148 0.0923
vn 0.8116 0.2227 0.5401
vn 0.7685 0.1826 0.6132
vn 0.9278 0.1571 0.3383
vn 0.9462 0.1246 0.2988
vn 0.9247 0.3622 0.1173
vn 0.9245 0.3791 0.0406
vn 0.9552 0.2886 0.0659
vn 0.9704 0.1679 0.1737
vn 0.4759 -0.5458 0.6897
vn 0.4008 -0.5075 0.7628
vn 0.4205 -0.4077 0.8105
vn 0.3919 -0.6684 0.6322
vn 0.5225 -0.5571 0.6455
vn 0.5270 -0.3991 0.7503
vn 0.3908 -0.5115 0.7653
vn 0.4564 -0.5939 0.6626
vn 0.6961 -0.5608 0.4483
vn 0.5932 -0.6777 0.4345
vn 0.8566 -0.4410 0.2678
vn 0.8341 -0.0701 0.5472
vn 0.6537 -0.2444 0.7162
vn 0.8672 -0.0841 -0.4907
vn 0.6675 -0.4303 -0.6077
vn 0.9307 0.2071 -0.3015
vn 0.9274 -0.2160 -0.3055
vn 0.9825 0.0493 -0.1793
vn 0.9181 -0.3223 -0.2305
vn 0.7348 -0.6380 -0.2302
vn 0.9585 0.2764 0.0697
vn 0.8891 0.4574 0.0191
vn 0.7271 -0.6865 0.0086
vn 0.9005 -0.4326 -0.0445
vn 0.6799 -0.7267 0.0987
vn -0.5935 0.1214 0.7957
vn -0.5768 0.0436 0.8157
vn -0.7019 -0.0476 0.7107
vn -0.5010 0.2662 0.8235
vn -0.5412 0.2447 0.8045
vn -0.5853 0.1139 0.8028
vn -0.4537 0.2087 0.8664
vn -0.1799 0.2203 0.9587
vn -0.6493 0.1289 0.7496
vn -0.4795 0.2860 0.8296
vn -0.5753 0.1552 0.8031
vn -0.4284 -0.1534 0.8905
vn -0.3519 0.0645 0.9338
vn -0.5074 0.2298 0.8305
vn 0.2471 -0.1506 0.9572
vn 0.2816 -0.3411 0.8969
vn 0.3434 -0.3570 0.8687
vn 0.0624 -0.1828 0.9812
vn 0.0857 -0.2513 0.9641
vn -0.8464 -0.1183 0.5193
vn -0.4752 -0.1513 0.8668
vn -0.7840 0.0127 0.6206
vn -0.7217 -0.2681 0.6382
vn -0.6801 -0.4462 0.5817
vn -0.6919 -0.2277 0.6852
vn -0.6107 -0.2073 0.7643
vn -0.2259 -0.1799 0.9574
vn -0.7538 -0.1720 0.6342
vn -0.8002 0.2425 0.5485
vn -0.6959 0.1717 0.6973
vn -0.6746 0.3225 0.6640
vn -0.4840 -0.0318 0.8745
vn -0.4158 0.0352 0.9088
vn -0.2789 -0.0576 0.9586
vn -0.0192 -0.1111 0.9936
vn -0.6968 -0.2603 0.6683
vn -0.7811 0.0244 0.6239
vn -0.6484 -0.5813 0.4916
vn -0.5802 -0.4395 0.6857
vn -0.6165 0.1369 0.7754
vn -0.7383 0.2470 0.6276
vn -0.5633 -0.6470 0.5140
vn -0.3926 -0.5514 0.7361
vn -0.3518 -0.7511 0.5587
vn 0.1200 -0.5356 0.8359
vn -0.6551 0.2255 0.7211
vn -0.6950 0.3486 0.6289
vn 0.4684 -0.4175 0.7786
vn 0.5264 -0.4591 0.7156
vn 0.3616 -0.4240 0.8303
vn 0.4358 -0.3859 0.8131
vn 0.5714 -0.2901 0.7677
vn 0.5365 -0.3945 0.7460
vn 0.4700 -0.4913 0.7333
vn 0.4127 -0.2833 0.8657
vn 0.4161 -0.1626 0.8947
vn 0.2915 -0.6046 0.7413
vn 0.3366 -0.3936 0.8555
vn 0.0315 -0.7657 0.6424
vn -0.0071 -0.9514 -0.3079
vn -0.1620 -0.9867 0.0162
vn 0.0793 -0.9418 -0.3266
vn -0.1184 -0.9793 0.1639
vn -0.1494 -0.9558 0.2531
vn -0.2470 -0.9001 0.3588
vn -0.1199 -0.9472 0.2973
vn -0.3819 -0.8988 0.2153
vn -0.0069 -0.9569 0.2902
vn 0.0699 -0.9665 0.2468
vn 0.1183 -0.9346 0.3355
vn -0.2776 -0.9422 0.1874
vn -0.3290 -0.8946 0.3022
vn -0.0917 -0.8676 0.4888
vn -0.3968 -0.8317 0.3884
vn -0.0074 -0.9032 0.4291
vn -0.2536 -0.9374 0.2386
vn -0.3599 -0.8589 0.3644
vn -0.3257 -0.8980 0.2958
vn 0.0710 -0.9845 -0.1603
vn -0.0659 -0.9138 -0.4007
vn -0.0242 -0.9390 -0.3429
vn 0.0508 -0.9141 -0.4023
vn -0.0113 -0.8799 -0.4750
vn 0.0588 -0.9524 -0.2990
vn 0.1397 -0.9253 -0.3526
vn 0.0229 -0.9274 -0.3734
vn 0.1924 -0.9515 -0.2400
vn -0.2343 -0.9719 -0.0220
vn -0.4361 -0.8382 0.3276
vn 0.5233 -0.6496 0.5514
vn 0.5356 -0.6645 0.5211
vn 0.2873 -0.8010 0.5252
vn 0.2226 -0.9377 0.2667
vn 0.3065 -0.8600 0.4079
vn 0.1515 -0.8832 0.4438
vn -0.1689 -0.8997 0.4026
vn 0.0853 -0.9798 0.1811
vn 0.0270 -0.9989 0.0381
vn -0.6073 -0.6824 0.4067
vn -0.6454 -0.6528 0.3965
vn -0.4537 -0.7879 0.4164
vn -0.5004 -0.7879 0.3589
vn -0.3497 -0.8814 0.3176
vn 0.0540 0.9614 -0.2698
vn 0.0937 0.9950 -0.0338
vn 0.4084 0.8996 -0.1545
vn -0.2182 0.9418 -0.2558
vn -0.3190 0.9375 -0.1387
vn -0.1869 0.9400 -0.2855
vn -0.0305 0.9928 -0.1161
vn -0.2494 0.9668 -0.0551
vn -0.1344 0.9431 -0.3042
vn -0.1813 0.9660 -0.1843
vn -0.1973 0.8923 -0.4062
vn -0.1956 0.9630 -0.1852
vn -0.1111 0.9780 -0.1765
vn -0.1395 0.9053 -0.4013
vn -0.4696 0.8525 0.2298
vn -0.1777 0.9697 -0.1678
vn -0.4741 0.8791 -0.0482
vn -0.1538 0.9726 0.1745
vn 0.0825 0.9037 -0.4203
vn 0.5490 0.8018 0.2362
vn 0.6797 0.6892 0.2510
vn 0.2696 0.9531 0.1377
vn 0.5672 0.8096 0.1509
vn 0.4361 0.8981 -0.0562
vn 0.5792 0.8134 -0.0534
vn 0.7417 0.6036 0.2926
vn 0.2100 0.9709 -0.1152
vn -0.0587 0.9930 -0.1021
vn 0.3039 0.9176 -0.2562
vn -0.0833 0.9640 -0.2526
vn 0.4814 0.6978 0.5304
vn 0.2872 0.9415 0.1761
vn -0.0701 0.9645 0.2545
vn -0.0160 0.7191 0.6947
vn -0.7581 0.6100 -0.2303
vn -0.2658 0.9558 -0.1255
vn -0.6822 0.7276 -0.0728
vn -0.2530 0.9578 0.1366
vn -0.2389 0.9664 -0.0944
vn -0.2250 0.9724 -0.0611
vn -0.3335 0.9301 0.1539
vn -0.5828 0.7696 -0.2609
vn -0.6684 0.7437 0.0161
vn -0.3195 0.8778 -0.3569
vn -0.4380 0.8962 -0.0705
vn -0.2510 0.9672 -0.0389
vn -0.2451 0.9471 -0.2074
vn -0.6985 0.5997 0.3904
vn -0.8879 0.1791 0.4238
vn -0.3966 0.4162 0.8182
vn -0.3039 0.8045 0.5103
vn -0.7571 0.6265 0.1852
vn -0.7455 0.4371 0.5032
vn -0.2825 0.5468 0.7882
vn -0.3596 0.8480 0.3894
vn -0.3417 0.5642 0.7516
vn -0.5611 0.8061 0.1882
vn -0.7049 0.6207 0.3432
vn -0.4624 0.1883 -0.8664
vn -0.4631 0.0946 -0.8813
vn -0.4269 0.0998 -0.8988
vn -0.4085 0.2218 -0.8854
vn -0.1875 -0.0261 -0.9819
vn -0.2415 -0.0628 -0.9684
vn -0.3173 -0.0966 -0.9434
vn -0.4466 -0.0814 -0.8910
vn 0.3052 -0.2859 -0.9084
vn 0.2174 -0.1151 -0.9693
vn 0.1270 -0.2227 -0.9666
vn 0.3359 -0.4014 -0.8521
vn 0.3492 -0.2071 -0.9139
vn -0.1365 0.1315 -0.9819
vn -0.3442 0.0600 -0.9370
vn 0.0072 -0.0748 -0.9972
vn -0.1658 -0.2481 -0.9544
vn -0.1367 -0.2716 -0.9526
vn -0.0103 -0.2852 -0.9584
vn -0.5220 0.3977 -0.7545
vn -0.4256 0.6641 -0.6147
vn -0.4826 0.4461 -0.7537
vn -0.5188 0.2491 -0.8178
vn -0.3249 0.7326 -0.5981
vn -0.4186 0.4530 -0.7871
vn -0.3354 0.7600 -0.5567
vn -0.1031 0.3741 -0.9216
vn -0.5062 -0.0359 -0.8617
vn -0.6609 -0.1189 -0.7410
vn 0.4834 0.4123 -0.7722
vn 0.4125 0.0168 -0.9108
vn 0.1969 -0.2218 -0.9550
vn 0.3101 0.1651 -0.9362
vn 0.2855 0.5635 -0.7752
vn 0.2536 -0.2223 -0.9414
vn 0.0338 -0.1944 -0.9803
vn 0.3906 0.5799 -0.7150
vn 0.2174 0.2396 -0.9462
vn -0.0439 0.6969 -0.7158
vn -0.3035 -0.2331 -0.9239
vn -0.2470 -0.5002 -0.8299
vn -0.1992 -0.4498 -0.8706
vn -0.5569 0.0902 -0.8257
vn 0.0405 -0.0363 -0.9985
vn 0.8483 0.0230 -0.5290
vn 0.9469 0.2294 -0.2252
vn 0.7480 -0.0638 -0.6606
vn 0.9746 0.1307 -0.1819
vn 0.9869 0.0577 0.1505
vn 0.9129 0.1415 0.3828
vn 0.9179 -0.0570 -0.3927
vn 0.7554 0.2048 -0.6224
vn 0.9268 0.2620 0.2691
vn 0.9846 0.0684 0.1612
vn 0.9285 0.1763 0.3268
vn 0.9793 0.1307 0.1543
vn 0.9678 0.2517 -0.0079
vn 0.9413 0.3375 0.0050
vn 0.9815 0.0678 0.1792
vn 0.8123 0.3886 -0.4350
vn 0.9657 0.2079 -0.1556
vn 0.8974 0.0681 -0.4360
vn 0.9237 0.2296 -0.3067
vn 0.8252 0.0150 -0.5646
vn 0.6029 0.4121 -0.6831
vn 0.9001 0.0819 -0.4279
vn 0.7659 -0.1683 -0.6205
vn 0.6831 0.5364 -0.4956
vn 0.9605 0.2578 -0.1051
vn 0.8043 0.5714 0.1630
vn 0.8561 0.5143 -0.0514
vn 0.8163 0.1298 -0.5629
vn 0.7341 0.3540 -0.5795
vn 0.8572 0.4740 0.2012
vn 0.9600 0.2795 -0.0163
vn 0.9676 0.2444 0.0633
vn 0.9474 0.1753 0.2676
vn 0.8715 0.4564 0.1794
vn 0.9318 0.1886 0.3100
vn 0.9524 0.1371 0.2722
vn 0.7934 0.5551 0.2498
vn 0.9185 0.2193 0.3290
vn 0.9557 0.2913 0.0418
vn 0.6901 0.1810 -0.7007
vn 0.6852 0.0967 -0.7219
vn 0.9007 0.2151 -0.3775
vn 0.6524 0.0136 -0.7577
vn 0.9871 0.1558 0.0370
vn 0.6159 -0.0784 0.7839
vn 0.3922 -0.2734 0.8783
vn 0.4835 -0.1394 0.8642
vn 0.3544 -0.0124 0.9350
vn 0.4236 -0.1359 0.8956
vn 0.4658 -0.3431 0.8157
vn 0.3897 -0.0663 0.9185
vn 0.4429 0.0721 0.8937
vn 0.0898 -0.1251 0.9881
vn 0.0611 -0.0579 0.9965
vn -0.5055 -0.0651 0.8604
vn 0.4408 -0.0203 0.8974
vn 0.4138 -0.1471 0.8984
vn 0.6026 0.0004 0.7981
vn 0.4938 -0.0514 0.8681
vn 0.4648 0.1172 0.8776
vn 0.3466 -0.0108 0.9380
vn 0.3544 -0.1745 0.9186
vn 0.3938 0.2009 0.8970
vn 0.8827 0.2256 0.4123
vn 0.6389 0.3181 0.7004
vn 0.8359 0.0398 0.5474
vn 0.4969 0.1756 0.8499
vn 0.2612 0.1778 0.9488
vn 0.6838 0.0207 0.7294
vn 0.5645 0.1240 0.8161
vn -0.1135 0.0463 0.9925
vn -0.3569 -0.0507 0.9328
vn -0.3519 0.0729 0.9332
vn -0.3044 -0.0118 0.9525
vn 0.4075 0.0395 0.9123
vn -0.3501 0.2139 0.9120
vn 0.4828 -0.4706 0.7385
vn 0.4515 -0.4282 0.7828
vn 0.2867 -0.4301 0.8560
vn 0.4988 0.0110 0.8667
vn 0.3502 -0.1512 0.9244
vn -0.8250 -0.1466 0.5458
vn -0.8940 -0.1339 0.4275
vn -0.8211 -0.1389 0.5537
vn -0.9108 -0.0797 0.4052
vn -0.8663 -0.0208 0.4991
vn -0.9402 0.0788 0.3313
vn -0.7760 -0.0179 0.6305
vn -0.7687 -0.1228 0.6277
vn -0.9661 0.1003 -0.2380
vn -0.9807 0.0651 -0.1846
vn -0.9609 0.0898 -0.2619
vn -0.9722 -0.0625 0.2256
vn -0.9715 0.1119 0.2090
vn -0.8178 0.0564 0.5727
vn -0.9615 -0.0061 0.2748
vn -0.7714 0.1457 0.6195
vn -0.7508 0.1762 0.6366
vn -0.7020 0.4959 0.5112
vn -0.8451 -0.0666 0.5305
vn -0.8444 0.1166 0.5229
vn -0.7678 -0.0240 0.6402
vn -0.8131 -0.1533 0.5616
vn -0.8743 0.1654 0.4564
vn -0.9439 0.2744 0.1835
vn -0.7908 -0.2410 0.5627
vn -0.7629 0.0269 0.6460
vn -0.9648 0.1450 -0.2193
vn -0.9667 0.0764 -0.2441
vn -0.9358 0.1933 -0.2949
vn -0.9477 0.0078 -0.3190
vn -0.9887 -0.0291 -0.1472
vn -0.9384 0.2489 -0.2396
vn -0.8268 0.1501 0.5421
vn -0.7128 0.2698 0.6474
vn -0.9059 0.1224 0.4055
vn -0.6701 0.4338 0.6023
vn -0.8492 0.2373 0.4717
vn -0.0680 -0.9937 -0.0894
vn -0.0903 -0.9878 -0.1271
vn -0.2374 -0.9612 -0.1403
vn 0.0714 -0.9810 -0.1803
vn 0.0069 -0.9847 -0.1741
vn -0.1671 -0.9816 -0.0920
vn 0.0795 -0.9646 -0.2513
vn -0.0539 -0.9977 -0.0423
vn 0.2060 -0.9559 -0.2091
vn -0.0842 -0.9963 -0.0169
vn -0.1674 -0.8919 -0.4201
vn 0.1437 -0.9796 -0.1402
vn -0.0325 -0.9977 -0.0591
vn -0.0278 -0.9912 -0.1296
vn 0.0873 -0.9896 -0.1145
vn -0.0741 -0.9866 0.1455
vn 0.0813 -0.9962 -0.0323
vn -0.0367 -0.9993 -0.0017
vn -0.0769 -0.9842 -0.1594
vn 0.0466 -0.9761 -0.2125
vn -0.2913 -0.9386 -0.1849
vn -0.2707 -0.9418 -0.1995
vn -0.2610 -0.9483 -0.1808
vn 0.1386 -0.9758 -0.1694
vn -0.0166 -0.9800 -0.1983
vn -0.0099 -0.9859 -0.1669
vn 0.5289 -0.7330 -0.4278
vn 0.3589 -0.8573 -0.3690
vn 0.0617 -0.8649 -0.4981
vn 0.2971 -0.9073 -0.2975
vn 0.3700 -0.9282 0.0389
vn 0.1297 -0.9325 -0.3370
vn 0.2964 -0.6257 0.7215
vn 0.2014 -0.9494 0.2410
vn 0.3338 -0.8272 0.4520
vn 0.2356 -0.8919 -0.3859
vn 0.2878 -0.9399 0.1837
vn 0.4265 0.8421 0.3302
vn 0.1367 0.9398 0.3132
vn 0.4065 0.9080 0.1015
vn 0.4334 0.9000 0.0476
vn 0.1561 0.9563 0.2472
vn 0.1191 0.9714 -0.2055
vn 0.1385 0.9885 0.0603
vn -0.0156 0.9673 0.2533
vn 0.5543 0.7954 -0.2453
vn 0.4068 0.8864 -0.2209
vn 0.2383 0.9024 -0.3590
vn 0.2306 0.9303 -0.2854
vn 0.3484 0.9176 -0.1913
vn 0.2811 0.9111 -0.3016
vn -0.4131 0.9030 0.1183
vn -0.1998 0.9594 -0.1988
vn -0.2804 0.9546 -0.1002
vn 0.0219 0.9934 -0.1127
vn 0.1874 0.9370 -0.2947
vn 0.7038 0.7059 0.0792
vn 0.5984 0.7956 0.0950
vn 0.4035 0.9109 -0.0860
vn 0.6034 0.7633 0.2310
vn 0.6634 0.7080 0.2421
vn 0.1630 0.9861 0.0336
vn -0.1450 0.9753 0.1668
vn 0.6279 0.5696 -0.5303
vn 0.3989 0.6573 -0.6394
vn 0.5036 0.7131 -0.4877
vn 0.3043 0.7467 -0.5915
vn 0.1472 0.8934 -0.4244
vn 0.5192 0.7950 -0.3138
vn -0.2384 0.9398 -0.2449
vn -0.2988 0.9535 0.0385
vn -0.2458 0.9075 -0.3406
vn -0.2677 0.9595 0.0877
vn -0.3373 0.8793 -0.3362
usemtl Material.002
s 1
f 1/1/1 2/2/2 3/3/3
f 4/4/4 5/5/5 1/1/1
f 6/6/6 7/7/7 5/5/5
f 5/5/5 8/8/8 2/2/2
f 9/9/9 10/10/10 11/11/11
f 12/12/12 13/13/13 10/10/10
f 10/10/10 14/14/14 6/6/6
f 11/11/11 6/6/6 4/4/4
f 15/15/15 16/16/16 17/17/17
f 8/8/8 18/18/18 15/15/15
f 18/18/18 14/14/14 13/13/13
f 18/18/18 19/19/19 16/16/16
f 20/20/20 21/21/21 22/22/22
f 23/23/23 24/24/24 20/20/20
f 25/25/25 26/26/26 24/24/24
f 24/24/24 27/27/27 21/21/21
f 28/28/28 25/25/25 23/23/23
f 29/29/29 30/30/30 28/28/28
f 31/31/31 1/1/1 30/30/30
f 30/30/30 3/3/3 25/25/25
f 26/26/26 32/32/32 27/27/27
f 3/3/3 33/33/33 26/26/26
f 2/2/2 34/34/34 33/33/33
f 33/33/33 35/35/35 32/32/32
f 36/36/36 37/37/37 38/38/38
f 39/39/39 40/40/40 37/37/37
f 37/37/37 9/9/9 41/41/41
f 38/38/38 41/41/41 42/42/42
f 43/43/43 44/44/44 40/40/40
f 45/45/45 46/46/46 44/44/44
f 44/44/44 19/19/19 12/12/12
f 40/40/40 12/12/12 9/9/9
f 42/42/42 47/47/47 48/48/48
f 41/41/41 11/11/11 47/47/47
f 47/47/47 4/4/4 31/31/31
f 48/48/48 31/31/31 29/29/29
f 49/49/49 50/50/50 51/51/51
f 52/52/52 50/50/50 53/53/53
f 54/54/54 55/55/55 50/50/50
f 50/50/50 56/56/56 51/51/51
f 57/57/57 54/54/54 52/52/52
f 35/35/35 58/58/58 57/57/57
f 34/34/34 15/15/15 58/58/58
f 58/58/58 17/17/17 54/54/54
f 55/55/55 59/59/59 56/56/56
f 17/17/17 60/60/60 55/55/55
f 16/16/16 46/46/46 60/60/60
f 60/60/60 61/61/61 59/59/59
f 62/62/62 63/63/63 64/64/64
f 65/65/65 66/66/66 62/62/62
f 67/67/67 68/68/68 66/66/66
f 66/66/66 69/69/69 63/63/63
f 70/70/70 71/71/71 72/72/72
f 73/73/73 74/74/74 71/71/71
f 71/71/71 75/75/75 67/67/67
f 72/72/72 67/67/67 65/65/65
f 76/76/76 77/77/77 78/78/78
f 69/69/69 79/79/79 76/76/76
f 68/68/68 74/74/74 79/79/79
f 79/79/79 80/80/80 77/77/77
f 81/81/81 82/82/82 83/83/83
f 84/84/84 85/85/85 81/81/81
f 86/86/86 87/87/87 85/85/85
f 85/85/85 88/88/88 82/82/82
f 89/89/89 86/86/86 84/84/84
f 90/90/90 91/91/91 89/89/89
f 92/92/92 62/62/62 91/91/91
f 91/91/91 64/64/64 86/86/86
f 87/87/87 93/93/93 88/88/88
f 64/64/64 94/94/94 87/87/87
f 63/63/63 95/95/95 94/94/94
f 94/94/94 96/96/96 93/93/93
f 97/97/97 98/98/98 99/99/99
f 100/100/100 101/101/101 98/98/98
f 98/98/98 70/70/70 102/102/102
f 99/99/99 102/102/102 103/103/103
f 104/104/104 105/105/105 101/101/101
f 106/106/106 107/107/107 105/105/105
f 105/105/105 80/80/80 73/73/73
f 101/101/101 73/73/73 70/70/70
f 103/103/103 108/108/108 109/109/109
f 102/102/102 72/72/72 108/108/108
f 108/108/108 65/65/65 92/92/92
f 109/109/109 92/92/92 90/90/90
f 110/110/110 111/111/111 36/112/36
f 112/113/112 113/114/113 110/110/110
f 114/115/114 115/116/115 113/114/113
f 113/114/113 116/117/116 111/111/111
f 117/118/117 114/115/114 112/113/112
f 96/96/96 118/119/118 117/118/117
f 95/95/95 76/76/76 118/119/118
f 118/119/118 78/78/78 114/115/114
f 115/116/115 119/120/119 116/117/116
f 78/78/78 120/121/120 115/116/115
f 77/77/77 107/107/107 120/121/120
f 120/121/120 121/122/121 119/120/119
f 122/123/122 123/124/123 124/125/124
f 125/126/125 126/127/126 122/123/122
f 127/128/127 128/129/128 126/127/126
f 126/127/126 129/130/129 123/124/123
f 130/131/130 131/132/131 132/133/132
f 133/134/133 134/135/134 131/132/131
f 131/132/131 135/136/135 127/128/127
f 132/133/132 127/128/127 125/126/125
f 136/137/136 137/138/137 138/139/138
f 129/130/129 139/140/139 136/137/136
f 139/140/139 135/136/135 134/135/134
f 139/140/139 140/141/140 137/138/137
f 141/142/141 142/143/142 143/144/143
f 144/145/144 145/146/145 141/142/141
f 146/147/146 147/148/147 145/146/145
f 145/146/145 148/149/148 142/143/142
f 149/150/149 146/147/146 144/145/144
f 150/151/150 151/152/151 149/150/149
f 152/153/152 122/123/122 151/152/151
f 151/152/151 124/125/124 146/147/146
f 147/148/147 153/154/153 148/149/148
f 124/125/124 154/155/154 147/148/147
f 123/124/123 155/156/155 154/155/154
f 154/155/154 156/157/156 153/154/153
f 157/158/157 158/159/158 159/160/159
f 160/161/160 161/162/161 158/159/158
f 158/159/158 130/131/130 162/163/162
f 159/160/159 162/163/162 163/164/163
f 164/165/164 165/166/165 161/162/161
f 166/167/166 167/168/167 165/166/165
f 165/166/165 140/141/140 133/134/133
f 161/162/161 133/134/133 130/131/130
f 163/164/163 168/169/168 169/170/169
f 162/163/162 132/133/132 168/169/168
f 168/169/168 125/126/125 152/153/152
f 169/170/169 152/153/152 150/151/150
f 170/171/170 171/172/171 97/173/97
f 172/174/172 173/175/173 170/171/170
f 174/176/174 175/177/175 173/175/173
f 173/175/173 176/178/176 171/172/171
f 177/179/177 174/176/174 172/174/172
f 177/179/177 155/156/155 178/180/178
f 178/180/178 129/130/129 136/137/136
f 178/180/178 138/139/138 174/176/174
f 175/177/175 179/181/179 176/178/176
f 138/139/138 180/182/180 175/177/175
f 137/138/137 167/168/167 180/182/180
f 180/182/180 181/183/181 179/181/179
f 182/184/182 183/185/183 184/186/184
f 185/187/185 186/188/186 182/184/182
f 186/188/186 187/189/187 188/190/188
f 186/188/186 189/191/189 183/185/183
f 190/192/190 191/193/191 192/194/192
f 193/195/193 194/196/194 191/193/191
f 191/193/191 187/189/187 195/197/195
f 192/194/192 195/197/195 185/187/185
f 196/198/196 197/199/197 198/200/198
f 189/191/189 199/201/199 196/198/196
f 188/190/188 194/196/194 199/201/199
f 199/201/199 200/202/200 197/199/197
f 201/203/201 202/204/202 203/205/203
f 204/206/204 205/207/205 201/203/201
f 206/208/206 207/209/207 205/207/205
f 205/207/205 208/210/208 202/204/202
f 209/211/209 206/208/206 204/206/204
f 210/212/210 211/213/211 209/211/209
f 212/214/212 182/184/182 211/213/211
f 211/213/211 184/186/184 206/208/206
f 207/209/207 213/215/213 208/210/208
f 184/186/184 214/216/214 207/209/207
f 214/216/214 189/191/189 215/217/215
f 213/215/213 215/217/215 216/218/216
f 49/219/49 217/220/217 218/221/218
f 219/222/219 220/223/220 217/220/217
f 217/220/217 190/192/190 221/224/221
f 218/221/218 221/224/221 222/225/222
f 223/226/223 224/227/224 220/223/220
f 225/228/225 226/229/226 224/227/224
f 224/227/224 200/202/200 193/195/193
f 220/223/220 193/195/193 190/192/190
f 222/225/222 227/230/227 228/231/228
f 221/224/221 192/194/192 227/230/227
f 227/230/227 185/187/185 212/214/212
f 228/231/228 212/214/212 210/212/210
f 229/232/229 230/233/230 157/234/157
f 231/235/231 232/236/232 229/232/229
f 233/237/233 234/238/234 232/236/232
f 232/236/232 235/239/235 230/233/230
f 236/240/236 233/237/233 231/235/231
f 216/218/216 237/241/237 236/240/236
f 215/217/215 196/198/196 237/241/237
f 237/241/237 198/200/198 233/237/233
f 234/238/234 238/242/238 235/239/235
f 198/200/198 239/243/239 234/238/234
f 197/199/197 226/229/226 239/243/239
f 239/243/239 240/244/240 238/242/238
f 241/245/241 242/246/242 243/247/243
f 244/248/244 245/249/245 241/245/241
f 246/250/246 247/251/247 245/249/245
f 245/249/245 248/252/248 242/246/242
f 249/253/249 250/254/250 251/255/251
f 252/256/252 253/257/253 249/253/249
f 253/257/253 254/258/254 246/250/246
f 253/257/253 244/248/244 250/254/250
f 255/259/255 256/260/256 257/261/257
f 258/262/258 247/251/247 256/260/256
f 256/260/256 254/258/254 259/263/259
f 257/261/257 259/263/259 252/256/252
f 260/264/260 39/265/39 36/266/36
f 261/267/261 262/268/262 260/264/260
f 263/269/263 264/270/264 262/268/262
f 262/268/262 43/271/43 39/265/39
f 265/272/265 263/269/263 261/267/261
f 266/273/266 267/274/267 265/272/265
f 268/275/268 241/245/241 267/274/267
f 267/274/267 243/247/243 263/269/263
f 264/270/264 45/276/45 43/271/43
f 243/247/243 269/277/269 264/270/264
f 242/246/242 270/278/270 269/277/269
f 269/277/269 61/279/61 45/276/45
f 230/280/230 271/281/271 157/282/157
f 235/283/235 272/284/272 230/280/230
f 273/285/273 274/286/274 272/284/272
f 272/284/272 275/287/275 271/281/271
f 238/288/238 273/285/273 235/283/235
f 240/289/240 276/290/276 238/288/238
f 277/291/277 249/253/249 276/290/276
f 276/290/276 251/255/251 273/285/273
f 275/287/275 278/292/278 279/293/279
f 251/255/251 278/292/278 274/286/274
f 250/254/250 268/275/268 278/292/278
f 278/292/278 266/273/266 279/293/279
f 51/294/51 219/295/219 49/296/49
f 51/294/51 280/297/280 281/298/281
f 281/298/281 255/259/255 282/299/282
f 219/295/219 282/299/282 223/300/223
f 56/301/56 283/302/283 280/297/280
f 59/303/59 270/278/270 283/302/283
f 283/302/283 248/252/248 258/262/258
f 280/297/280 258/262/258 255/259/255
f 223/300/223 284/304/284 225/305/225
f 282/299/282 257/261/257 284/304/284
f 284/304/284 252/256/252 277/291/277
f 225/305/225 277/291/277 240/289/240
f 285/306/285 286/307/286 287/308/287
f 288/309/288 289/310/289 285/306/285
f 290/311/290 291/312/291 289/310/289
f 289/310/289 292/313/292 286/307/286
f 293/314/293 294/315/294 295/316/295
f 296/317/296 297/318/297 293/314/293
f 298/319/298 290/311/290 297/318/297
f 297/318/297 288/309/288 294/315/294
f 299/320/299 300/321/300 301/322/301
f 302/323/302 291/312/291 300/321/300
f 300/321/300 303/324/303 298/319/298
f 301/322/301 298/319/298 296/317/296
f 304/325/304 305/326/305 143/327/143
f 306/328/306 307/329/307 304/325/304
f 308/330/308 309/331/309 307/329/307
f 307/329/307 310/332/310 305/326/305
f 311/333/311 308/330/308 306/328/306
f 312/334/312 313/335/313 311/333/311
f 314/336/314 285/306/285 313/335/313
f 313/335/313 287/308/287 308/330/308
f 309/331/309 315/337/315 310/332/310
f 287/308/287 316/338/316 309/331/309
f 286/307/286 317/339/317 316/338/316
f 316/338/316 318/340/318 315/337/315
f 319/341/319 320/342/320 22/343/22
f 321/344/321 322/345/322 319/341/319
f 323/346/323 324/347/324 322/345/322
f 322/345/322 325/348/325 320/342/320
f 326/349/326 323/346/323 321/344/321
f 327/350/327 328/351/328 326/349/326
f 329/352/329 293/314/293 328/351/328
f 328/351/328 295/316/295 323/346/323
f 324/347/324 330/353/330 325/348/325
f 295/316/295 331/354/331 324/347/324
f 294/315/294 314/336/314 331/354/331
f 330/353/330 314/336/314 312/334/312
f 203/355/203 332/356/332 333/357/333
f 334/358/334 335/359/335 332/356/332
f 332/356/332 299/320/299 336/360/336
f 333/357/333 336/360/336 337/361/337
f 338/362/338 339/363/339 335/359/335
f 340/364/340 317/339/317 339/363/339
f 339/363/339 292/313/292 302/323/302
f 335/359/335 302/323/302 299/320/299
f 337/361/337 341/365/341 342/366/342
f 336/360/336 301/322/301 341/365/341
f 341/365/341 296/317/296 329/352/329
f 342/366/342 329/352/329 327/350/327
f 343/367/343 344/368/344 345/369/345
f 346/370/346 347/371/347 344/368/344
f 344/368/344 348/372/348 349/373/349
f 345/369/345 349/373/349 350/374/350
f 351/375/351 352/376/352 353/377/353
f 354/378/354 355/379/355 351/375/351
f 355/379/355 348/372/348 347/371/347
f 355/379/355 356/380/356 352/376/352
f 357/381/357 358/382/358 359/383/359
f 350/374/350 360/384/360 357/381/357
f 360/384/360 348/372/348 361/385/361
f 360/384/360 354/378/354 358/382/358
f 22/386/22 362/387/362 20/388/20
f 363/389/363 364/390/364 362/387/362
f 362/387/362 343/367/343 365/391/365
f 20/388/20 365/391/365 23/392/23
f 366/393/366 367/394/367 364/390/364
f 368/395/368 369/396/369 367/394/367
f 367/394/367 356/380/356 346/370/346
f 364/390/364 346/370/346 343/367/343
f 23/392/23 370/397/370 28/398/28
f 365/391/365 345/369/345 370/397/370
f 370/397/370 350/374/350 371/399/371
f 28/398/28 371/399/371 29/400/29
f 82/401/82 372/402/372 83/403/83
f 88/404/88 373/405/373 82/401/82
f 374/406/374 375/407/375 373/405/373
f 373/405/373 376/408/376 372/402/372
f 93/409/93 374/406/374 88/404/88
f 93/409/93 377/410/377 378/411/378
f 377/410/377 351/375/351 378/411/378
f 378/411/378 353/377/353 374/406/374
f 375/407/375 379/412/379 376/408/376
f 353/377/353 380/413/380 375/407/375
f 352/376/352 369/396/369 380/413/380
f 380/413/380 381/414/381 379/412/379
f 38/415/38 110/416/110 36/417/36
f 42/418/42 382/419/382 38/415/38
f 383/420/383 384/421/384 382/419/382
f 382/419/382 112/422/112 110/416/110
f 48/423/48 383/420/383 42/418/42
f 29/400/29 385/424/385 48/423/48
f 371/399/371 357/381/357 385/424/385
f 385/424/385 359/383/359 383/420/383
f 384/421/384 117/425/117 112/422/112
f 359/383/359 386/426/386 384/421/384
f 358/382/358 377/410/377 386/426/386
f 386/426/386 96/427/96 117/425/117
f 387/428/387 388/429/388 389/430/389
f 390/431/390 391/432/391 388/429/388
f 388/429/388 392/433/392 393/434/393
f 389/430/389 393/434/393 394/435/394
f 395/436/395 396/437/396 397/438/397
f 398/439/398 399/440/399 395/436/395
f 400/441/400 391/432/391 399/440/399
f 399/440/399 401/442/401 396/437/396
f 402/443/402 403/444/403 404/445/404
f 394/435/394 405/446/405 402/443/402
f 405/446/405 392/433/392 400/441/400
f 405/446/405 398/439/398 403/444/403
f 83/447/83 406/448/406 81/449/81
f 407/450/407 408/451/408 406/448/406
f 406/448/406 387/428/387 409/452/409
f 81/449/81 409/452/409 84/453/84
f 410/454/410 411/455/411 408/451/408
f 412/456/412 411/455/411 413/457/413
f 411/455/411 401/442/401 390/431/390
f 408/451/408 390/431/390 387/428/387
f 84/453/84 414/458/414 89/459/89
f 409/452/409 389/430/389 414/458/414
f 414/458/414 394/435/394 415/460/415
f 89/459/89 415/460/415 90/461/90
f 142/462/142 416/463/416 143/464/143
f 148/465/148 417/466/417 142/462/142
f 418/467/418 419/468/419 417/466/417
f 417/466/417 420/469/420 416/463/416
f 153/470/153 418/467/418 148/465/148
f 156/471/156 421/472/421 153/470/153
f 422/473/422 395/436/395 421/472/421
f 421/472/421 397/438/397 418/467/418
f 419/468/419 423/474/423 420/469/420
f 397/438/397 424/475/424 419/468/419
f 396/437/396 425/476/425 424/475/424
f 424/475/424 412/456/412 423/474/423
f 99/477/99 170/478/170 97/479/97
f 103/480/103 426/481/426 99/477/99
f 427/482/427 428/483/428 426/481/426
f 426/481/426 172/484/172 170/478/170
f 109/485/109 427/482/427 103/480/103
f 90/461/90 429/486/429 109/485/109
f 415/460/415 402/443/402 429/486/429
f 429/486/429 404/445/404 427/482/427
f 428/483/428 177/487/177 172/484/172
f 404/445/404 430/488/430 428/483/428
f 403/444/403 422/473/422 430/488/430
f 430/488/430 156/471/156 177/487/177
f 431/489/431 432/490/432 433/491/433
f 434/492/434 435/493/435 432/490/432
f 432/490/432 436/494/436 437/495/437
f 433/491/433 437/495/437 438/496/438
f 439/497/439 440/498/440 441/499/441
f 442/500/442 443/501/443 439/497/439
f 444/502/444 435/493/435 443/501/443
f 443/501/443 445/503/445 440/498/440
f 446/504/446 447/505/447 448/506/448
f 438/496/438 449/507/449 446/504/446
f 437/495/437 444/502/444 449/507/449
f 449/507/449 442/500/442 447/505/447
f 143/508/143 450/509/450 141/510/141
f 305/511/305 451/512/451 450/509/450
f 450/509/450 431/489/431 452/513/452
f 141/510/141 452/513/452 144/514/144
f 310/515/310 453/516/453 451/512/451
f 315/517/315 454/518/454 453/516/453
f 453/516/453 445/503/445 434/492/434
f 451/512/451 434/492/434 431/489/431
f 144/514/144 455/519/455 149/520/149
f 452/513/452 433/491/433 455/519/455
f 455/519/455 438/496/438 456/521/456
f 149/520/149 456/521/456 150/522/150
f 203/523/203 457/524/457 334/525/334
f 208/526/208 457/524/457 202/527/202
f 458/528/458 459/529/459 457/524/457
f 457/524/457 338/530/338 334/525/334
f 213/531/213 458/528/458 208/526/208
f 216/532/216 460/533/460 213/531/213
f 461/534/461 439/497/439 460/533/460
f 460/533/460 441/499/441 458/528/458
f 459/529/459 340/535/340 338/530/338
f 441/499/441 462/536/462 459/529/459
f 440/498/440 454/518/454 462/536/462
f 462/536/462 318/537/318 340/535/340
f 159/538/159 229/539/229 157/540/157
f 163/541/163 463/542/463 159/538/159
f 464/543/464 465/544/465 463/542/463
f 463/542/463 231/545/231 229/539/229
f 169/546/169 464/543/464 163/541/163
f 150/522/150 466/547/466 169/546/169
f 456/521/456 446/504/446 466/547/466
f 466/547/466 448/506/448 464/543/464
f 465/544/465 236/548/236 231/545/231
f 448/506/448 467/549/467 465/544/465
f 447/505/447 461/534/461 467/549/467
f 467/549/467 216/532/216 236/548/236
f 468/550/468 469/551/469 470/552/470
f 471/553/471 472/554/472 469/551/469
f 469/551/469 473/555/473 474/556/474
f 470/552/470 474/556/474 475/557/475
f 476/558/476 477/559/477 478/560/478
f 479/561/479 480/562/480 476/558/476
f 481/563/481 472/554/472 480/562/480
f 480/562/480 482/564/482 477/559/477
f 483/565/483 484/566/484 485/567/485
f 475/557/475 486/568/486 483/565/483
f 486/568/486 473/555/473 481/563/481
f 484/566/484 481/563/481 479/561/479
f 333/569/333 201/570/201 203/571/203
f 333/569/333 487/572/487 488/573/488
f 488/573/488 468/550/468 489/574/489
f 201/570/201 489/574/489 204/575/204
f 337/576/337 490/577/490 487/572/487
f 342/578/342 491/579/491 490/577/490
f 490/577/490 482/564/482 471/553/471
f 487/572/487 471/553/471 468/550/468
f 204/575/204 492/580/492 209/581/209
f 489/574/489 470/552/470 492/580/492
f 492/580/492 475/557/475 493/582/493
f 209/581/209 493/582/493 210/583/210
f 21/584/21 319/585/319 22/586/22
f 27/587/27 494/588/494 21/584/21
f 495/589/495 496/590/496 494/588/494
f 494/588/494 321/591/321 319/585/319
f 32/592/32 495/589/495 27/587/27
f 35/593/35 497/594/497 32/592/32
f 498/595/498 476/558/476 497/594/497
f 497/594/497 478/560/478 495/589/495
f 496/590/496 326/596/326 321/591/321
f 478/560/478 499/597/499 496/590/496
f 477/559/477 491/579/491 499/597/499
f 499/597/499 327/598/327 326/596/326
f 218/599/218 53/600/53 49/601/49
f 222/602/222 500/603/500 218/599/218
f 501/604/501 502/605/502 500/603/500
f 500/603/500 52/606/52 53/600/53
f 228/607/228 501/604/501 222/602/222
f 210/583/210 503/608/503 228/607/228
f 493/582/493 483/565/483 503/608/503
f 503/608/503 485/567/485 501/604/501
f 52/606/52 504/609/504 57/610/57
f 485/567/485 504/609/504 502/605/502
f 504/609/504 479/561/479 498/595/498
f 57/610/57 498/595/498 35/593/35
f 505/611/505 506/612/506 507/613/507
f 508/614/508 509/615/509 505/611/505
f 510/616/510 511/617/511 509/615/509
f 509/615/509 512/618/512 506/612/506
f 513/619/513 514/620/514 515/621/515
f 516/622/516 517/623/517 514/620/514
f 514/620/514 518/624/518 510/616/510
f 515/621/515 510/616/510 508/614/508
f 519/625/519 520/626/520 521/627/521
f 512/618/512 522/628/522 519/625/519
f 511/617/511 517/623/517 522/628/522
f 522/628/522 523/629/523 520/626/520
f 111/630/111 260/631/260 36/632/36
f 116/633/116 524/634/524 111/630/111
f 525/635/525 526/636/526 524/634/524
f 524/634/524 261/637/261 260/631/260
f 119/638/119 525/635/525 116/633/116
f 121/639/121 527/640/527 119/638/119
f 528/641/528 505/611/505 527/640/527
f 527/640/527 507/613/507 525/635/525
f 526/636/526 265/642/265 261/637/261
f 507/613/507 529/643/529 526/636/526
f 506/612/506 530/644/530 529/643/529
f 265/642/265 530/644/530 266/645/266
f 97/646/97 531/647/531 100/648/100
f 171/649/171 532/650/532 531/647/531
f 531/647/531 513/619/513 533/651/533
f 100/648/100 533/651/533 104/652/104
f 176/653/176 534/654/534 532/650/532
f 179/655/179 535/656/535 534/654/534
f 534/654/534 523/629/523 516/622/516
f 532/650/532 516/622/516 513/619/513
f 104/652/104 536/657/536 106/658/106
f 533/651/533 515/621/515 536/657/536
f 536/657/536 508/614/508 528/641/528
f 106/658/106 528/641/528 121/639/121
f 271/659/271 160/660/160 157/661/157
f 275/662/275 537/663/537 271/659/271
f 538/664/538 539/665/539 537/663/537
f 537/663/537 164/666/164 160/660/160
f 279/667/279 538/664/538 275/662/275
f 266/645/266 540/668/540 279/667/279
f 530/644/530 519/625/519 540/668/540
f 540/668/540 521/627/521 538/664/538
f 539/665/539 166/669/166 164/666/164
f 521/627/521 541/670/541 539/665/539
f 520/626/520 535/656/535 541/670/541
f 541/670/541 181/671/181 166/669/166
f 542/672/542 543/673/543 544/674/544
f 545/675/545 546/676/546 542/672/542
f 546/676/546 547/677/547 548/678/548
f 543/673/543 548/678/548 549/679/549
f 550/680/550 551/681/551 552/682/552
f 553/683/553 554/684/554 551/681/551
f 551/681/551 547/677/547 555/685/555
f 552/682/552 555/685/555 545/675/545
f 556/686/556 557/687/557 558/688/558
f 549/679/549 559/689/559 556/686/556
f 548/678/548 554/684/554 559/689/559
f 559/689/559 560/690/560 557/687/557
f 416/691/416 304/692/304 143/693/143
f 420/694/420 561/695/561 416/691/416
f 562/696/562 563/697/563 561/695/561
f 304/692/304 563/697/563 306/698/306
f 423/699/423 562/696/562 420/694/420
f 412/700/412 564/701/564 423/699/423
f 565/702/565 542/672/542 564/701/564
f 564/701/564 544/674/544 562/696/562
f 306/698/306 566/703/566 311/704/311
f 544/674/544 566/703/566 563/697/563
f 543/673/543 567/705/567 566/703/566
f 311/704/311 567/705/567 312/706/312
f 83/707/83 568/708/568 407/709/407
f 372/710/372 569/711/569 568/708/568
f 568/708/568 550/680/550 570/712/570
f 407/709/407 570/712/570 410/713/410
f 376/714/376 571/715/571 569/711/569
f 379/716/379 572/717/572 571/715/571
f 571/715/571 560/690/560 553/683/553
f 569/711/569 553/683/553 550/680/550
f 570/712/570 413/718/413 410/713/410
f 570/712/570 552/682/552 573/719/573
f 573/719/573 545/675/545 565/702/565
f 413/718/413 565/702/565 412/700/412
f 320/720/320 363/721/363 22/722/22
f 325/723/325 574/724/574 320/720/320
f 575/725/575 576/726/576 574/724/574
f 574/724/574 366/727/366 363/721/363
f 330/728/330 575/725/575 325/723/325
f 312/706/312 577/729/577 330/728/330
f 567/705/567 556/686/556 577/729/577
f 577/729/577 558/688/558 575/725/575
f 576/726/576 368/730/368 366/727/366
f 558/688/558 578/731/578 576/726/576
f 557/687/557 572/717/572 578/731/578
f 578/731/578 381/732/381 368/730/368
f 1/1/1 5/5/5 2/2/2
f 4/4/4 6/6/6 5/5/5
f 6/6/6 14/14/14 7/7/7
f 5/5/5 7/7/7 8/8/8
f 9/9/9 12/12/12 10/10/10
f 12/12/12 19/19/19 13/13/13
f 10/10/10 13/13/13 14/14/14
f 11/11/11 10/10/10 6/6/6
f 15/15/15 18/18/18 16/16/16
f 8/8/8 7/7/7 18/18/18
f 18/18/18 7/7/7 14/14/14
f 18/18/18 13/13/13 19/19/19
f 20/20/20 24/24/24 21/21/21
f 23/23/23 25/25/25 24/24/24
f 25/25/25 3/3/3 26/26/26
f 24/24/24 26/26/26 27/27/27
f 28/28/28 30/30/30 25/25/25
f 29/29/29 31/31/31 30/30/30
f 31/31/31 4/4/4 1/1/1
f 30/30/30 1/1/1 3/3/3
f 26/26/26 33/33/33 32/32/32
f 3/3/3 2/2/2 33/33/33
f 2/2/2 8/8/8 34/34/34
f 33/33/33 34/34/34 35/35/35
f 36/36/36 39/39/39 37/37/37
f 39/39/39 43/43/43 40/40/40
f 37/37/37 40/40/40 9/9/9
f 38/38/38 37/37/37 41/41/41
f 43/43/43 45/45/45 44/44/44
f 45/45/45 61/61/61 46/46/46
f 44/44/44 46/46/46 19/19/19
f 40/40/40 44/44/44 12/12/12
f 42/42/42 41/41/41 47/47/47
f 41/41/41 9/9/9 11/11/11
f 47/47/47 11/11/11 4/4/4
f 48/48/48 47/47/47 31/31/31
f 49/49/49 53/53/53 50/50/50
f 52/52/52 54/54/54 50/50/50
f 54/54/54 17/17/17 55/55/55
f 50/50/50 55/55/55 56/56/56
f 57/57/57 58/58/58 54/54/54
f 35/35/35 34/34/34 58/58/58
f 34/34/34 8/8/8 15/15/15
f 58/58/58 15/15/15 17/17/17
f 55/55/55 60/60/60 59/59/59
f 17/17/17 16/16/16 60/60/60
f 16/16/16 19/19/19 46/46/46
f 60/60/60 46/46/46 61/61/61
f 62/62/62 66/66/66 63/63/63
f 65/65/65 67/67/67 66/66/66
f 67/67/67 75/75/75 68/68/68
f 66/66/66 68/68/68 69/69/69
f 70/70/70 73/73/73 71/71/71
f 73/73/73 80/80/80 74/74/74
f 71/71/71 74/74/74 75/75/75
f 72/72/72 71/71/71 67/67/67
f 76/76/76 79/79/79 77/77/77
f 69/69/69 68/68/68 79/79/79
f 68/68/68 75/75/75 74/74/74
f 79/79/79 74/74/74 80/80/80
f 81/81/81 85/85/85 82/82/82
f 84/84/84 86/86/86 85/85/85
f 86/86/86 64/64/64 87/87/87
f 85/85/85 87/87/87 88/88/88
f 89/89/89 91/91/91 86/86/86
f 90/90/90 92/92/92 91/91/91
f 92/92/92 65/65/65 62/62/62
f 91/91/91 62/62/62 64/64/64
f 87/87/87 94/94/94 93/93/93
f 64/64/64 63/63/63 94/94/94
f 63/63/63 69/69/69 95/95/95
f 94/94/94 95/95/95 96/96/96
f 97/97/97 100/100/100 98/98/98
f 100/100/100 104/104/104 101/101/101
f 98/98/98 101/101/101 70/70/70
f 99/99/99 98/98/98 102/102/102
f 104/104/104 106/106/106 105/105/105
f 106/106/106 121/122/121 107/107/107
f 105/105/105 107/107/107 80/80/80
f 101/101/101 105/105/105 73/73/73
f 103/103/103 102/102/102 108/108/108
f 102/102/102 70/70/70 72/72/72
f 108/108/108 72/72/72 65/65/65
f 109/109/109 108/108/108 92/92/92
f 110/110/110 113/114/113 111/111/111
f 112/113/112 114/115/114 113/114/113
f 114/115/114 78/78/78 115/116/115
f 113/114/113 115/116/115 116/117/116
f 117/118/117 118/119/118 114/115/114
f 96/96/96 95/95/95 118/119/118
f 95/95/95 69/69/69 76/76/76
f 118/119/118 76/76/76 78/78/78
f 115/116/115 120/121/120 119/120/119
f 78/78/78 77/77/77 120/121/120
f 77/77/77 80/80/80 107/107/107
f 120/121/120 107/107/107 121/122/121
f 122/123/122 126/127/126 123/124/123
f 125/126/125 127/128/127 126/127/126
f 127/128/127 135/136/135 128/129/128
f 126/127/126 128/129/128 129/130/129
f 130/131/130 133/134/133 131/132/131
f 133/134/133 140/141/140 134/135/134
f 131/132/131 134/135/134 135/136/135
f 132/133/132 131/132/131 127/128/127
f 136/137/136 139/140/139 137/138/137
f 129/130/129 128/129/128 139/140/139
f 139/140/139 128/129/128 135/136/135
f 139/140/139 134/135/134 140/141/140
f 141/142/141 145/146/145 142/143/142
f 144/145/144 146/147/146 145/146/145
f 146/147/146 124/125/124 147/148/147
f 145/146/145 147/148/147 148/149/148
f 149/150/149 151/152/151 146/147/146
f 150/151/150 152/153/152 151/152/151
f 152/153/152 125/126/125 122/123/122
f 151/152/151 122/123/122 124/125/124
f 147/148/147 154/155/154 153/154/153
f 124/125/124 123/124/123 154/155/154
f 123/124/123 129/130/129 155/156/155
f 154/155/154 155/156/155 156/157/156
f 157/158/157 160/161/160 158/159/158
f 160/161/160 164/165/164 161/162/161
f 158/159/158 161/162/161 130/131/130
f 159/160/159 158/159/158 162/163/162
f 164/165/164 166/167/166 165/166/165
f 166/167/166 181/183/181 167/168/167
f 165/166/165 167/168/167 140/141/140
f 161/162/161 165/166/165 133/134/133
f 163/164/163 162/163/162 168/169/168
f 162/163/162 130/131/130 132/133/132
f 168/169/168 132/133/132 125/126/125
f 169/170/169 168/169/168 152/153/152
f 170/171/170 173/175/173 171/172/171
f 172/174/172 174/176/174 173/175/173
f 174/176/174 138/139/138 175/177/175
f 173/175/173 175/177/175 176/178/176
f 177/179/177 178/180/178 174/176/174
f 177/179/177 156/157/156 155/156/155
f 178/180/178 155/156/155 129/130/129
f 178/180/178 136/137/136 138/139/138
f 175/177/175 180/182/180 179/181/179
f 138/139/138 137/138/137 180/182/180
f 137/138/137 140/141/140 167/168/167
f 180/182/180 167/168/167 181/183/181
f 182/184/182 186/188/186 183/185/183
f 185/187/185 195/197/195 186/188/186
f 186/188/186 195/197/195 187/189/187
f 186/188/186 188/190/188 189/191/189
f 190/192/190 193/195/193 191/193/191
f 193/195/193 200/202/200 194/196/194
f 191/193/191 194/196/194 187/189/187
f 192/194/192 191/193/191 195/197/195
f 196/198/196 199/201/199 197/199/197
f 189/191/189 188/190/188 199/201/199
f 188/190/188 187/189/187 194/196/194
f 199/201/199 194/196/194 200/202/200
f 201/203/201 205/207/205 202/204/202
f 204/206/204 206/208/206 205/207/205
f 206/208/206 184/186/184 207/209/207
f 205/207/205 207/209/207 208/210/208
f 209/211/209 211/213/211 206/208/206
f 210/212/210 212/214/212 211/213/211
f 212/214/212 185/187/185 182/184/182
f 211/213/211 182/184/182 184/186/184
f 207/209/207 214/216/214 213/215/213
f 184/186/184 183/185/183 214/216/214
f 214/216/214 183/185/183 189/191/189
f 213/215/213 214/216/214 215/217/215
f 49/219/49 219/222/219 217/220/217
f 219/222/219 223/226/223 220/223/220
f 217/220/217 220/223/220 190/192/190
f 218/221/218 217/220/217 221/224/221
f 223/226/223 225/228/225 224/227/224
f 225/228/225 240/244/240 226/229/226
f 224/227/224 226/229/226 200/202/200
f 220/223/220 224/227/224 193/195/193
f 222/225/222 221/224/221 227/230/227
f 221/224/221 190/192/190 192/194/192
f 227/230/227 192/194/192 185/187/185
f 228/231/228 227/230/227 212/214/212
f 229/232/229 232/236/232 230/233/230
f 231/235/231 233/237/233 232/236/232
f 233/237/233 198/200/198 234/238/234
f 232/236/232 234/238/234 235/239/235
f 236/240/236 237/241/237 233/237/233
f 216/218/216 215/217/215 237/241/237
f 215/217/215 189/191/189 196/198/196
f 237/241/237 196/198/196 198/200/198
f 234/238/234 239/243/239 238/242/238
f 198/200/198 197/199/197 239/243/239
f 197/199/197 200/202/200 226/229/226
f 239/243/239 226/229/226 240/244/240
f 241/245/241 245/249/245 242/246/242
f 244/248/244 246/250/246 245/249/245
f 246/250/246 254/258/254 247/251/247
f 245/249/245 247/251/247 248/252/248
f 249/253/249 253/257/253 250/254/250
f 252/256/252 259/263/259 253/257/253
f 253/257/253 259/263/259 254/258/254
f 253/257/253 246/250/246 244/248/244
f 255/259/255 258/262/258 256/260/256
f 258/262/258 248/252/248 247/251/247
f 256/260/256 247/251/247 254/258/254
f 257/261/257 256/260/256 259/263/259
f 260/264/260 262/268/262 39/265/39
f 261/267/261 263/269/263 262/268/262
f 263/269/263 243/247/243 264/270/264
f 262/268/262 264/270/264 43/271/43
f 265/272/265 267/274/267 263/269/263
f 266/273/266 268/275/268 267/274/267
f 268/275/268 244/248/244 241/245/241
f 267/274/267 241/245/241 243/247/243
f 264/270/264 269/277/269 45/276/45
f 243/247/243 242/246/242 269/277/269
f 242/246/242 248/252/248 270/278/270
f 269/277/269 270/278/270 61/279/61
f 230/280/230 272/284/272 271/281/271
f 235/283/235 273/285/273 272/284/272
f 273/285/273 251/255/251 274/286/274
f 272/284/272 274/286/274 275/287/275
f 238/288/238 276/290/276 273/285/273
f 240/289/240 277/291/277 276/290/276
f 277/291/277 252/256/252 249/253/249
f 276/290/276 249/253/249 251/255/251
f 275/287/275 274/286/274 278/292/278
f 251/255/251 250/254/250 278/292/278
f 250/254/250 244/248/244 268/275/268
f 278/292/278 268/275/268 266/273/266
f 51/294/51 281/298/281 219/295/219
f 51/294/51 56/301/56 280/297/280
f 281/298/281 280/297/280 255/259/255
f 219/295/219 281/298/281 282/299/282
f 56/301/56 59/303/59 283/302/283
f 59/303/59 61/279/61 270/278/270
f 283/302/283 270/278/270 248/252/248
f 280/297/280 283/302/283 258/262/258
f 223/300/223 282/299/282 284/304/284
f 282/299/282 255/259/255 257/261/257
f 284/304/284 257/261/257 252/256/252
f 225/305/225 284/304/284 277/291/277
f 285/306/285 289/310/289 286/307/286
f 288/309/288 290/311/290 289/310/289
f 290/311/290 303/324/303 291/312/291
f 289/310/289 291/312/291 292/313/292
f 293/314/293 297/318/297 294/315/294
f 296/317/296 298/319/298 297/318/297
f 298/319/298 303/324/303 290/311/290
f 297/318/297 290/311/290 288/309/288
f 299/320/299 302/323/302 300/321/300
f 302/323/302 292/313/292 291/312/291
f 300/321/300 291/312/291 303/324/303
f 301/322/301 300/321/300 298/319/298
f 304/325/304 307/329/307 305/326/305
f 306/328/306 308/330/308 307/329/307
f 308/330/308 287/308/287 309/331/309
f 307/329/307 309/331/309 310/332/310
f 311/333/311 313/335/313 308/330/308
f 312/334/312 314/336/314 313/335/313
f 314/336/314 288/309/288 285/306/285
f 313/335/313 285/306/285 287/308/287
f 309/331/309 316/338/316 315/337/315
f 287/308/287 286/307/286 316/338/316
f 286/307/286 292/313/292 317/339/317
f 316/338/316 317/339/317 318/340/318
f 319/341/319 322/345/322 320/342/320
f 321/344/321 323/346/323 322/345/322
f 323/346/323 295/316/295 324/347/324
f 322/345/322 324/347/324 325/348/325
f 326/349/326 328/351/328 323/346/323
f 327/350/327 329/352/329 328/351/328
f 329/352/329 296/317/296 293/314/293
f 328/351/328 293/314/293 295/316/295
f 324/347/324 331/354/331 330/353/330
f 295/316/295 294/315/294 331/354/331
f 294/315/294 288/309/288 314/336/314
f 330/353/330 331/354/331 314/336/314
f 203/355/203 334/358/334 332/356/332
f 334/358/334 338/362/338 335/359/335
f 332/356/332 335/359/335 299/320/299
f 333/357/333 332/356/332 336/360/336
f 338/362/338 340/364/340 339/363/339
f 340/364/340 318/340/318 317/339/317
f 339/363/339 317/339/317 292/313/292
f 335/359/335 339/363/339 302/323/302
f 337/361/337 336/360/336 341/365/341
f 336/360/336 299/320/299 301/322/301
f 341/365/341 301/322/301 296/317/296
f 342/366/342 341/365/341 329/352/329
f 343/367/343 346/370/346 344/368/344
f 346/370/346 356/380/356 347/371/347
f 344/368/344 347/371/347 348/372/348
f 345/369/345 344/368/344 349/373/349
f 351/375/351 355/379/355 352/376/352
f 354/378/354 361/385/361 355/379/355
f 355/379/355 361/385/361 348/372/348
f 355/379/355 347/371/347 356/380/356
f 357/381/357 360/384/360 358/382/358
f 350/374/350 349/373/349 360/384/360
f 360/384/360 349/373/349 348/372/348
f 360/384/360 361/385/361 354/378/354
f 22/386/22 363/389/363 362/387/362
f 363/389/363 366/393/366 364/390/364
f 362/387/362 364/390/364 343/367/343
f 20/388/20 362/387/362 365/391/365
f 366/393/366 368/395/368 367/394/367
f 368/395/368 381/414/381 369/396/369
f 367/394/367 369/396/369 356/380/356
f 364/390/364 367/394/367 346/370/346
f 23/392/23 365/391/365 370/397/370
f 365/391/365 343/367/343 345/369/345
f 370/397/370 345/369/345 350/374/350
f 28/398/28 370/397/370 371/399/371
f 82/401/82 373/405/373 372/402/372
f 88/404/88 374/406/374 373/405/373
f 374/406/374 353/377/353 375/407/375
f 373/405/373 375/407/375 376/408/376
f 93/409/93 378/411/378 374/406/374
f 93/409/93 96/427/96 377/410/377
f 377/410/377 354/378/354 351/375/351
f 378/411/378 351/375/351 353/377/353
f 375/407/375 380/413/380 379/412/379
f 353/377/353 352/376/352 380/413/380
f 352/376/352 356/380/356 369/396/369
f 380/413/380 369/396/369 381/414/381
f 38/415/38 382/419/382 110/416/110
f 42/418/42 383/420/383 382/419/382
f 383/420/383 359/383/359 384/421/384
f 382/419/382 384/421/384 112/422/112
f 48/423/48 385/424/385 383/420/383
f 29/400/29 371/399/371 385/424/385
f 371/399/371 350/374/350 357/381/357
f 385/424/385 357/381/357 359/383/359
f 384/421/384 386/426/386 117/425/117
f 359/383/359 358/382/358 386/426/386
f 358/382/358 354/378/354 377/410/377
f 386/426/386 377/410/377 96/427/96
f 387/428/387 390/431/390 388/429/388
f 390/431/390 401/442/401 391/432/391
f 388/429/388 391/432/391 392/433/392
f 389/430/389 388/429/388 393/434/393
f 395/436/395 399/440/399 396/437/396
f 398/439/398 400/441/400 399/440/399
f 400/441/400 392/433/392 391/432/391
f 399/440/399 391/432/391 401/442/401
f 402/443/402 405/446/405 403/444/403
f 394/435/394 393/434/393 405/446/405
f 405/446/405 393/434/393 392/433/392
f 405/446/405 400/441/400 398/439/398
f 83/447/83 407/450/407 406/448/406
f 407/450/407 410/454/410 408/451/408
f 406/448/406 408/451/408 387/428/387
f 81/449/81 406/448/406 409/452/409
f 410/454/410 413/457/413 411/455/411
f 412/456/412 425/476/425 411/455/411
f 411/455/411 425/476/425 401/442/401
f 408/451/408 411/455/411 390/431/390
f 84/453/84 409/452/409 414/458/414
f 409/452/409 387/428/387 389/430/389
f 414/458/414 389/430/389 394/435/394
f 89/459/89 414/458/414 415/460/415
f 142/462/142 417/466/417 416/463/416
f 148/465/148 418/467/418 417/466/417
f 418/467/418 397/438/397 419/468/419
f 417/466/417 419/468/419 420/469/420
f 153/470/153 421/472/421 418/467/418
f 156/471/156 422/473/422 421/472/421
f 422/473/422 398/439/398 395/436/395
f 421/472/421 395/436/395 397/438/397
f 419/468/419 424/475/424 423/474/423
f 397/438/397 396/437/396 424/475/424
f 396/437/396 401/442/401 425/476/425
f 424/475/424 425/476/425 412/456/412
f 99/477/99 426/481/426 170/478/170
f 103/480/103 427/482/427 426/481/426
f 427/482/427 404/445/404 428/483/428
f 426/481/426 428/483/428 172/484/172
f 109/485/109 429/486/429 427/482/427
f 90/461/90 415/460/415 429/486/429
f 415/460/415 394/435/394 402/443/402
f 429/486/429 402/443/402 404/445/404
f 428/483/428 430/488/430 177/487/177
f 404/445/404 403/444/403 430/488/430
f 403/444/403 398/439/398 422/473/422
f 430/488/430 422/473/422 156/471/156
f 431/489/431 434/492/434 432/490/432
f 434/492/434 445/503/445 435/493/435
f 432/490/432 435/493/435 436/494/436
f 433/491/433 432/490/432 437/495/437
f 439/497/439 443/501/443 440/498/440
f 442/500/442 444/502/444 443/501/443
f 444/502/444 436/494/436 435/493/435
f 443/501/443 435/493/435 445/503/445
f 446/504/446 449/507/449 447/505/447
f 438/496/438 437/495/437 449/507/449
f 437/495/437 436/494/436 444/502/444
f 449/507/449 444/502/444 442/500/442
f 143/508/143 305/511/305 450/509/450
f 305/511/305 310/515/310 451/512/451
f 450/509/450 451/512/451 431/489/431
f 141/510/141 450/509/450 452/513/452
f 310/515/310 315/517/315 453/516/453
f 315/517/315 318/537/318 454/518/454
f 453/516/453 454/518/454 445/503/445
f 451/512/451 453/516/453 434/492/434
f 144/514/144 452/513/452 455/519/455
f 452/513/452 431/489/431 433/491/433
f 455/519/455 433/491/433 438/496/438
f 149/520/149 455/519/455 456/521/456
f 203/523/203 202/527/202 457/524/457
f 208/526/208 458/528/458 457/524/457
f 458/528/458 441/499/441 459/529/459
f 457/524/457 459/529/459 338/530/338
f 213/531/213 460/533/460 458/528/458
f 216/532/216 461/534/461 460/533/460
f 461/534/461 442/500/442 439/497/439
f 460/533/460 439/497/439 441/499/441
f 459/529/459 462/536/462 340/535/340
f 441/499/441 440/498/440 462/536/462
f 440/498/440 445/503/445 454/518/454
f 462/536/462 454/518/454 318/537/318
f 159/538/159 463/542/463 229/539/229
f 163/541/163 464/543/464 463/542/463
f 464/543/464 448/506/448 465/544/465
f 463/542/463 465/544/465 231/545/231
f 169/546/169 466/547/466 464/543/464
f 150/522/150 456/521/456 466/547/466
f 456/521/456 438/496/438 446/504/446
f 466/547/466 446/504/446 448/506/448
f 465/544/465 467/549/467 236/548/236
f 448/506/448 447/505/447 467/549/467
f 447/505/447 442/500/442 461/534/461
f 467/549/467 461/534/461 216/532/216
f 468/550/468 471/553/471 469/551/469
f 471/553/471 482/564/482 472/554/472
f 469/551/469 472/554/472 473/555/473
f 470/552/470 469/551/469 474/556/474
f 476/558/476 480/562/480 477/559/477
f 479/561/479 481/563/481 480/562/480
f 481/563/481 473/555/473 472/554/472
f 480/562/480 472/554/472 482/564/482
f 483/565/483 486/568/486 484/566/484
f 475/557/475 474/556/474 486/568/486
f 486/568/486 474/556/474 473/555/473
f 484/566/484 486/568/486 481/563/481
f 333/569/333 488/573/488 201/570/201
f 333/569/333 337/576/337 487/572/487
f 488/573/488 487/572/487 468/550/468
f 201/570/201 488/573/488 489/574/489
f 337/576/337 342/578/342 490/577/490
f 342/578/342 327/598/327 491/579/491
f 490/577/490 491/579/491 482/564/482
f 487/572/487 490/577/490 471/553/471
f 204/575/204 489/574/489 492/580/492
f 489/574/489 468/550/468 470/552/470
f 492/580/492 470/552/470 475/557/475
f 209/581/209 492/580/492 493/582/493
f 21/584/21 494/588/494 319/585/319
f 27/587/27 495/589/495 494/588/494
f 495/589/495 478/560/478 496/590/496
f 494/588/494 496/590/496 321/591/321
f 32/592/32 497/594/497 495/589/495
f 35/593/35 498/595/498 497/594/497
f 498/595/498 479/561/479 476/558/476
f 497/594/497 476/558/476 478/560/478
f 496/590/496 499/597/499 326/596/326
f 478/560/478 477/559/477 499/597/499
f 477/559/477 482/564/482 491/579/491
f 499/597/499 491/579/491 327/598/327
f 218/599/218 500/603/500 53/600/53
f 222/602/222 501/604/501 500/603/500
f 501/604/501 485/567/485 502/605/502
f 500/603/500 502/605/502 52/606/52
f 228/607/228 503/608/503 501/604/501
f 210/583/210 493/582/493 503/608/503
f 493/582/493 475/557/475 483/565/483
f 503/608/503 483/565/483 485/567/485
f 52/606/52 502/605/502 504/609/504
f 485/567/485 484/566/484 504/609/504
f 504/609/504 484/566/484 479/561/479
f 57/610/57 504/609/504 498/595/498
f 505/611/505 509/615/509 506/612/506
f 508/614/508 510/616/510 509/615/509
f 510/616/510 518/624/518 511/617/511
f 509/615/509 511/617/511 512/618/512
f 513/619/513 516/622/516 514/620/514
f 516/622/516 523/629/523 517/623/517
f 514/620/514 517/623/517 518/624/518
f 515/621/515 514/620/514 510/616/510
f 519/625/519 522/628/522 520/626/520
f 512/618/512 511/617/511 522/628/522
f 511/617/511 518/624/518 517/623/517
f 522/628/522 517/623/517 523/629/523
f 111/630/111 524/634/524 260/631/260
f 116/633/116 525/635/525 524/634/524
f 525/635/525 507/613/507 526/636/526
f 524/634/524 526/636/526 261/637/261
f 119/638/119 527/640/527 525/635/525
f 121/639/121 528/641/528 527/640/527
f 528/641/528 508/614/508 505/611/505
f 527/640/527 505/611/505 507/613/507
f 526/636/526 529/643/529 265/642/265
f 507/613/507 506/612/506 529/643/529
f 506/612/506 512/618/512 530/644/530
f 265/642/265 529/643/529 530/644/530
f 97/646/97 171/649/171 531/647/531
f 171/649/171 176/653/176 532/650/532
f 531/647/531 532/650/532 513/619/513
f 100/648/100 531/647/531 533/651/533
f 176/653/176 179/655/179 534/654/534
f 179/655/179 181/671/181 535/656/535
f 534/654/534 535/656/535 523/629/523
f 532/650/532 534/654/534 516/622/516
f 104/652/104 533/651/533 536/657/536
f 533/651/533 513/619/513 515/621/515
f 536/657/536 515/621/515 508/614/508
f 106/658/106 536/657/536 528/641/528
f 271/659/271 537/663/537 160/660/160
f 275/662/275 538/664/538 537/663/537
f 538/664/538 521/627/521 539/665/539
f 537/663/537 539/665/539 164/666/164
f 279/667/279 540/668/540 538/664/538
f 266/645/266 530/644/530 540/668/540
f 530/644/530 512/618/512 519/625/519
f 540/668/540 519/625/519 521/627/521
f 539/665/539 541/670/541 166/669/166
f 521/627/521 520/626/520 541/670/541
f 520/626/520 523/629/523 535/656/535
f 541/670/541 535/656/535 181/671/181
f 542/672/542 546/676/546 543/673/543
f 545/675/545 555/685/555 546/676/546
f 546/676/546 555/685/555 547/677/547
f 543/673/543 546/676/546 548/678/548
f 550/680/550 553/683/553 551/681/551
f 553/683/553 560/690/560 554/684/554
f 551/681/551 554/684/554 547/677/547
f 552/682/552 551/681/551 555/685/555
f 556/686/556 559/689/559 557/687/557
f 549/679/549 548/678/548 559/689/559
f 548/678/548 547/677/547 554/684/554
f 559/689/559 554/684/554 560/690/560
f 416/691/416 561/695/561 304/692/304
f 420/694/420 562/696/562 561/695/561
f 562/696/562 544/674/544 563/697/563
f 304/692/304 561/695/561 563/697/563
f 423/699/423 564/701/564 562/696/562
f 412/700/412 565/702/565 564/701/564
f 565/702/565 545/675/545 542/672/542
f 564/701/564 542/672/542 544/674/544
f 306/698/306 563/697/563 566/703/566
f 544/674/544 543/673/543 566/703/566
f 543/673/543 549/679/549 567/705/567
f 311/704/311 566/703/566 567/705/567
f 83/707/83 372/710/372 568/708/568
f 372/710/372 376/714/376 569/711/569
f 568/708/568 569/711/569 550/680/550
f 407/709/407 568/708/568 570/712/570
f 376/714/376 379/716/379 571/715/571
f 379/716/379 381/732/381 572/717/572
f 571/715/571 572/717/572 560/690/560
f 569/711/569 571/715/571 553/683/553
f 570/712/570 573/719/573 413/718/413
f 570/712/570 550/680/550 552/682/552
f 573/719/573 552/682/552 545/675/545
f 413/718/413 573/719/573 565/702/565
f 320/720/320 574/724/574 363/721/363
f 325/723/325 575/725/575 574/724/574
f 575/725/575 558/688/558 576/726/576
f 574/724/574 576/726/576 366/727/366
f 330/728/330 577/729/577 575/725/575
f 312/706/312 567/705/567 577/729/577
f 567/705/567 549/679/549 556/686/556
f 577/729/577 556/686/556 558/688/558
f 576/726/576 578/731/578 368/730/368
f 558/688/558 557/687/557 578/731/578
f 557/687/557 560/690/560 572/717/572
f 578/731/578 572/717/572 381/732/381
