# Blender v2.92.0 OBJ File: ''
# www.blender.org
mtllib AST_2.mtl
o AST_02
v 0.077470 -0.402376 0.041660
v 0.145398 -0.470266 0.029132
v 0.119685 -0.424082 0.085068
v 0.100506 -0.465308 -0.011661
v 0.157110 -0.533735 -0.008720
v 0.180467 -0.533808 0.031947
v 0.176626 -0.496279 0.071739
v 0.167566 -0.448884 0.124644
v 0.285834 -0.565765 -0.136838
v 0.216695 -0.565708 -0.036616
v 0.212207 -0.523038 -0.095343
v 0.308257 -0.577246 0.031071
v 0.302174 -0.605041 -0.057749
v 0.131660 -0.518488 -0.063978
v 0.280346 -0.496460 0.185579
v 0.212954 -0.549014 0.109002
v 0.292786 -0.567715 0.125552
v 0.207036 -0.491207 0.168862
v 0.235685 -0.546408 0.028332
v -0.051939 -0.283574 0.004778
v 0.008238 -0.203515 0.096493
v -0.099637 -0.163680 0.057181
v 0.024453 -0.331788 -0.063270
v 0.001635 -0.304318 0.052765
v 0.028865 -0.387236 -0.003592
v 0.042183 -0.345966 0.111199
v 0.061975 -0.255566 0.154657
v 0.044203 -0.426841 -0.104471
v 0.112338 -0.445085 -0.155775
v 0.066837 -0.446975 -0.064202
v 0.109415 -0.365766 0.143736
v 0.116368 -0.296639 0.197259
v 0.138565 -0.409821 0.193336
v 0.144586 -0.341959 0.250210
v 0.429467 -0.429135 -0.264609
v 0.291878 -0.462203 -0.332688
v 0.333314 -0.368526 -0.377902
v 0.398549 -0.552341 -0.172693
v 0.358344 -0.509671 -0.266652
v 0.263267 -0.507070 -0.197817
v 0.221251 -0.520813 -0.269440
v 0.497795 -0.485289 -0.172651
v 0.416887 -0.576519 -0.068875
v 0.503140 -0.518235 0.048364
v 0.512003 -0.509735 -0.060160
v 0.150698 -0.503374 -0.201195
v 0.182385 -0.511215 -0.155221
v 0.141663 -0.462348 -0.109962
v 0.380071 -0.397552 0.327977
v 0.334361 -0.446815 0.264720
v 0.403772 -0.420823 0.274093
v 0.318166 -0.399925 0.325839
v 0.269626 -0.438744 0.241558
v 0.357522 -0.496069 0.204429
v 0.442211 -0.474821 0.228605
v 0.203909 -0.365995 0.280331
v 0.253132 -0.400200 0.322006
v 0.187245 -0.452509 0.243023
v 0.471822 -0.499097 0.144032
v 0.387019 -0.550924 0.134013
v 0.420156 -0.601925 0.042059
v -0.107098 -0.381381 -0.201926
v -0.016047 -0.411377 -0.182754
v -0.072912 -0.380029 -0.143555
v -0.103840 -0.445932 -0.256761
v -0.047786 -0.400230 -0.237523
v -0.056010 -0.452453 -0.272689
v -0.022854 -0.466008 -0.242483
v 0.031453 -0.429407 -0.236426
v -0.129113 -0.458004 -0.352620
v -0.155603 -0.396270 -0.306330
v -0.178716 -0.411303 -0.346532
v -0.054098 -0.465804 -0.308877
v -0.096580 -0.418464 -0.316936
v -0.132564 -0.383677 -0.259065
v 0.092956 -0.505425 -0.328937
v 0.004262 -0.481086 -0.290973
v 0.013954 -0.538196 -0.346520
v 0.059122 -0.498544 -0.257145
v -0.062678 -0.493487 -0.356694
v -0.157145 -0.212443 -0.049318
v -0.185756 -0.244837 -0.122332
v -0.104632 -0.310580 -0.049168
v -0.140084 -0.331345 -0.109944
v -0.021885 -0.344161 -0.111623
v -0.219761 -0.281167 -0.178679
v -0.183276 -0.340428 -0.249394
v -0.172499 -0.349071 -0.175020
v 0.025081 -0.405596 -0.146654
v 0.079974 -0.427152 -0.198540
v -0.293089 -0.341721 -0.405912
v -0.229594 -0.354894 -0.382157
v -0.291613 -0.345437 -0.370555
v -0.212772 -0.399584 -0.435631
v -0.270031 -0.388153 -0.418860
v -0.193653 -0.409167 -0.390744
v -0.226752 -0.369049 -0.340330
v -0.266121 -0.311919 -0.341639
v -0.154673 -0.426967 -0.457787
v -0.084293 -0.461857 -0.486807
v -0.145675 -0.462834 -0.406774
v -0.056891 -0.459124 -0.413090
v -0.260182 -0.315465 -0.294928
v -0.204807 -0.353395 -0.300586
v -0.262179 -0.325621 -0.220665
v 0.193053 -0.396309 -0.418302
v 0.204262 -0.468920 -0.379792
v 0.161590 -0.487430 -0.300662
v 0.112195 -0.479679 -0.404907
v 0.103069 -0.426946 -0.463292
v 0.112448 -0.485942 -0.235122
v 0.024780 -0.534384 -0.440655
v 0.013733 -0.458176 -0.495065
v -0.267922 -0.108154 -0.188417
v -0.348833 -0.112790 -0.229874
v -0.307595 -0.157494 -0.213821
v -0.372893 -0.035337 -0.226733
v -0.315901 -0.064449 -0.213359
v -0.405317 -0.118128 -0.257133
v -0.370352 -0.150019 -0.265226
v -0.330353 -0.197218 -0.261099
v -0.452548 0.019827 -0.319512
v -0.428397 -0.060491 -0.284715
v -0.407132 -0.003121 -0.276357
v -0.473079 -0.050969 -0.331293
v -0.427887 -0.119496 -0.294749
v -0.391429 -0.080892 -0.247634
v -0.413397 -0.267844 -0.319983
v -0.406891 -0.176388 -0.292528
v -0.422474 -0.190029 -0.345895
v -0.386015 -0.239925 -0.270924
v -0.469234 -0.125195 -0.339068
v -0.182451 -0.074337 -0.029026
v -0.257048 -0.023474 -0.085068
v -0.196185 -0.123065 -0.096521
v -0.245149 -0.058233 -0.144265
v -0.240195 -0.171676 -0.142020
v -0.295238 0.029146 -0.132866
v -0.345559 0.023201 -0.215381
v -0.284895 -0.008152 -0.188429
v -0.271024 -0.217139 -0.189055
v -0.302317 -0.257742 -0.233205
v -0.403315 0.149450 -0.448021
v -0.467539 0.194080 -0.331082
v -0.385155 0.288874 -0.421250
v -0.483373 0.047557 -0.398862
v -0.468999 0.132283 -0.371727
v -0.452575 0.084351 -0.290851
v -0.450196 0.139885 -0.251430
v -0.418336 0.049621 -0.474123
v -0.486569 -0.039998 -0.413620
v -0.435784 -0.042819 -0.493794
v -0.425872 -0.122455 -0.411894
v -0.417878 0.090861 -0.198081
v -0.398752 0.054261 -0.248122
v -0.358997 0.057624 -0.163157
v -0.349751 -0.317888 -0.372167
v -0.336301 -0.328849 -0.423417
v -0.324096 -0.278175 -0.337928
v -0.403138 -0.271074 -0.384631
v -0.391167 -0.293869 -0.452655
v -0.338230 -0.301241 -0.267771
v -0.445137 -0.207700 -0.402374
v -0.441650 -0.230451 -0.488604
v -0.441433 -0.136203 -0.496905
v -0.304488 0.058584 0.025158
v -0.389646 0.108870 0.019963
v -0.355700 0.086003 -0.025243
v -0.350612 0.084779 0.073300
v -0.432751 0.123157 0.056190
v -0.450947 0.137167 0.017514
v -0.438437 0.115989 -0.018204
v -0.405628 0.111200 -0.063754
v -0.509860 0.165699 0.166207
v -0.471885 0.161017 0.077022
v -0.464392 0.120247 0.143687
v -0.527682 0.184268 0.086575
v -0.497676 0.139746 0.014728
v -0.392315 0.122772 0.113791
v -0.456739 0.140512 -0.099513
v -0.543686 0.165191 -0.063468
v -0.517501 0.166378 -0.133756
v -0.486561 0.135957 -0.043551
v -0.539129 0.184734 0.009862
v -0.164394 -0.079339 0.117994
v -0.223860 -0.030941 0.167651
v -0.231602 -0.040374 0.033715
v -0.260601 0.019811 0.086258
v -0.253772 0.037235 -0.030703
v -0.318846 0.042959 0.135908
v -0.316804 0.065120 0.258210
v -0.256511 0.039412 0.209382
v -0.321082 0.060941 -0.078014
v -0.377994 0.089876 -0.113831
v -0.456711 0.321112 0.364109
v -0.501309 0.210739 0.266263
v -0.422645 0.236179 0.336247
v -0.513177 0.368647 0.293669
v -0.554608 0.214574 0.183294
v -0.453361 0.170858 0.237004
v -0.393502 0.171608 0.316821
v -0.572533 0.405088 0.208391
v -0.565705 0.234415 0.091468
v -0.595856 0.420768 0.099763
v -0.574712 0.239316 0.004335
v -0.422353 0.111911 0.218360
v -0.344559 0.135395 0.276674
v -0.381701 0.057864 0.183185
v -0.478588 0.352584 -0.345535
v -0.509416 0.220129 -0.264903
v -0.473120 0.173137 -0.196194
v -0.550862 0.229781 -0.174988
v -0.552764 0.393840 -0.239493
v -0.435627 0.122646 -0.150937
v -0.560948 0.397599 -0.115856
v -0.573416 0.234668 -0.083347
v -0.587195 0.416297 -0.009536
v -0.091524 0.007809 0.313198
v -0.084341 0.063450 0.398151
v -0.144968 0.037828 0.352984
v -0.035329 0.047091 0.361085
v -0.035785 0.096766 0.441288
v -0.082234 0.118930 0.451309
v -0.128590 0.104405 0.424151
v -0.195517 0.073795 0.391480
v 0.090697 0.227267 0.469801
v -0.009237 0.161356 0.469493
v 0.048799 0.149643 0.436784
v -0.081554 0.249601 0.519974
v 0.014830 0.245470 0.507492
v 0.008622 0.104091 0.389710
v -0.261111 0.204399 0.451297
v -0.157045 0.155259 0.460343
v -0.167604 0.239846 0.466703
v -0.211749 0.155848 0.390149
v -0.081354 0.171716 0.473564
v -0.051149 -0.122166 0.193292
v 0.010478 -0.059131 0.259324
v -0.105047 -0.072868 0.213786
v -0.163768 -0.043557 0.264166
v 0.013295 0.020379 0.333963
v -0.038226 -0.011060 0.267487
v 0.105520 0.041200 0.359364
v 0.065769 0.007753 0.295413
v 0.059776 0.069542 0.377593
v -0.206367 0.019828 0.294286
v -0.247953 0.075592 0.323090
v 0.215178 0.360351 0.331864
v 0.291666 0.232366 0.388157
v 0.305010 0.253827 0.262926
v 0.124368 0.333752 0.448540
v 0.205054 0.285347 0.396580
v 0.154616 0.200381 0.423361
v 0.218918 0.155705 0.438074
v 0.099507 0.393713 0.356301
v 0.023154 0.357669 0.476042
v 0.018797 0.458885 0.420295
v -0.084180 0.362877 0.503691
v 0.155597 0.097309 0.383884
v 0.105689 0.122250 0.418371
v -0.350914 0.269942 0.399994
v -0.377993 0.372482 0.389121
v -0.318077 0.193663 0.375030
v -0.280868 0.304151 0.454421
v -0.291380 0.404825 0.403733
v -0.285956 0.132355 0.350687
v -0.198711 0.342414 0.512779
v -0.201577 0.440736 0.432178
v -0.094846 0.468104 0.443915
v 0.115434 -0.128245 0.263655
v 0.175178 -0.121982 0.335400
v 0.144810 -0.080005 0.313859
v 0.186410 -0.211518 0.332574
v 0.131425 -0.175646 0.312424
v 0.224237 -0.116830 0.375623
v 0.192450 -0.082889 0.381997
v 0.181797 -0.037176 0.353314
v 0.268973 -0.275088 0.431069
v 0.230177 -0.180370 0.414817
v 0.215098 -0.245480 0.384645
v 0.298392 -0.190209 0.423591
v 0.251028 -0.115858 0.410121
v 0.208545 -0.157460 0.359818
v 0.285252 0.029309 0.393541
v 0.250703 -0.057954 0.391429
v 0.300208 -0.036907 0.443019
v 0.223835 -0.001276 0.389680
v 0.305569 -0.114215 0.447503
v 0.046871 -0.125120 0.154666
v 0.072104 -0.191632 0.225181
v 0.063485 -0.090092 0.252291
v 0.122718 -0.232312 0.256735
v 0.101315 -0.042098 0.311169
v 0.143867 0.004390 0.354467
v 0.330605 -0.334087 0.366075
v 0.404594 -0.349473 0.351320
v 0.352164 -0.279401 0.417656
v 0.262134 -0.330000 0.367190
v 0.447984 -0.210389 0.388685
v 0.444342 -0.297947 0.400580
v 0.458304 -0.125764 0.388006
v 0.375561 -0.201787 0.441907
v 0.206196 -0.306123 0.338288
v 0.157961 -0.273537 0.302392
v 0.318304 0.137543 0.365376
v 0.379622 0.141651 0.309988
v 0.358700 0.055753 0.396566
v 0.410816 0.044970 0.337183
v 0.255810 0.100090 0.430993
v 0.187326 0.046563 0.402771
v 0.385936 -0.024468 0.434177
v 0.440460 -0.040983 0.366660
v 0.390784 -0.114841 0.450200
v 0.489721 0.074764 -0.032052
v 0.463749 0.174898 -0.055606
v 0.437739 0.142812 0.008552
v 0.533422 0.006303 -0.091335
v 0.480773 0.103941 -0.094193
v 0.511115 0.045069 -0.140420
v 0.504285 0.130235 -0.153260
v 0.466225 0.191962 -0.131168
v 0.494769 -0.113569 -0.262060
v 0.519316 -0.003624 -0.213139
v 0.536954 -0.059058 -0.178598
v 0.481334 0.035531 -0.307534
v 0.481380 -0.039489 -0.285964
v 0.530663 0.081864 -0.174947
v 0.438114 0.181972 -0.280190
v 0.480581 0.126597 -0.225108
v 0.468269 0.110634 -0.304253
v 0.458822 0.194233 -0.209950
v 0.516674 0.060213 -0.236623
v 0.396209 0.151348 0.193497
v 0.359428 0.295739 0.160114
v 0.443960 0.070009 0.130737
v 0.418435 0.200160 0.130633
v 0.418513 0.105937 0.070359
v 0.434293 0.230750 0.054066
v 0.396095 0.325742 0.074882
v 0.480994 0.036745 0.019243
v 0.485842 -0.086785 -0.010407
v 0.474853 -0.005781 0.064211
v 0.467929 -0.043649 -0.060884
v 0.437604 0.251557 -0.027651
v 0.369094 0.312927 -0.025390
v 0.430151 0.259538 -0.115234
v 0.395180 0.334083 -0.108235
v 0.338300 -0.247918 -0.377741
v 0.454198 -0.309306 -0.283344
v 0.351309 -0.158109 -0.391153
v 0.441103 -0.234784 -0.322224
v 0.444738 -0.150634 -0.346495
v 0.527246 -0.184442 -0.239689
v 0.527716 -0.240852 -0.191517
v 0.365125 -0.074119 -0.405666
v 0.406346 0.013208 -0.343211
v 0.434401 -0.064377 -0.354966
v 0.539132 -0.110967 -0.136977
v 0.537984 -0.158303 -0.093502
v 0.335285 0.273026 -0.374687
v 0.395280 0.236070 -0.343142
v 0.335717 0.219978 -0.375286
v 0.361994 0.298018 -0.338187
v 0.434649 0.261562 -0.282002
v 0.403980 0.164545 -0.345901
v 0.339660 0.153358 -0.379745
v 0.376087 0.318333 -0.270462
v 0.437819 0.267108 -0.199085
v 0.390294 0.330255 -0.194787
v 0.420804 0.092344 -0.359155
v 0.351454 0.082266 -0.391733
v 0.349088 0.005717 -0.388942
v 0.123644 -0.059642 -0.489259
v 0.222709 -0.041677 -0.477243
v 0.192929 -0.104542 -0.456428
v 0.055335 0.001032 -0.514292
v 0.157535 -0.008492 -0.507875
v 0.094555 0.044535 -0.504227
v 0.180364 0.049743 -0.524530
v 0.247042 0.028401 -0.502129
v 0.010980 0.192870 -0.566322
v -0.006200 0.071434 -0.577054
v -0.069673 0.163134 -0.525416
v 0.092771 0.204209 -0.542885
v 0.053816 0.104349 -0.576096
v 0.108772 0.126674 -0.518712
v 0.242358 0.182287 -0.482696
v 0.185647 0.122557 -0.530561
v 0.163181 0.193581 -0.488410
v 0.253204 0.107487 -0.501918
v 0.124197 0.076275 -0.494766
v 0.211913 -0.287646 -0.447133
v 0.160568 -0.168146 -0.456267
v 0.247094 -0.219147 -0.433613
v 0.270335 -0.139583 -0.426903
v 0.119458 -0.222149 -0.460769
v 0.083275 -0.108357 -0.472720
v -0.037286 -0.087162 -0.519649
v 0.033295 -0.157575 -0.463653
v 0.015003 -0.046222 -0.533727
v 0.299917 -0.068278 -0.461726
v 0.293850 0.015454 -0.435210
v -0.232045 0.323314 -0.427106
v -0.274045 0.172492 -0.483273
v -0.111860 0.261522 -0.508687
v -0.202215 0.227418 -0.500896
v -0.144038 0.136240 -0.572236
v -0.206547 0.093215 -0.579585
v -0.035701 0.387307 -0.493074
v -0.147404 0.382176 -0.488980
v 0.065006 0.359109 -0.456242
v -0.020140 0.285762 -0.533465
v 0.073754 0.286550 -0.515389
v -0.117474 -0.004343 -0.554211
v -0.066484 0.037749 -0.541856
v 0.275622 0.226388 -0.404044
v 0.297363 0.298786 -0.400492
v 0.311353 0.167556 -0.450652
v 0.227256 0.253728 -0.449663
v 0.236105 0.327985 -0.429444
v 0.317169 0.092386 -0.459307
v 0.165279 0.281387 -0.505446
v 0.160896 0.356794 -0.460607
v -0.011751 0.504644 -0.188246
v 0.007280 0.506503 -0.316170
v -0.070227 0.476434 -0.278875
v 0.103858 0.512127 -0.149791
v 0.048958 0.530988 -0.228750
v 0.148542 0.530085 -0.186953
v 0.125556 0.527222 -0.256152
v 0.090114 0.459970 -0.316150
v 0.263288 0.465436 -0.052911
v 0.139486 0.488093 -0.036870
v 0.222753 0.444124 0.016786
v 0.273301 0.451460 -0.137043
v 0.177339 0.490574 -0.094813
v 0.057880 0.510185 -0.106289
v 0.264195 0.426068 -0.305684
v 0.212323 0.501951 -0.249523
v 0.265110 0.430649 -0.220705
v 0.190360 0.470319 -0.329713
v 0.217187 0.520008 -0.162956
v -0.284548 0.427956 -0.312172
v -0.205532 0.460514 -0.196286
v -0.212655 0.426780 -0.346853
v -0.145315 0.470714 -0.241823
v -0.126152 0.453276 -0.386110
v -0.121961 0.487030 -0.103383
v -0.037029 0.535657 -0.017089
v -0.073340 0.510301 -0.147897
v 0.011658 0.516439 -0.060620
v -0.026951 0.470854 -0.418878
v 0.076373 0.441001 -0.408946
v 0.233573 0.386834 0.210526
v 0.281921 0.385351 0.139303
v 0.297449 0.378198 0.051646
v 0.192148 0.452244 0.086377
v 0.160464 0.483863 0.148685
v 0.317800 0.385452 -0.032265
v 0.344876 0.404202 -0.116341
v 0.093117 0.476467 0.015598
v 0.054929 0.507800 0.068315
v 0.320570 0.354337 -0.359806
v 0.247047 0.386536 -0.374750
v 0.340193 0.389510 -0.290676
v 0.170429 0.420603 -0.400100
v 0.331429 0.385212 -0.203129
v 0.487851 -0.114011 0.238132
v 0.517580 -0.101797 0.147575
v 0.461509 -0.053473 0.212080
v 0.504168 -0.181584 0.255779
v 0.491377 -0.161802 0.175283
v 0.509761 -0.213914 0.195815
v 0.536764 -0.205777 0.119084
v 0.543356 -0.164006 0.078515
v 0.501981 -0.325068 0.245503
v 0.521473 -0.276210 0.192508
v 0.522258 -0.252382 0.260372
v 0.548972 -0.348882 0.181825
v 0.548710 -0.283476 0.129956
v 0.497218 -0.240805 0.143445
v 0.558873 -0.235786 0.008889
v 0.604354 -0.341326 0.017715
v 0.544602 -0.315800 -0.057710
v 0.541741 -0.270658 0.067249
v 0.571308 -0.354678 0.102183
v 0.416387 0.082389 0.240694
v 0.452220 0.006636 0.275792
v 0.449059 0.012577 0.175737
v 0.481493 -0.069754 0.300913
v 0.491624 -0.150210 0.317003
v 0.497420 -0.049263 0.107210
v 0.518901 -0.123974 0.035283
v 0.454395 -0.367678 0.291898
v 0.506054 -0.410919 0.244103
v 0.498447 -0.310036 0.324250
v 0.532989 -0.429847 0.163772
v 0.520160 -0.420619 0.065443
v 0.481097 -0.228689 0.316163
v 0.497794 -0.359904 -0.212716
v 0.543012 -0.282154 -0.132055
v 0.553609 -0.399162 -0.129067
v 0.520728 -0.204933 -0.043159
v 0.558910 -0.422575 -0.027562
v -0.055169 -0.334635 -0.566451
v -0.047268 -0.236306 -0.555782
v 0.019694 -0.301145 -0.545626
v -0.133696 -0.347988 -0.556968
v -0.107430 -0.268050 -0.560374
v -0.165119 -0.288693 -0.572981
v -0.157498 -0.208847 -0.591021
v -0.111125 -0.168487 -0.588315
v -0.268633 -0.319187 -0.515994
v -0.232568 -0.284250 -0.566769
v -0.201487 -0.331542 -0.525478
v -0.299032 -0.263566 -0.558268
v -0.243595 -0.220010 -0.597075
v -0.189653 -0.242577 -0.595108
v -0.195879 -0.101463 -0.592606
v -0.304573 -0.104241 -0.613838
v -0.272434 -0.042719 -0.554157
v -0.226800 -0.155362 -0.594590
v -0.306840 -0.184350 -0.574874
v 0.153236 -0.333849 -0.490755
v 0.060490 -0.363955 -0.488956
v 0.075704 -0.265408 -0.504132
v -0.012941 -0.401417 -0.550267
v -0.098050 -0.382469 -0.497021
v -0.004705 -0.201611 -0.512476
v -0.082158 -0.130192 -0.535990
v -0.301962 -0.361220 -0.465199
v -0.328143 -0.299778 -0.492424
v -0.244951 -0.381180 -0.487996
v -0.357935 -0.233739 -0.524723
v -0.366311 -0.153973 -0.540629
v -0.170236 -0.373559 -0.486614
v -0.318184 0.098166 -0.501886
v -0.245115 0.029321 -0.560826
v -0.351622 0.020409 -0.541394
v -0.161958 -0.052096 -0.564018
v -0.367497 -0.067472 -0.553558
v -0.320866 0.506305 -0.008482
v -0.210945 0.494053 -0.003019
v -0.293254 0.502327 -0.079365
v -0.336221 0.513365 0.066084
v -0.244795 0.510979 0.047290
v -0.263504 0.518836 0.106309
v -0.171231 0.499992 0.109495
v -0.129713 0.508221 0.069564
v -0.326813 0.511781 0.238300
v -0.260545 0.524973 0.180054
v -0.339539 0.536829 0.148380
v -0.244733 0.550521 0.262082
v -0.184465 0.550579 0.188428
v -0.204410 0.499423 0.138069
v -0.051301 0.549120 0.145146
v -0.057755 0.567057 0.256876
v 0.013251 0.505011 0.224119
v -0.114215 0.549442 0.174332
v -0.151237 0.551700 0.268199
v -0.333350 0.463592 -0.248354
v -0.368278 0.441503 -0.143924
v -0.255872 0.493190 -0.145517
v -0.400156 0.480927 -0.062232
v -0.418360 0.510110 0.023134
v -0.170883 0.495576 -0.055942
v -0.085577 0.533407 0.024260
v -0.399087 0.471105 0.321359
v -0.403741 0.486364 0.210089
v -0.218509 0.505606 0.347959
v -0.318700 0.504375 0.345296
v -0.118327 0.544549 0.362678
v -0.420660 0.516398 0.116395
v 0.180288 0.448774 0.268523
v 0.088379 0.483470 0.189483
v 0.091223 0.496670 0.308193
v 0.004939 0.526142 0.110711
v -0.020338 0.500700 0.329050
vt 0.035240 0.105155
vt 0.047687 0.142497
vt 0.032876 0.136076
vt 0.051883 0.117069
vt 0.060711 0.151765
vt 0.055744 0.166667
vt 0.045809 0.166667
vt 0.031931 0.166667
vt 0.096751 0.166667
vt 0.071857 0.166667
vt 0.082473 0.147659
vt 0.067650 0.202385
vt 0.082473 0.185674
vt 0.067650 0.130948
vt 0.035240 0.228178
vt 0.047687 0.190836
vt 0.051883 0.216264
vt 0.032876 0.197257
vt 0.060711 0.181568
vt 0.021080 0.021080
vt 0.000282 0.041878
vt 0.000282 0.000282
vt 0.041878 0.041878
vt 0.019406 0.057652
vt 0.038380 0.073682
vt 0.017934 0.094128
vt 0.000282 0.083475
vt 0.062676 0.062676
vt 0.083475 0.083475
vt 0.057068 0.090252
vt 0.016875 0.130445
vt 0.000282 0.125071
vt 0.016467 0.166667
vt 0.000282 0.166667
vt 0.145869 0.187465
vt 0.145869 0.145869
vt 0.166667 0.166667
vt 0.110918 0.187113
vt 0.128420 0.166667
vt 0.110918 0.146221
vt 0.125071 0.125071
vt 0.125071 0.208263
vt 0.093289 0.206860
vt 0.083475 0.249859
vt 0.104273 0.229061
vt 0.104273 0.104273
vt 0.093289 0.126474
vt 0.075382 0.107751
vt 0.000282 0.333051
vt 0.019406 0.275681
vt 0.021080 0.312253
vt 0.000282 0.291455
vt 0.017934 0.239205
vt 0.038380 0.259651
vt 0.041878 0.291455
vt 0.000282 0.208263
vt 0.000282 0.249859
vt 0.016875 0.202888
vt 0.062676 0.270657
vt 0.057068 0.243081
vt 0.075382 0.225582
vt 0.218832 0.117069
vt 0.199825 0.136076
vt 0.202189 0.105155
vt 0.227660 0.151765
vt 0.214636 0.142497
vt 0.222693 0.166667
vt 0.212758 0.166667
vt 0.198880 0.166667
vt 0.249422 0.185674
vt 0.249422 0.147660
vt 0.263700 0.166667
vt 0.227660 0.181568
vt 0.238806 0.166667
vt 0.234599 0.130948
vt 0.202189 0.228178
vt 0.214636 0.190836
vt 0.218832 0.216264
vt 0.199825 0.197257
vt 0.234599 0.202385
vt 0.188029 0.021080
vt 0.167231 0.041878
vt 0.167231 0.000282
vt 0.208827 0.041878
vt 0.186355 0.057652
vt 0.205329 0.073682
vt 0.184883 0.094128
vt 0.167231 0.083475
vt 0.229626 0.062677
vt 0.242331 0.107751
vt 0.224017 0.090252
vt 0.167231 0.125071
vt 0.183824 0.130445
vt 0.183416 0.166667
vt 0.167231 0.166667
vt 0.333616 0.166667
vt 0.295369 0.166667
vt 0.312818 0.145869
vt 0.292020 0.208263
vt 0.312818 0.187465
vt 0.277867 0.187113
vt 0.277867 0.146221
vt 0.292020 0.125071
vt 0.271222 0.229061
vt 0.250424 0.249859
vt 0.260238 0.206860
vt 0.242331 0.225582
vt 0.271222 0.104273
vt 0.260238 0.126474
vt 0.250424 0.083475
vt 0.167231 0.291455
vt 0.188029 0.312253
vt 0.167231 0.333051
vt 0.167231 0.249859
vt 0.186355 0.275681
vt 0.184883 0.239205
vt 0.205329 0.259651
vt 0.208827 0.291455
vt 0.167231 0.208263
vt 0.183824 0.202888
vt 0.224017 0.243081
vt 0.229626 0.270657
vt 0.369138 0.105155
vt 0.381585 0.142497
vt 0.366774 0.136076
vt 0.401548 0.130948
vt 0.385781 0.117069
vt 0.389642 0.166667
vt 0.379707 0.166667
vt 0.365830 0.166667
vt 0.430650 0.166667
vt 0.405755 0.166667
vt 0.416371 0.147660
vt 0.416371 0.185674
vt 0.394609 0.181568
vt 0.394609 0.151765
vt 0.369138 0.228178
vt 0.381585 0.190836
vt 0.385781 0.216264
vt 0.366774 0.197257
vt 0.401548 0.202385
vt 0.354979 0.021080
vt 0.334180 0.041878
vt 0.334180 0.000282
vt 0.375776 0.041878
vt 0.353304 0.057652
vt 0.372278 0.073682
vt 0.351832 0.094128
vt 0.334180 0.083475
vt 0.396575 0.062677
vt 0.409280 0.107751
vt 0.390966 0.090252
vt 0.350773 0.130445
vt 0.334180 0.125071
vt 0.350365 0.166667
vt 0.334180 0.166667
vt 0.479767 0.187465
vt 0.479767 0.145869
vt 0.500565 0.166667
vt 0.444816 0.187113
vt 0.462318 0.166667
vt 0.444816 0.146221
vt 0.458969 0.125071
vt 0.458969 0.208263
vt 0.427187 0.206860
vt 0.438171 0.229061
vt 0.409280 0.225582
vt 0.438171 0.104273
vt 0.427187 0.126474
vt 0.417373 0.083475
vt 0.334180 0.333051
vt 0.353304 0.275681
vt 0.354979 0.312253
vt 0.334180 0.291455
vt 0.351832 0.239205
vt 0.372278 0.259651
vt 0.375776 0.291455
vt 0.334180 0.208263
vt 0.334180 0.249859
vt 0.350773 0.202888
vt 0.390966 0.243081
vt 0.396575 0.270657
vt 0.417373 0.249859
vt 0.035240 0.438489
vt 0.047687 0.475830
vt 0.032876 0.469410
vt 0.051883 0.450403
vt 0.060711 0.485098
vt 0.055744 0.500000
vt 0.045809 0.500000
vt 0.031931 0.500000
vt 0.096751 0.500000
vt 0.071857 0.500000
vt 0.082473 0.480993
vt 0.082473 0.519007
vt 0.060711 0.514902
vt 0.067650 0.464282
vt 0.032876 0.530590
vt 0.051883 0.549598
vt 0.035240 0.561512
vt 0.047687 0.524170
vt 0.067650 0.535719
vt 0.021080 0.354414
vt 0.000282 0.375212
vt 0.000282 0.333616
vt 0.041878 0.375212
vt 0.019406 0.390986
vt 0.038380 0.407016
vt 0.017934 0.427462
vt 0.000282 0.416808
vt 0.057068 0.423586
vt 0.083475 0.416808
vt 0.062676 0.396010
vt 0.016875 0.463779
vt 0.000282 0.458404
vt 0.016467 0.500000
vt 0.000282 0.500000
vt 0.166667 0.500000
vt 0.128420 0.500000
vt 0.145869 0.479202
vt 0.145869 0.520798
vt 0.110918 0.520446
vt 0.110918 0.479554
vt 0.125071 0.458404
vt 0.125071 0.541596
vt 0.093289 0.540193
vt 0.104273 0.562394
vt 0.075382 0.558915
vt 0.093289 0.459807
vt 0.104273 0.437606
vt 0.075382 0.441085
vt 0.000282 0.624788
vt 0.021080 0.645586
vt 0.000282 0.666384
vt 0.000282 0.583192
vt 0.019406 0.609015
vt 0.017934 0.572538
vt 0.038380 0.592984
vt 0.041878 0.624788
vt 0.000282 0.541596
vt 0.016875 0.536222
vt 0.062676 0.603990
vt 0.057068 0.576415
vt 0.083474 0.583192
vt 0.202189 0.438489
vt 0.214636 0.475830
vt 0.199825 0.469410
vt 0.218832 0.450403
vt 0.227660 0.485098
vt 0.222693 0.500000
vt 0.212758 0.500000
vt 0.198880 0.500000
vt 0.263700 0.500000
vt 0.238806 0.500000
vt 0.249422 0.480993
vt 0.234599 0.535719
vt 0.249422 0.519007
vt 0.234599 0.464282
vt 0.202189 0.561512
vt 0.214636 0.524170
vt 0.218832 0.549598
vt 0.199825 0.530590
vt 0.227660 0.514902
vt 0.188029 0.354414
vt 0.167231 0.375212
vt 0.167231 0.333616
vt 0.208827 0.375212
vt 0.186355 0.390986
vt 0.184883 0.427462
vt 0.167231 0.416808
vt 0.224017 0.423586
vt 0.205329 0.407016
vt 0.250424 0.416808
vt 0.229626 0.396010
vt 0.242331 0.441085
vt 0.167231 0.458404
vt 0.183824 0.463779
vt 0.183416 0.500000
vt 0.167231 0.500000
vt 0.312818 0.520798
vt 0.312818 0.479202
vt 0.333616 0.500000
vt 0.277867 0.520446
vt 0.295369 0.500000
vt 0.277867 0.479554
vt 0.292020 0.458404
vt 0.292020 0.541596
vt 0.260238 0.540193
vt 0.271222 0.562394
vt 0.242331 0.558915
vt 0.271222 0.437606
vt 0.260238 0.459807
vt 0.167231 0.666384
vt 0.186355 0.609015
vt 0.188029 0.645586
vt 0.167231 0.624788
vt 0.184883 0.572539
vt 0.205329 0.592984
vt 0.208827 0.624788
vt 0.167231 0.541596
vt 0.167231 0.583192
vt 0.183824 0.536222
vt 0.224017 0.576415
vt 0.229626 0.603990
vt 0.250424 0.583192
vt 0.369138 0.438489
vt 0.381585 0.475830
vt 0.366774 0.469410
vt 0.401548 0.464282
vt 0.385781 0.450403
vt 0.389642 0.500000
vt 0.379707 0.500000
vt 0.365830 0.500000
vt 0.430650 0.500000
vt 0.405755 0.500000
vt 0.416371 0.480993
vt 0.416371 0.519007
vt 0.394609 0.514902
vt 0.394609 0.485098
vt 0.369138 0.561512
vt 0.381585 0.524170
vt 0.385781 0.549598
vt 0.366774 0.530590
vt 0.401548 0.535719
vt 0.354979 0.354414
vt 0.334180 0.375212
vt 0.334180 0.333616
vt 0.375776 0.375212
vt 0.353304 0.390986
vt 0.372278 0.407016
vt 0.351832 0.427462
vt 0.334180 0.416808
vt 0.396575 0.396010
vt 0.417373 0.416808
vt 0.390966 0.423586
vt 0.350773 0.463779
vt 0.334180 0.458404
vt 0.350365 0.500000
vt 0.334180 0.500000
vt 0.500565 0.500000
vt 0.462318 0.500000
vt 0.479767 0.479202
vt 0.479767 0.520798
vt 0.444816 0.520446
vt 0.444816 0.479554
vt 0.458969 0.458404
vt 0.438171 0.562394
vt 0.458969 0.541596
vt 0.417373 0.583192
vt 0.427187 0.540193
vt 0.427187 0.459807
vt 0.438171 0.437606
vt 0.409280 0.441085
vt 0.334180 0.666384
vt 0.353304 0.609015
vt 0.354979 0.645586
vt 0.334180 0.583192
vt 0.334180 0.624788
vt 0.372278 0.592984
vt 0.375776 0.624788
vt 0.334180 0.541596
vt 0.351832 0.572539
vt 0.350773 0.536222
vt 0.390966 0.576415
vt 0.396575 0.603990
vt 0.409280 0.558915
vt 0.552730 0.117069
vt 0.533723 0.136076
vt 0.536087 0.105155
vt 0.568497 0.130948
vt 0.548534 0.142497
vt 0.561558 0.151765
vt 0.546656 0.166667
vt 0.532779 0.166667
vt 0.597599 0.166667
vt 0.572704 0.166667
vt 0.583320 0.147660
vt 0.568497 0.202385
vt 0.583320 0.185674
vt 0.556591 0.166667
vt 0.536087 0.228178
vt 0.548534 0.190836
vt 0.552730 0.216264
vt 0.533723 0.197257
vt 0.561558 0.181568
vt 0.521928 0.021080
vt 0.501130 0.041878
vt 0.501130 0.000282
vt 0.542726 0.041878
vt 0.520253 0.057652
vt 0.539227 0.073682
vt 0.518781 0.094128
vt 0.501130 0.083475
vt 0.557915 0.090252
vt 0.584322 0.083475
vt 0.563524 0.062677
vt 0.576229 0.107751
vt 0.517722 0.130445
vt 0.501130 0.125071
vt 0.517314 0.166667
vt 0.501129 0.166667
vt 0.646716 0.187465
vt 0.646716 0.145869
vt 0.667514 0.166667
vt 0.625918 0.208263
vt 0.629267 0.166667
vt 0.611765 0.187113
vt 0.611765 0.146221
vt 0.625918 0.125071
vt 0.605120 0.229061
vt 0.576229 0.225582
vt 0.594136 0.206860
vt 0.594136 0.126474
vt 0.605120 0.104273
vt 0.501130 0.333051
vt 0.520253 0.275681
vt 0.521928 0.312253
vt 0.501130 0.291455
vt 0.518781 0.239205
vt 0.539227 0.259651
vt 0.542726 0.291455
vt 0.501129 0.249859
vt 0.517722 0.202888
vt 0.501130 0.208263
vt 0.557915 0.243081
vt 0.563524 0.270657
vt 0.584322 0.249859
vt 0.552730 0.450403
vt 0.533723 0.469410
vt 0.536087 0.438489
vt 0.568497 0.464282
vt 0.548534 0.475830
vt 0.561558 0.485098
vt 0.546656 0.500000
vt 0.532779 0.500000
vt 0.583320 0.519007
vt 0.583320 0.480993
vt 0.597599 0.500000
vt 0.568497 0.535719
vt 0.572704 0.500000
vt 0.561558 0.514902
vt 0.536087 0.561512
vt 0.548534 0.524170
vt 0.552730 0.549598
vt 0.533723 0.530590
vt 0.556591 0.500000
vt 0.521928 0.354414
vt 0.501130 0.375212
vt 0.501130 0.333616
vt 0.539227 0.407016
vt 0.520253 0.390986
vt 0.518781 0.427462
vt 0.501130 0.416808
vt 0.542726 0.375212
vt 0.557915 0.423586
vt 0.584322 0.416808
vt 0.563524 0.396010
vt 0.576229 0.441085
vt 0.501130 0.458404
vt 0.517722 0.463779
vt 0.517314 0.500000
vt 0.501129 0.500000
vt 0.646716 0.520798
vt 0.646716 0.479202
vt 0.667514 0.500000
vt 0.611765 0.520446
vt 0.629267 0.500000
vt 0.611765 0.479554
vt 0.625918 0.458404
vt 0.605120 0.562394
vt 0.625918 0.541596
vt 0.584322 0.583192
vt 0.594136 0.540193
vt 0.576229 0.558915
vt 0.605120 0.437606
vt 0.594136 0.459807
vt 0.501130 0.666384
vt 0.520253 0.609015
vt 0.521928 0.645586
vt 0.501130 0.624788
vt 0.518781 0.572539
vt 0.539227 0.592984
vt 0.542726 0.624788
vt 0.501129 0.583192
vt 0.517722 0.536222
vt 0.501130 0.541596
vt 0.557915 0.576415
vt 0.563524 0.603990
vt 0.719679 0.117069
vt 0.700672 0.136076
vt 0.703036 0.105155
vt 0.728507 0.151765
vt 0.715483 0.142497
vt 0.723540 0.166667
vt 0.713605 0.166667
vt 0.699728 0.166667
vt 0.750269 0.185674
vt 0.750269 0.147660
vt 0.764548 0.166667
vt 0.735446 0.202385
vt 0.739653 0.166667
vt 0.735446 0.130948
vt 0.703036 0.228178
vt 0.715483 0.190836
vt 0.719679 0.216264
vt 0.700672 0.197257
vt 0.728507 0.181568
vt 0.688877 0.021080
vt 0.668079 0.041878
vt 0.668079 0.000282
vt 0.709675 0.041878
vt 0.687202 0.057652
vt 0.706176 0.073682
vt 0.685730 0.094128
vt 0.668079 0.083475
vt 0.730473 0.062677
vt 0.751271 0.083475
vt 0.724864 0.090252
vt 0.743178 0.107751
vt 0.668079 0.125071
vt 0.684671 0.130445
vt 0.684263 0.166667
vt 0.668079 0.166667
vt 0.813665 0.187465
vt 0.813665 0.145869
vt 0.834463 0.166667
vt 0.792867 0.208263
vt 0.796216 0.166667
vt 0.778714 0.187113
vt 0.778714 0.146221
vt 0.792867 0.125071
vt 0.772069 0.229061
vt 0.751271 0.249859
vt 0.761085 0.206860
vt 0.743178 0.225582
vt 0.761085 0.126474
vt 0.772069 0.104273
vt 0.668079 0.333051
vt 0.687202 0.275681
vt 0.688877 0.312253
vt 0.668079 0.291455
vt 0.685730 0.239205
vt 0.706176 0.259651
vt 0.709675 0.291455
vt 0.668079 0.249859
vt 0.684671 0.202888
vt 0.668079 0.208263
vt 0.724864 0.243081
vt 0.730473 0.270657
vt 0.719679 0.450403
vt 0.700672 0.469410
vt 0.703036 0.438489
vt 0.735446 0.464282
vt 0.715483 0.475830
vt 0.728507 0.485098
vt 0.713605 0.500000
vt 0.699728 0.500000
vt 0.764548 0.500000
vt 0.739653 0.500000
vt 0.750269 0.480993
vt 0.750269 0.519007
vt 0.728507 0.514902
vt 0.723540 0.500000
vt 0.700672 0.530590
vt 0.719679 0.549598
vt 0.703036 0.561512
vt 0.715483 0.524170
vt 0.735446 0.535719
vt 0.688877 0.354414
vt 0.668079 0.375212
vt 0.668079 0.333616
vt 0.709675 0.375212
vt 0.687202 0.390986
vt 0.706176 0.407016
vt 0.685730 0.427462
vt 0.668079 0.416808
vt 0.730473 0.396010
vt 0.751271 0.416808
vt 0.724864 0.423586
vt 0.743178 0.441085
vt 0.668079 0.458404
vt 0.684671 0.463779
vt 0.684263 0.500000
vt 0.668079 0.500000
vt 0.834463 0.500000
vt 0.796216 0.500000
vt 0.813665 0.479202
vt 0.813665 0.520798
vt 0.778714 0.520446
vt 0.778714 0.479554
vt 0.792867 0.458404
vt 0.792867 0.541596
vt 0.761085 0.540193
vt 0.772069 0.562394
vt 0.743178 0.558915
vt 0.761085 0.459807
vt 0.772069 0.437606
vt 0.668079 0.624788
vt 0.688877 0.645586
vt 0.668079 0.666384
vt 0.668079 0.583192
vt 0.687202 0.609015
vt 0.685730 0.572539
vt 0.706176 0.592984
vt 0.709675 0.624788
vt 0.668079 0.541596
vt 0.684671 0.536222
vt 0.730473 0.603990
vt 0.724864 0.576415
vt 0.751271 0.583192
vt 0.051883 0.783736
vt 0.032876 0.802743
vt 0.035240 0.771822
vt 0.067650 0.797615
vt 0.047687 0.809164
vt 0.060711 0.818432
vt 0.045809 0.833334
vt 0.031931 0.833333
vt 0.096751 0.833334
vt 0.071857 0.833334
vt 0.082473 0.814326
vt 0.082473 0.852341
vt 0.060711 0.848235
vt 0.055744 0.833333
vt 0.032876 0.863924
vt 0.051883 0.882931
vt 0.035240 0.894845
vt 0.047687 0.857503
vt 0.067650 0.869052
vt 0.021080 0.687747
vt 0.000282 0.708545
vt 0.000282 0.666949
vt 0.041878 0.708545
vt 0.019406 0.724319
vt 0.038380 0.740349
vt 0.017934 0.760795
vt 0.000282 0.750141
vt 0.062676 0.729343
vt 0.083474 0.750141
vt 0.057068 0.756919
vt 0.075382 0.774418
vt 0.000282 0.791737
vt 0.016875 0.797112
vt 0.016467 0.833333
vt 0.000282 0.833333
vt 0.166667 0.833334
vt 0.128420 0.833333
vt 0.145869 0.812536
vt 0.145869 0.854132
vt 0.110918 0.853779
vt 0.110918 0.812887
vt 0.125071 0.791737
vt 0.125071 0.874929
vt 0.093289 0.873527
vt 0.104273 0.895728
vt 0.075382 0.892249
vt 0.093289 0.793140
vt 0.104273 0.770939
vt 0.000282 0.958122
vt 0.021080 0.978920
vt 0.000282 0.999718
vt 0.000282 0.916526
vt 0.019406 0.942348
vt 0.017934 0.905872
vt 0.038380 0.926318
vt 0.041878 0.958122
vt 0.000282 0.874930
vt 0.016875 0.869555
vt 0.062676 0.937324
vt 0.057068 0.909748
vt 0.083474 0.916526
vt 0.218832 0.783736
vt 0.199825 0.802743
vt 0.202189 0.771822
vt 0.234599 0.797615
vt 0.214636 0.809164
vt 0.227660 0.818432
vt 0.212758 0.833334
vt 0.198880 0.833333
vt 0.263700 0.833334
vt 0.238806 0.833333
vt 0.249422 0.814326
vt 0.249422 0.852341
vt 0.227660 0.848235
vt 0.222693 0.833333
vt 0.199825 0.863924
vt 0.218832 0.882931
vt 0.202189 0.894845
vt 0.214636 0.857503
vt 0.234599 0.869052
vt 0.188029 0.687747
vt 0.167231 0.708545
vt 0.167231 0.666949
vt 0.208827 0.708545
vt 0.186355 0.724319
vt 0.205329 0.740349
vt 0.184883 0.760795
vt 0.167231 0.750141
vt 0.229626 0.729343
vt 0.250424 0.750141
vt 0.224017 0.756919
vt 0.242331 0.774418
vt 0.167231 0.791737
vt 0.183824 0.797112
vt 0.183416 0.833333
vt 0.167231 0.833333
vt 0.333616 0.833334
vt 0.295369 0.833334
vt 0.312818 0.812536
vt 0.292020 0.874929
vt 0.312818 0.854132
vt 0.277867 0.812887
vt 0.292020 0.791737
vt 0.260238 0.873527
vt 0.277867 0.853780
vt 0.271222 0.895728
vt 0.242331 0.892249
vt 0.260238 0.793140
vt 0.271222 0.770939
vt 0.167231 0.958122
vt 0.188029 0.978920
vt 0.167231 0.999718
vt 0.167231 0.916526
vt 0.186355 0.942348
vt 0.184883 0.905872
vt 0.205329 0.926318
vt 0.208827 0.958122
vt 0.167231 0.874930
vt 0.183824 0.869555
vt 0.229626 0.937324
vt 0.224017 0.909748
vt 0.250424 0.916526
vn -0.6102 -0.7034 0.3645
vn -0.7080 -0.5745 0.4106
vn -0.6564 -0.6587 0.3677
vn -0.6719 -0.6339 0.3831
vn -0.6174 -0.7441 0.2552
vn -0.6047 -0.7463 0.2781
vn -0.8216 -0.4832 0.3023
vn -0.7669 -0.5890 0.2549
vn -0.2869 -0.8302 -0.4780
vn -0.4211 -0.9056 -0.0500
vn -0.4678 -0.7887 -0.3989
vn -0.1813 -0.9671 0.1782
vn -0.0841 -0.9938 -0.0723
vn -0.5915 -0.7340 -0.3337
vn -0.2144 -0.6967 0.6846
vn -0.5294 -0.7929 0.3016
vn -0.1257 -0.9094 0.3965
vn -0.5091 -0.7285 0.4585
vn -0.2916 -0.9438 0.1555
vn -0.4948 -0.6511 0.5755
vn -0.5821 -0.4483 0.6784
vn -0.6433 -0.5980 0.4781
vn -0.7174 -0.6340 0.2889
vn -0.8209 -0.4034 0.4042
vn -0.8606 -0.4881 0.1451
vn -0.7069 -0.4348 0.5579
vn -0.7886 -0.2518 0.5609
vn -0.6726 -0.7394 -0.0288
vn -0.5585 -0.8266 0.0688
vn -0.6671 -0.7446 -0.0226
vn -0.7342 -0.4677 0.4921
vn -0.8379 -0.3061 0.4519
vn -0.8391 -0.4574 0.2945
vn -0.7580 -0.3501 0.5503
vn 0.6187 -0.3888 -0.6827
vn 0.3393 -0.6367 -0.6925
vn 0.5011 -0.2906 -0.8151
vn 0.2543 -0.8616 -0.4393
vn 0.2971 -0.7715 -0.5626
vn -0.1493 -0.9725 -0.1787
vn -0.0681 -0.9804 -0.1848
vn 0.6897 -0.5360 -0.4868
vn 0.3556 -0.9156 -0.1876
vn 0.7931 -0.5644 0.2290
vn 0.7519 -0.6499 -0.1107
vn -0.4186 -0.9004 0.1181
vn -0.3676 -0.9295 0.0306
vn -0.5533 -0.7847 -0.2794
vn 0.2449 -0.6733 0.6977
vn -0.0574 -0.7910 0.6091
vn 0.2768 -0.6924 0.6663
vn -0.0478 -0.6997 0.7128
vn -0.1966 -0.7559 0.6245
vn 0.0342 -0.7697 0.6375
vn 0.2828 -0.7529 0.5943
vn -0.6105 -0.4919 0.6207
vn -0.3931 -0.7122 0.5816
vn -0.4056 -0.6337 0.6587
vn 0.5963 -0.7263 0.3420
vn 0.2308 -0.8227 0.5194
vn 0.2832 -0.9463 0.1559
vn -0.3621 -0.8750 0.3212
vn -0.2507 -0.8635 0.4376
vn -0.1834 -0.8212 0.5403
vn -0.4602 -0.8484 0.2614
vn -0.3636 -0.7522 0.5495
vn -0.4449 -0.8198 0.3606
vn -0.2270 -0.8178 0.5289
vn -0.1245 -0.7781 0.6157
vn -0.4216 -0.8209 0.3852
vn -0.4276 -0.7373 0.5230
vn -0.6027 -0.6999 0.3831
vn -0.4795 -0.7487 0.4578
vn -0.5385 -0.7218 0.4347
vn -0.6520 -0.7169 0.2469
vn 0.2372 -0.9711 0.0270
vn -0.2507 -0.8301 0.4981
vn -0.0756 -0.9526 0.2948
vn -0.2753 -0.8507 0.4477
vn -0.5382 -0.8404 0.0631
vn -0.7942 -0.3173 0.5183
vn -0.7377 -0.3058 0.6019
vn -0.4439 -0.6776 0.5864
vn -0.5237 -0.6417 0.5603
vn -0.2777 -0.7749 0.5679
vn -0.6096 -0.4701 0.6383
vn -0.5246 -0.8142 0.2487
vn -0.6364 -0.7206 0.2751
vn -0.4820 -0.8586 0.1744
vn -0.4674 -0.8130 0.3473
vn -0.4693 -0.8461 0.2526
vn -0.5887 -0.7483 0.3059
vn -0.2470 -0.8761 0.4140
vn -0.3615 -0.9291 -0.0777
vn -0.4346 -0.8202 0.3719
vn -0.7102 -0.7001 0.0744
vn -0.7091 -0.6728 0.2111
vn -0.5308 -0.7599 0.3753
vn -0.5273 -0.6139 -0.5875
vn -0.2836 -0.7929 -0.5393
vn -0.4480 -0.8924 -0.0541
vn -0.3377 -0.9013 -0.2715
vn -0.4517 -0.8921 0.0066
vn -0.5057 -0.7207 0.4741
vn -0.3572 -0.7809 0.5124
vn 0.4460 -0.4234 -0.7885
vn 0.2816 -0.7109 -0.6444
vn -0.0758 -0.9826 -0.1694
vn 0.4594 -0.7714 -0.4404
vn 0.4345 -0.4385 -0.7867
vn -0.2756 -0.9112 0.3063
vn -0.0031 -0.8763 -0.4818
vn 0.1727 -0.6257 -0.7607
vn -0.7001 -0.0554 0.7119
vn -0.4661 -0.2105 0.8593
vn -0.6615 -0.1725 0.7299
vn -0.5698 0.0094 0.8217
vn -0.4648 -0.0857 0.8812
vn -0.6100 -0.2477 0.7527
vn -0.4262 -0.4269 0.7975
vn -0.5690 -0.0943 0.8169
vn -0.8583 -0.0499 0.5107
vn -0.7149 0.0320 0.6985
vn -0.7083 -0.0117 0.7058
vn -0.8983 0.0435 0.4372
vn -0.7863 -0.2400 0.5693
vn -0.6071 -0.0219 0.7943
vn -0.6843 -0.6722 0.2827
vn -0.7487 -0.2059 0.6301
vn -0.9501 -0.2235 0.2178
vn -0.6061 -0.2749 0.7463
vn -0.8887 -0.4185 0.1874
vn -0.7552 -0.5979 0.2687
vn -0.8201 -0.5239 0.2302
vn -0.8143 -0.2553 0.5213
vn -0.8485 -0.3200 0.4215
vn -0.6934 -0.1314 0.7084
vn -0.6976 -0.6894 0.1953
vn -0.6151 -0.4471 0.6494
vn -0.7152 -0.3702 0.5928
vn -0.6930 -0.2584 0.6730
vn -0.5902 -0.1484 0.7935
vn -0.5750 0.2920 -0.7642
vn -0.9191 -0.0923 -0.3830
vn -0.4049 0.3776 -0.8327
vn -0.9732 0.1213 -0.1952
vn -0.9477 0.2105 -0.2399
vn -0.9062 -0.2141 0.3645
vn -0.9151 -0.3920 0.0943
vn -0.6395 0.3045 -0.7059
vn -0.9568 -0.1251 -0.2626
vn -0.8049 0.0726 -0.5889
vn -0.9686 -0.1965 -0.1523
vn -0.7212 -0.6507 0.2376
vn -0.6731 -0.5280 0.5178
vn -0.5637 -0.7671 0.3062
vn -0.5021 -0.7184 0.4815
vn -0.5105 -0.8596 -0.0201
vn -0.4196 -0.8504 0.3173
vn -0.7455 -0.6454 0.1666
vn -0.6098 -0.7462 -0.2671
vn -0.6227 -0.7486 0.2279
vn -0.9606 -0.1691 0.2206
vn -0.7973 -0.3933 -0.4579
vn -0.8995 0.0204 -0.4364
vn -0.5102 -0.8585 -0.0513
vn -0.4221 -0.9065 0.0087
vn -0.5052 -0.8603 0.0683
vn -0.5682 -0.8216 -0.0467
vn -0.4856 -0.8732 -0.0423
vn -0.3596 -0.9149 0.1837
vn -0.3539 -0.9299 0.1003
vn -0.4410 -0.8975 0.0048
vn -0.6284 -0.7601 0.1653
vn -0.5393 -0.8418 0.0227
vn -0.4890 -0.8722 -0.0108
vn -0.6494 -0.7574 0.0683
vn -0.4224 -0.8965 0.1337
vn -0.4251 -0.9023 -0.0711
vn -0.4224 -0.9051 -0.0483
vn -0.7015 -0.7106 -0.0537
vn -0.6069 -0.7462 -0.2737
vn -0.4038 -0.9126 -0.0632
vn -0.7650 -0.6330 0.1186
vn -0.5774 -0.7848 0.2249
vn -0.6322 -0.7418 0.2239
vn -0.7694 -0.6379 0.0333
vn -0.7164 -0.6865 -0.1246
vn -0.7651 -0.6154 0.1892
vn -0.5188 -0.8501 -0.0905
vn -0.3950 -0.7874 0.4733
vn -0.5289 -0.7758 0.3441
vn -0.5642 -0.8049 0.1841
vn -0.5516 -0.8144 0.1804
vn -0.5965 -0.0238 0.8023
vn -0.6191 -0.5377 0.5723
vn -0.5032 -0.4851 0.7152
vn -0.7424 0.2795 0.6088
vn -0.8658 -0.4264 0.2618
vn -0.5640 -0.6661 0.4880
vn -0.4475 -0.6433 0.6212
vn -0.8093 0.3999 0.4303
vn -0.9270 -0.3675 0.0747
vn -0.8878 0.4518 0.0872
vn -0.9529 -0.2997 0.0466
vn -0.6236 -0.6951 0.3577
vn -0.4547 -0.6255 0.6340
vn -0.5699 -0.8216 -0.0144
vn -0.5816 0.3837 -0.7173
vn -0.8474 -0.4009 -0.3481
vn -0.7067 -0.6792 -0.1980
vn -0.8833 -0.3694 -0.2888
vn -0.7813 0.5282 -0.3325
vn -0.6294 -0.7750 0.0563
vn -0.7886 0.5683 -0.2349
vn -0.9602 -0.2350 -0.1507
vn -0.8431 0.5053 -0.1840
vn 0.0121 -0.8111 0.5848
vn -0.0602 -0.7776 0.6259
vn -0.1387 -0.8237 0.5498
vn 0.1115 -0.7556 0.6454
vn 0.2774 -0.6481 0.7092
vn -0.1135 -0.5378 0.8354
vn -0.2905 -0.6172 0.7312
vn -0.4510 -0.4985 0.7403
vn 0.4190 -0.1759 0.8908
vn 0.2113 -0.5292 0.8218
vn 0.1273 -0.5943 0.7941
vn -0.1020 -0.2359 0.9664
vn 0.2894 -0.1111 0.9508
vn 0.2011 -0.6396 0.7419
vn -0.4081 -0.4716 0.7817
vn -0.3214 -0.4766 0.8183
vn -0.2881 -0.2954 0.9109
vn -0.4911 -0.5935 0.6377
vn -0.1168 -0.4014 0.9084
vn -0.2100 -0.7652 0.6086
vn -0.2388 -0.6396 0.7307
vn -0.2863 -0.7981 0.5302
vn -0.3224 -0.7916 0.5191
vn 0.0169 -0.7596 0.6501
vn -0.1316 -0.7240 0.6771
vn -0.2315 -0.5068 0.8304
vn -0.2292 -0.5848 0.7781
vn -0.0300 -0.5821 0.8125
vn -0.5345 -0.7141 0.4521
vn -0.5432 -0.6424 0.5405
vn 0.6371 0.6138 0.4663
vn 0.7221 0.3408 0.6021
vn 0.7834 0.5021 0.3664
vn 0.4590 0.4463 0.7682
vn 0.4630 0.3536 0.8128
vn 0.2468 -0.0999 0.9639
vn 0.0370 -0.0320 0.9988
vn 0.5269 0.5951 0.6068
vn 0.3775 0.3965 0.8369
vn 0.4165 0.6587 0.6266
vn 0.0879 0.3687 0.9254
vn -0.1831 -0.2818 0.9418
vn 0.2103 -0.5083 0.8351
vn -0.5346 -0.2637 0.8029
vn -0.4131 0.2990 0.8602
vn -0.4911 -0.5902 0.6407
vn -0.4956 -0.0019 0.8685
vn -0.3715 0.4830 0.7929
vn -0.4630 -0.5461 0.6982
vn -0.3293 0.1431 0.9333
vn -0.3317 0.6222 0.7091
vn 0.0357 0.6612 0.7494
vn -0.6525 -0.1992 0.7312
vn -0.6852 -0.1604 0.7105
vn -0.6244 -0.3113 0.7164
vn -0.7323 -0.1093 0.6722
vn -0.7528 -0.1001 0.6506
vn -0.6575 -0.0518 0.7517
vn -0.5094 -0.0749 0.8572
vn -0.5372 -0.1365 0.8324
vn -0.2748 -0.3672 0.8886
vn -0.6115 0.0928 0.7858
vn -0.8055 -0.2035 0.5566
vn -0.1913 -0.0783 0.9784
vn -0.6141 0.1609 0.7727
vn -0.7919 0.0175 0.6104
vn -0.0794 0.1309 0.9882
vn -0.5230 0.0907 0.8475
vn -0.3824 0.2476 0.8902
vn -0.2266 -0.2419 0.9435
vn -0.3423 -0.0520 0.9381
vn -0.4977 -0.5818 0.6433
vn -0.8053 -0.2295 0.5466
vn -0.5295 -0.5732 0.6254
vn -0.7884 -0.2501 0.5620
vn -0.4824 -0.3914 0.7836
vn -0.3773 -0.4493 0.8098
vn 0.0105 -0.6210 0.7837
vn 0.2719 -0.6556 0.7044
vn 0.1084 -0.4178 0.9020
vn -0.3370 -0.5691 0.7500
vn 0.7283 -0.0772 0.6809
vn 0.4881 -0.3350 0.8059
vn 0.7981 0.0902 0.5957
vn 0.2131 -0.2497 0.9446
vn -0.6844 -0.3751 0.6252
vn -0.7452 -0.1861 0.6404
vn 0.6219 0.3294 0.7104
vn 0.7550 0.5140 0.4072
vn 0.3288 0.4825 0.8118
vn 0.8086 0.4300 0.4016
vn 0.2683 -0.0996 0.9582
vn -0.3149 -0.2458 0.9167
vn 0.4597 0.3386 0.8210
vn 0.8075 0.3471 0.4769
vn 0.3936 0.0275 0.9189
vn 0.9308 0.2134 0.2969
vn 0.9382 0.2697 0.2168
vn 0.9142 0.1746 0.3658
vn 0.9278 0.0767 0.3651
vn 0.9376 0.3016 0.1732
vn 0.9688 0.2026 0.1427
vn 0.9076 0.3931 0.1475
vn 0.9107 0.4016 0.0970
vn 0.8731 0.0954 -0.4781
vn 0.9656 0.0117 -0.2599
vn 0.9729 0.0202 -0.2302
vn 0.7433 -0.0716 -0.6651
vn 0.8222 -0.0191 -0.5689
vn 0.9720 0.2113 0.1032
vn 0.8817 0.2496 -0.4004
vn 0.8500 0.4427 -0.2854
vn 0.8052 0.3337 -0.4901
vn 0.9304 0.3145 -0.1881
vn 0.9230 0.1670 -0.3466
vn 0.8684 0.3634 0.3372
vn 0.7147 0.4781 0.5106
vn 0.9411 0.3105 0.1341
vn 0.9195 0.2021 0.3371
vn 0.9514 0.2867 0.1128
vn 0.9731 0.1457 0.1786
vn 0.7421 0.6564 0.1355
vn 0.9696 0.1641 0.1817
vn 0.9420 0.3256 -0.0813
vn 0.9680 0.2314 0.0972
vn 0.9392 0.0302 0.3420
vn 0.8953 0.4444 0.0313
vn 0.7273 0.6834 0.0636
vn 0.8693 0.4855 0.0923
vn 0.8502 0.5005 0.1632
vn 0.5125 -0.1317 -0.8485
vn 0.7117 -0.2124 -0.6696
vn 0.4260 -0.1976 -0.8829
vn 0.6011 -0.2580 -0.7564
vn 0.6625 -0.1099 -0.7409
vn 0.9154 -0.0294 -0.4014
vn 0.9465 -0.1254 -0.2974
vn 0.5589 0.0026 -0.8293
vn 0.5708 0.0060 -0.8211
vn 0.6925 0.1597 -0.7035
vn 0.9929 0.0534 0.1062
vn 0.9680 0.1286 0.2153
vn 0.5748 0.1353 -0.8070
vn 0.6721 0.1925 -0.7150
vn 0.5434 0.1618 -0.8237
vn 0.7215 0.4186 -0.5516
vn 0.8502 0.4047 -0.3368
vn 0.6305 0.2319 -0.7408
vn 0.7212 0.1565 -0.6748
vn 0.7778 0.5942 -0.2046
vn 0.8690 0.4945 -0.0179
vn 0.7741 0.6150 -0.1504
vn 0.5519 0.0490 -0.8325
vn 0.6775 -0.0054 -0.7355
vn 0.6293 0.1278 -0.7666
vn 0.1785 -0.3856 -0.9052
vn 0.2661 -0.3049 -0.9145
vn 0.1800 -0.2876 -0.9407
vn 0.4010 -0.1621 -0.9016
vn 0.0753 -0.3061 -0.9490
vn 0.3171 -0.0899 -0.9441
vn -0.0073 -0.1130 -0.9936
vn 0.4870 -0.2824 -0.8265
vn -0.1175 0.2290 -0.9663
vn -0.1410 -0.1628 -0.9765
vn -0.0526 0.1900 -0.9804
vn 0.4136 0.1261 -0.9017
vn 0.3918 -0.1340 -0.9102
vn 0.4526 -0.1304 -0.8821
vn 0.3799 0.4549 -0.8054
vn 0.0680 0.1508 -0.9862
vn 0.3762 0.1735 -0.9102
vn 0.4629 0.0952 -0.8813
vn -0.0104 -0.0363 -0.9993
vn 0.4338 -0.0404 -0.9001
vn 0.1988 -0.0481 -0.9789
vn 0.3788 -0.0412 -0.9246
vn 0.3237 -0.2344 -0.9167
vn 0.2643 0.1843 -0.9467
vn 0.1718 -0.3370 -0.9257
vn 0.2900 -0.1591 -0.9437
vn 0.3624 0.0259 -0.9317
vn 0.1952 -0.3154 -0.9287
vn 0.4342 -0.1314 -0.8912
vn 0.6861 -0.0973 -0.7209
vn -0.4134 0.4798 -0.7739
vn -0.3910 0.4026 -0.8277
vn -0.2263 0.2660 -0.9370
vn -0.3781 0.4786 -0.7924
vn 0.1261 0.2612 -0.9570
vn -0.2293 0.1314 -0.9644
vn 0.1006 0.5281 -0.8432
vn -0.3792 0.4626 -0.8014
vn 0.1535 0.5501 -0.8209
vn -0.0746 0.3365 -0.9387
vn 0.1270 0.4905 -0.8622
vn 0.2272 -0.0590 -0.9721
vn 0.0070 -0.1059 -0.9944
vn 0.5718 0.3082 -0.7603
vn 0.5615 0.1811 -0.8074
vn 0.6881 0.3684 -0.6252
vn 0.6086 0.1577 -0.7777
vn 0.5417 0.3961 -0.7414
vn 0.7757 -0.0771 -0.6264
vn 0.4392 0.2192 -0.8713
vn 0.2732 0.5639 -0.7794
vn -0.1494 0.9873 -0.0540
vn -0.0182 0.9653 -0.2606
vn -0.2482 0.9572 -0.1487
vn -0.0264 0.9697 0.2429
vn -0.1442 0.9867 -0.0756
vn 0.0686 0.9900 0.1232
vn 0.0303 0.9146 -0.4032
vn 0.1526 0.8628 -0.4819
vn 0.4910 0.8354 0.2469
vn 0.1575 0.9484 0.2753
vn 0.4408 0.8531 0.2792
vn 0.6095 0.7887 -0.0810
vn 0.2171 0.9443 0.2472
vn 0.0816 0.9946 0.0643
vn 0.5621 0.7533 -0.3413
vn 0.5429 0.7987 -0.2595
vn 0.6880 0.7166 -0.1148
vn 0.2552 0.7879 -0.5604
vn 0.4732 0.8671 0.1554
vn -0.1205 0.8351 -0.5368
vn -0.0182 0.9588 -0.2835
vn -0.3742 0.8251 -0.4234
vn -0.2605 0.9521 -0.1600
vn -0.2954 0.8890 -0.3499
vn -0.2245 0.9622 -0.1544
vn 0.0330 0.9931 -0.1123
vn -0.2197 0.9676 -0.1248
vn 0.2333 0.9705 -0.0604
vn -0.0287 0.8322 -0.5537
vn 0.2472 0.7593 -0.6019
vn 0.7258 0.6330 0.2694
vn 0.5672 0.7806 0.2626
vn 0.5836 0.8092 0.0683
vn 0.5063 0.8624 0.0068
vn 0.4550 0.8890 0.0525
vn 0.7162 0.6128 0.3341
vn 0.7160 0.6970 0.0392
vn 0.3356 0.9418 0.0187
vn 0.3690 0.9275 -0.0596
vn 0.5859 0.5023 -0.6360
vn 0.4788 0.6101 -0.6313
vn 0.7108 0.6755 -0.1962
vn 0.2975 0.7289 -0.6165
vn 0.6678 0.7330 -0.1290
vn 0.9711 0.2311 0.0603
vn 0.9292 0.2608 0.2617
vn 0.9266 0.3615 0.1034
vn 0.9760 0.1886 0.1089
vn 0.9516 0.0969 0.2917
vn 0.9837 0.1798 -0.0038
vn 0.9321 0.0144 0.3619
vn 0.9711 0.2339 0.0472
vn 0.9025 -0.1672 0.3969
vn 0.9578 0.2438 0.1522
vn 0.9754 0.0594 0.2124
vn 0.9169 0.0205 0.3985
vn 0.9125 0.3355 0.2339
vn 0.9225 0.0570 0.3817
vn 0.9493 0.2817 -0.1394
vn 0.9985 -0.0395 -0.0379
vn 0.9565 0.1549 -0.2472
vn 0.9499 0.2296 0.2123
vn 0.9716 -0.1442 0.1878
vn 0.9074 0.3891 0.1589
vn 0.9104 0.3949 0.1232
vn 0.9387 0.3098 0.1510
vn 0.9438 0.2955 0.1482
vn 0.9592 0.0429 0.2795
vn 0.9014 0.4305 0.0460
vn 0.8868 0.4041 -0.2245
vn 0.5552 -0.5481 0.6256
vn 0.6721 -0.3799 0.6356
vn 0.8324 -0.3198 0.4525
vn 0.8283 -0.5327 0.1735
vn 0.8621 -0.4772 0.1705
vn 0.8859 0.0732 0.4582
vn 0.7985 -0.1448 -0.5843
vn 0.9872 0.0436 -0.1531
vn 0.9434 -0.1361 -0.3023
vn 0.9757 0.2138 -0.0471
vn 0.9439 -0.3301 -0.0115
vn -0.0106 -0.2293 -0.9733
vn 0.3745 0.1644 -0.9126
vn 0.4880 0.0482 -0.8715
vn -0.1549 -0.5970 -0.7872
vn 0.1461 -0.1149 -0.9826
vn 0.0244 -0.3913 -0.9199
vn 0.1787 -0.1104 -0.9777
vn 0.4159 0.1280 -0.9003
vn -0.3547 -0.6049 -0.7129
vn -0.1992 -0.5905 -0.7821
vn -0.2315 -0.6515 -0.7225
vn -0.4550 -0.4753 -0.7530
vn -0.1915 -0.1605 -0.9683
vn 0.0801 -0.2410 -0.9672
vn 0.1371 0.2868 -0.9481
vn -0.2569 0.1570 -0.9536
vn -0.0775 0.3230 -0.9432
vn 0.0205 -0.0666 -0.9976
vn -0.4389 -0.2516 -0.8626
vn 0.4202 -0.1247 -0.8988
vn 0.4115 -0.2308 -0.8817
vn 0.4217 0.2265 -0.8780
vn 0.1451 -0.4101 -0.9004
vn -0.3438 -0.5593 -0.7543
vn 0.5099 0.3202 -0.7984
vn 0.5024 0.1915 -0.8432
vn -0.6399 -0.7080 -0.2986
vn -0.5296 -0.6227 -0.5760
vn -0.2123 -0.7873 -0.5789
vn -0.4987 -0.3966 -0.7707
vn -0.5596 -0.1819 -0.8085
vn -0.1969 -0.7350 -0.6488
vn -0.3916 0.4188 -0.8193
vn -0.2145 0.0339 -0.9761
vn -0.3643 0.3275 -0.8718
vn 0.1811 0.1953 -0.9639
vn -0.4999 0.1639 -0.8504
vn -0.0208 0.9901 -0.1392
vn 0.0283 0.9940 -0.1054
vn -0.1207 0.9745 -0.1890
vn -0.0051 0.9880 -0.1546
vn 0.0816 0.9864 -0.1426
vn 0.1617 0.9815 -0.1022
vn -0.1564 0.9765 -0.1485
vn -0.2964 0.9528 -0.0664
vn -0.3387 0.9329 0.1226
vn -0.0524 0.9828 -0.1768
vn -0.1086 0.9932 0.0413
vn -0.2064 0.9711 0.1198
vn -0.1365 0.9374 -0.3204
vn -0.0587 0.9620 -0.2668
vn 0.1644 0.9784 -0.1253
vn 0.3084 0.9455 0.1047
vn 0.4061 0.9120 0.0581
vn -0.1286 0.9597 -0.2498
vn -0.1342 0.9840 0.1171
vn -0.1578 0.9418 -0.2969
vn -0.3207 0.9261 -0.1986
vn -0.0442 0.9666 -0.2524
vn -0.2599 0.8853 -0.3856
vn -0.2469 0.9490 -0.1958
vn -0.0556 0.9930 -0.1047
vn -0.2331 0.9706 -0.0604
vn -0.5293 0.7050 0.4721
vn -0.4357 0.8526 0.2885
vn -0.2234 0.7910 0.5695
vn -0.3001 0.7511 0.5880
vn 0.0089 0.8793 0.4762
vn -0.3282 0.9414 0.0779
vn 0.6135 0.7167 0.3316
vn 0.2499 0.9646 0.0848
vn 0.4272 0.8438 0.3249
vn 0.3314 0.9434 0.0166
vn 0.3324 0.8756 0.3504
usemtl Material.001
s 1
f 1/1/1 2/2/2 3/3/3
f 4/4/4 5/5/5 2/2/2
f 2/2/2 6/6/6 7/7/7
f 3/3/3 7/7/7 8/8/8
f 9/9/9 10/10/10 11/11/11
f 12/12/12 10/10/10 13/13/13
f 10/10/10 6/6/6 5/5/5
f 10/10/10 14/14/14 11/11/11
f 15/15/15 16/16/16 17/17/17
f 18/18/18 7/7/7 16/16/16
f 16/16/16 6/6/6 19/19/19
f 17/17/17 19/19/19 12/12/12
f 20/20/20 21/21/21 22/22/22
f 23/23/23 24/24/24 20/20/20
f 25/25/25 26/26/26 24/24/24
f 24/24/24 27/27/27 21/21/21
f 28/28/28 25/25/25 23/23/23
f 29/29/29 30/30/30 28/28/28
f 30/30/30 14/14/14 4/4/4
f 25/25/25 4/4/4 1/1/1
f 27/27/27 31/31/31 32/32/32
f 26/26/26 3/3/3 31/31/31
f 31/31/31 8/8/8 33/33/33
f 31/31/31 34/34/34 32/32/32
f 35/35/35 36/36/36 37/37/37
f 35/35/35 38/38/38 39/39/39
f 38/38/38 40/40/40 39/39/39
f 39/39/39 41/41/41 36/36/36
f 42/42/42 43/43/43 38/38/38
f 44/44/44 43/43/43 45/45/45
f 43/43/43 12/12/12 13/13/13
f 43/43/43 9/9/9 38/38/38
f 40/40/40 46/46/46 41/41/41
f 40/40/40 11/11/11 47/47/47
f 11/11/11 48/48/48 47/47/47
f 47/47/47 29/29/29 46/46/46
f 49/49/49 50/50/50 51/51/51
f 52/52/52 53/53/53 50/50/50
f 50/50/50 15/15/15 54/54/54
f 51/51/51 54/54/54 55/55/55
f 56/56/56 53/53/53 57/57/57
f 56/56/56 33/33/33 58/58/58
f 33/33/33 18/18/18 58/58/58
f 53/53/53 18/18/18 15/15/15
f 54/54/54 59/59/59 55/55/55
f 54/54/54 17/17/17 60/60/60
f 60/60/60 12/12/12 61/61/61
f 60/60/60 44/44/44 59/59/59
f 62/62/62 63/63/63 64/64/64
f 62/62/62 65/65/65 66/66/66
f 66/66/66 67/67/67 68/68/68
f 63/63/63 68/68/68 69/69/69
f 70/70/70 71/71/71 72/72/72
f 70/70/70 73/73/73 74/74/74
f 74/74/74 67/67/67 65/65/65
f 74/74/74 75/75/75 71/71/71
f 76/76/76 77/77/77 78/78/78
f 69/69/69 77/77/77 79/79/79
f 77/77/77 67/67/67 73/73/73
f 77/77/77 80/80/80 78/78/78
f 81/81/81 20/82/20 22/83/22
f 82/84/82 83/85/83 81/81/81
f 84/86/84 85/87/85 83/85/83
f 83/85/83 23/88/23 20/82/20
f 86/89/86 84/86/84 82/84/82
f 86/89/86 87/90/87 88/91/88
f 88/91/88 75/75/75 62/62/62
f 88/91/88 64/64/64 84/86/84
f 85/87/85 28/92/28 23/88/23
f 85/87/85 63/63/63 89/93/89
f 89/93/89 69/69/69 90/94/90
f 89/93/89 29/95/29 28/92/28
f 91/96/91 92/97/92 93/98/93
f 94/99/94 92/97/92 95/100/95
f 96/101/96 97/102/97 92/97/92
f 92/97/92 98/103/98 93/98/93
f 99/104/99 96/101/96 94/99/94
f 100/105/100 101/106/101 99/104/99
f 102/107/102 70/70/70 101/106/101
f 101/106/101 72/72/72 96/101/96
f 97/102/97 103/108/103 98/103/98
f 72/72/72 104/109/104 97/102/97
f 71/71/71 87/90/87 104/109/104
f 103/108/103 87/90/87 105/110/105
f 36/111/36 106/112/106 37/113/37
f 41/114/41 107/115/107 36/111/36
f 108/116/108 109/117/109 107/115/107
f 106/112/106 109/117/109 110/118/110
f 46/119/46 108/116/108 41/114/41
f 29/95/29 111/120/111 46/119/46
f 90/94/90 79/79/79 111/120/111
f 111/120/111 76/76/76 108/116/108
f 110/118/110 112/121/112 113/122/113
f 109/117/109 78/78/78 112/121/112
f 112/121/112 80/80/80 102/107/102
f 113/122/113 102/107/102 100/105/100
f 114/123/114 115/124/115 116/125/116
f 117/126/117 115/124/115 118/127/118
f 115/124/115 119/128/119 120/129/120
f 116/125/116 120/129/120 121/130/121
f 122/131/122 123/132/123 124/133/124
f 125/134/125 126/135/126 123/132/123
f 123/132/123 119/128/119 127/136/127
f 124/133/124 127/136/127 117/126/117
f 128/137/128 129/138/129 130/139/130
f 121/130/121 129/138/129 131/140/131
f 129/138/129 119/128/119 126/135/126
f 130/139/130 126/135/126 132/141/132
f 133/142/133 81/143/81 22/144/22
f 134/145/134 135/146/135 133/142/133
f 136/147/136 137/148/137 135/146/135
f 135/146/135 82/149/82 81/143/81
f 138/150/138 136/147/136 134/145/134
f 138/150/138 139/151/139 140/152/140
f 139/151/139 118/127/118 140/152/140
f 136/147/136 118/127/118 114/123/114
f 82/149/82 141/153/141 86/154/86
f 137/148/137 116/125/116 141/153/141
f 141/153/141 121/130/121 142/155/142
f 86/154/86 142/155/142 105/156/105
f 143/157/143 144/158/144 145/159/145
f 143/157/143 146/160/146 147/161/147
f 146/160/146 148/162/148 147/161/147
f 144/158/144 148/162/148 149/163/149
f 150/164/150 151/165/151 146/160/146
f 152/166/152 153/167/153 151/165/151
f 151/165/151 132/141/132 125/134/125
f 151/165/151 122/131/122 146/160/146
f 148/162/148 154/168/154 149/163/149
f 122/131/122 155/169/155 148/162/148
f 124/133/124 139/151/139 155/169/155
f 155/169/155 156/170/156 154/168/154
f 91/171/91 157/172/157 158/173/158
f 93/174/93 159/175/159 157/172/157
f 159/175/159 160/176/160 157/172/157
f 157/172/157 161/177/161 158/173/158
f 103/178/103 159/175/159 98/179/98
f 105/156/105 162/180/162 103/178/103
f 142/155/142 131/140/131 162/180/162
f 159/175/159 131/140/131 128/137/128
f 161/177/161 163/181/163 164/182/164
f 160/176/160 130/139/130 163/181/163
f 130/139/130 153/167/153 163/181/163
f 163/181/163 165/183/165 164/182/164
f 166/184/166 167/185/167 168/186/168
f 169/187/169 170/188/170 167/185/167
f 167/185/167 171/189/171 172/190/172
f 167/185/167 173/191/173 168/186/168
f 174/192/174 175/193/175 176/194/176
f 177/195/177 178/196/178 175/193/175
f 175/193/175 171/189/171 170/188/170
f 176/194/176 170/188/170 179/197/179
f 180/198/180 181/199/181 182/200/182
f 180/198/180 172/190/172 183/201/183
f 183/201/183 171/189/171 178/196/178
f 183/201/183 184/202/184 181/199/181
f 185/203/185 133/204/133 22/205/22
f 186/206/186 187/207/187 185/203/185
f 188/208/188 189/209/189 187/207/187
f 187/207/187 134/210/134 133/204/133
f 186/206/186 190/211/190 188/208/188
f 191/212/191 190/211/190 192/213/192
f 190/211/190 179/197/179 169/187/169
f 188/208/188 169/187/169 166/184/166
f 134/210/134 193/214/193 138/215/138
f 166/184/166 193/214/193 189/209/189
f 168/186/168 194/216/194 193/214/193
f 193/214/193 156/217/156 138/215/138
f 195/218/195 196/219/196 197/220/197
f 198/221/198 199/222/199 196/219/196
f 196/219/196 174/192/174 200/223/200
f 197/220/197 200/223/200 201/224/201
f 202/225/202 203/226/203 199/222/199
f 204/227/204 205/228/205 203/226/203
f 203/226/203 184/202/184 177/195/177
f 199/222/199 177/195/177 174/192/174
f 201/224/201 206/229/206 207/230/207
f 200/223/200 176/194/176 206/229/206
f 206/229/206 179/197/179 208/231/208
f 206/229/206 191/212/191 207/230/207
f 144/232/144 209/233/209 145/234/145
f 149/235/149 210/236/210 144/232/144
f 211/237/211 212/238/212 210/236/210
f 210/236/210 213/239/213 209/233/209
f 154/240/154 211/237/211 149/235/149
f 154/240/154 194/216/194 214/241/214
f 214/241/214 173/191/173 180/198/180
f 214/241/214 182/200/182 211/237/211
f 212/238/212 215/242/215 213/239/213
f 182/200/182 216/243/216 212/238/212
f 181/199/181 205/228/205 216/243/216
f 216/243/216 217/244/217 215/242/215
f 218/245/218 219/246/219 220/247/220
f 221/248/221 222/249/222 219/246/219
f 219/246/219 223/250/223 224/251/224
f 220/247/220 224/251/224 225/252/225
f 226/253/226 227/254/227 228/255/228
f 229/256/229 227/254/227 230/257/230
f 227/254/227 223/250/223 222/249/222
f 227/254/227 231/258/231 228/255/228
f 232/259/232 233/260/233 234/261/234
f 235/262/235 224/251/224 233/260/233
f 233/260/233 223/250/223 236/263/236
f 234/261/234 236/263/236 229/256/229
f 237/264/237 185/265/185 22/266/22
f 238/267/238 239/268/239 237/264/237
f 239/268/239 218/245/218 240/269/240
f 239/268/239 186/270/186 185/265/185
f 238/267/238 241/271/241 242/272/242
f 243/273/243 241/271/241 244/274/244
f 245/275/245 221/248/221 241/271/241
f 241/271/241 218/245/218 242/272/242
f 240/269/240 192/276/192 186/270/186
f 218/245/218 246/277/246 240/269/240
f 246/277/246 225/252/225 247/278/247
f 192/276/192 247/278/247 191/279/191
f 248/280/248 249/281/249 250/282/250
f 248/280/248 251/283/251 252/284/252
f 251/283/251 253/285/253 252/284/252
f 252/284/252 254/286/254 249/281/249
f 255/287/255 256/288/256 251/283/251
f 257/289/257 258/290/258 256/288/256
f 258/290/258 230/257/230 256/288/256
f 256/288/256 226/253/226 251/283/251
f 253/285/253 259/291/259 254/286/254
f 226/253/226 260/292/260 253/285/253
f 228/255/228 245/275/245 260/292/260
f 259/291/259 245/275/245 243/273/243
f 195/293/195 261/294/261 262/295/262
f 197/296/197 263/297/263 261/294/261
f 261/294/261 232/259/232 264/298/264
f 262/295/262 264/298/264 265/299/265
f 207/300/207 263/297/263 201/301/201
f 191/279/191 266/302/266 207/300/207
f 247/278/247 235/262/235 266/302/266
f 263/297/263 235/262/235 232/259/232
f 265/299/265 267/303/267 268/304/268
f 264/298/264 234/261/234 267/303/267
f 267/303/267 229/256/229 258/290/258
f 268/304/268 258/290/258 269/305/269
f 270/306/270 271/307/271 272/308/272
f 273/309/273 271/307/271 274/310/274
f 271/307/271 275/311/275 276/312/276
f 272/308/272 276/312/276 277/313/277
f 278/314/278 279/315/279 280/316/280
f 281/317/281 282/318/282 279/315/279
f 279/315/279 275/311/275 283/319/283
f 280/316/280 283/319/283 273/309/273
f 284/320/284 285/321/285 286/322/286
f 277/313/277 285/321/285 287/323/287
f 285/321/285 275/311/275 282/318/282
f 285/321/285 288/324/288 286/322/286
f 21/325/21 237/326/237 22/327/22
f 27/328/27 289/329/289 21/325/21
f 290/330/290 291/331/291 289/329/289
f 289/329/289 238/332/238 237/326/237
f 32/333/32 290/330/290 27/328/27
f 34/334/34 292/335/292 32/333/32
f 292/335/292 273/309/273 274/310/274
f 292/335/292 270/306/270 290/330/290
f 238/332/238 293/336/293 244/337/244
f 270/306/270 293/336/293 291/331/291
f 293/336/293 277/313/277 294/338/294
f 293/336/293 243/339/243 244/337/244
f 49/340/49 295/341/295 52/342/52
f 296/343/296 297/344/297 295/341/295
f 295/341/295 278/314/278 298/345/298
f 52/342/52 298/345/298 57/346/57
f 299/347/299 297/344/297 300/348/300
f 301/349/301 302/350/302 299/347/299
f 302/350/302 288/324/288 281/317/281
f 297/344/297 281/317/281 278/314/278
f 57/346/57 303/351/303 56/352/56
f 298/345/298 280/316/280 303/351/303
f 303/351/303 273/309/273 304/353/304
f 56/352/56 304/353/304 34/334/34
f 250/354/250 305/355/305 306/356/306
f 254/357/254 305/355/305 249/358/249
f 305/355/305 284/320/284 307/359/307
f 306/356/306 307/359/307 308/360/308
f 259/361/259 309/362/309 254/357/254
f 243/339/243 310/363/310 259/361/259
f 294/338/294 287/323/287 310/363/310
f 310/363/310 284/320/284 309/362/309
f 308/360/308 311/364/311 312/365/312
f 307/359/307 286/322/286 311/364/311
f 286/322/286 313/366/313 311/364/311
f 312/365/312 313/366/313 301/349/301
f 314/367/314 315/368/315 316/369/316
f 317/370/317 318/371/318 314/367/314
f 319/372/319 320/373/320 318/371/318
f 318/371/318 321/374/321 315/368/315
f 322/375/322 323/376/323 324/377/324
f 325/378/325 323/376/323 326/379/326
f 323/376/323 327/380/327 319/372/319
f 324/377/324 319/372/319 317/370/317
f 328/381/328 329/382/329 330/383/330
f 331/384/331 320/373/320 329/382/329
f 329/382/329 327/380/327 332/385/332
f 330/383/330 332/385/332 325/378/325
f 333/386/333 334/387/334 250/388/250
f 335/389/335 336/390/336 333/386/333
f 337/391/337 338/392/338 336/390/336
f 336/390/336 339/393/339 334/387/334
f 335/389/335 340/394/340 337/391/337
f 341/395/341 340/394/340 342/396/342
f 343/397/343 314/367/314 340/394/340
f 340/394/340 316/369/316 337/391/337
f 339/393/339 344/398/344 345/399/345
f 316/369/316 344/398/344 338/392/338
f 315/368/315 346/400/346 344/398/344
f 345/399/345 346/400/346 347/401/347
f 348/402/348 349/403/349 37/404/37
f 350/405/350 351/406/351 348/402/348
f 352/407/352 353/408/353 351/406/351
f 349/403/349 353/408/353 354/409/354
f 355/410/355 352/407/352 350/405/350
f 355/410/355 356/411/356 357/412/357
f 356/411/356 326/379/326 357/412/357
f 357/412/357 322/375/322 352/407/352
f 354/409/354 358/413/358 359/414/359
f 322/375/322 358/413/358 353/408/353
f 358/413/358 317/370/317 343/397/343
f 359/414/359 343/397/343 341/395/341
f 360/415/360 361/416/361 362/417/362
f 363/418/363 364/419/364 361/416/361
f 361/416/361 328/381/328 365/420/365
f 362/417/362 365/420/365 366/421/366
f 367/422/367 368/423/368 364/419/364
f 369/424/369 346/400/346 368/423/368
f 368/423/368 321/374/321 331/384/331
f 364/419/364 331/384/331 328/381/328
f 366/421/366 370/425/370 371/426/371
f 365/420/365 330/383/330 370/425/370
f 370/425/370 325/378/325 356/411/356
f 371/426/371 356/411/356 372/427/372
f 373/428/373 374/429/374 375/430/375
f 376/431/376 377/432/377 373/428/373
f 378/433/378 379/434/379 377/432/377
f 377/432/377 380/435/380 374/429/374
f 381/436/381 382/437/382 383/438/383
f 384/439/384 385/440/385 381/436/381
f 386/441/386 378/433/378 385/440/385
f 385/440/385 376/431/376 382/437/382
f 387/442/387 388/443/388 389/444/389
f 390/445/390 379/434/379 388/443/388
f 388/443/388 391/446/391 386/441/386
f 389/444/389 386/441/386 384/439/384
f 392/447/392 348/448/348 37/449/37
f 392/447/392 393/450/393 394/451/394
f 393/450/393 395/452/395 394/451/394
f 394/451/394 350/453/350 348/448/348
f 396/454/396 397/455/397 393/450/393
f 398/456/398 397/455/397 399/457/399
f 400/458/400 373/428/373 397/455/397
f 397/455/397 375/430/375 393/450/393
f 395/452/395 355/459/355 350/453/350
f 375/430/375 401/460/401 395/452/395
f 374/429/374 402/461/402 401/460/401
f 401/460/401 372/462/372 355/459/355
f 403/463/403 404/464/404 145/465/145
f 403/463/403 405/466/405 406/467/406
f 405/466/405 407/468/407 406/467/406
f 406/467/406 408/469/408 404/464/404
f 409/470/409 405/466/405 410/471/410
f 411/472/411 412/473/412 409/470/409
f 413/474/413 381/436/381 412/473/412
f 412/473/412 383/438/383 405/466/405
f 407/468/407 414/475/414 408/469/408
f 383/438/383 415/476/415 407/468/407
f 382/437/382 400/458/400 415/476/415
f 415/476/415 398/456/398 414/475/414
f 360/477/360 416/478/416 417/479/417
f 362/480/362 418/481/418 416/478/416
f 416/478/416 387/442/387 419/482/419
f 417/479/417 419/482/419 420/483/420
f 366/484/366 421/485/421 418/481/418
f 371/486/371 402/461/402 421/485/421
f 421/485/421 380/435/380 390/445/390
f 418/481/418 390/445/390 387/442/387
f 420/483/420 422/487/422 423/488/423
f 419/482/419 389/444/389 422/487/422
f 422/487/422 384/439/384 413/474/413
f 423/488/423 413/474/413 411/472/411
f 424/489/424 425/490/425 426/491/426
f 424/489/424 427/492/427 428/493/428
f 428/493/428 429/494/429 430/495/430
f 428/493/428 431/496/431 425/490/425
f 432/497/432 433/498/433 434/499/434
f 435/500/435 436/501/436 432/497/432
f 436/501/436 429/494/429 427/492/427
f 433/498/433 427/492/427 437/502/437
f 438/503/438 439/504/439 440/505/440
f 441/506/441 430/495/430 439/504/439
f 439/504/439 429/494/429 442/507/442
f 440/505/440 442/507/442 435/500/435
f 443/508/443 403/509/403 145/510/145
f 444/511/444 445/512/445 443/508/443
f 446/513/446 447/514/447 445/512/445
f 445/512/445 410/515/410 403/509/403
f 448/516/448 446/513/446 444/511/444
f 449/517/449 450/518/450 448/516/448
f 451/519/451 424/489/424 450/518/450
f 450/518/450 426/491/426 446/513/446
f 447/514/447 409/520/409 410/515/410
f 426/491/426 452/521/452 447/514/447
f 425/490/425 453/522/453 452/521/452
f 452/521/452 411/523/411 409/520/409
f 334/524/334 454/525/454 250/526/250
f 339/527/339 455/528/455 334/524/334
f 456/529/456 457/530/457 455/528/455
f 454/525/454 457/530/457 458/531/458
f 345/532/345 456/529/456 339/527/339
f 347/533/347 459/534/459 345/532/345
f 460/535/460 432/497/432 459/534/459
f 459/534/459 434/499/434 456/529/456
f 458/531/458 461/536/461 462/537/462
f 434/499/434 461/536/461 457/530/457
f 461/536/461 437/502/437 451/519/451
f 462/537/462 451/519/451 449/517/449
f 360/538/360 463/539/463 363/540/363
f 417/541/417 464/542/464 463/539/463
f 463/539/463 438/503/438 465/543/465
f 363/540/363 465/543/465 367/544/367
f 420/545/420 466/546/466 464/542/464
f 423/547/423 453/522/453 466/546/466
f 466/546/466 431/496/431 441/506/441
f 464/542/464 441/506/441 438/503/438
f 367/544/367 467/548/467 369/549/369
f 465/543/465 440/505/440 467/548/467
f 467/548/467 435/500/435 460/535/460
f 369/549/369 460/535/460 347/533/347
f 468/550/468 469/551/469 470/552/470
f 471/553/471 472/554/472 468/550/468
f 473/555/473 474/556/474 472/554/472
f 469/551/469 474/556/474 475/557/475
f 476/558/476 477/559/477 478/560/478
f 479/561/479 480/562/480 477/559/477
f 477/559/477 481/563/481 473/555/473
f 478/560/478 473/555/473 471/553/471
f 482/564/482 483/565/483 484/566/484
f 475/557/475 485/567/485 482/564/482
f 474/556/474 480/562/480 485/567/485
f 485/567/485 486/568/486 483/565/483
f 306/569/306 333/570/333 250/571/250
f 308/572/308 487/573/487 306/569/306
f 488/574/488 489/575/489 487/573/487
f 487/573/487 335/576/335 333/570/333
f 312/577/312 488/574/488 308/572/308
f 301/578/301 490/579/490 312/577/312
f 491/580/491 468/550/468 490/579/490
f 490/579/490 470/552/470 488/574/488
f 489/575/489 342/581/342 335/576/335
f 470/552/470 492/582/492 489/575/489
f 469/551/469 493/583/493 492/582/492
f 492/582/492 341/584/341 342/581/342
f 49/585/49 494/586/494 296/587/296
f 51/588/51 495/589/495 494/586/494
f 494/586/494 476/558/476 496/590/496
f 296/587/296 496/590/496 300/591/300
f 55/592/55 497/593/497 495/589/495
f 59/594/59 498/595/498 497/593/497
f 497/593/497 486/568/486 479/561/479
f 495/589/495 479/561/479 476/558/476
f 300/591/300 499/596/499 299/597/299
f 496/590/496 478/560/478 499/596/499
f 499/596/499 471/553/471 491/580/491
f 299/597/299 491/580/491 301/578/301
f 349/598/349 35/599/35 37/600/37
f 354/601/354 500/602/500 349/598/349
f 501/603/501 502/604/502 500/602/500
f 500/602/500 42/605/42 35/599/35
f 359/606/359 501/603/501 354/601/354
f 341/584/341 503/607/503 359/606/359
f 493/583/493 482/564/482 503/607/503
f 503/607/503 484/566/484 501/603/501
f 502/604/502 45/608/45 42/605/42
f 484/566/484 504/609/504 502/604/502
f 483/565/483 498/595/498 504/609/504
f 504/609/504 44/610/44 45/608/45
f 505/611/505 506/612/506 507/613/507
f 508/614/508 509/615/509 505/611/505
f 510/616/510 511/617/511 509/615/509
f 509/615/509 512/618/512 506/612/506
f 513/619/513 514/620/514 515/621/515
f 516/622/516 517/623/517 514/620/514
f 514/620/514 518/624/518 510/616/510
f 515/621/515 510/616/510 508/614/508
f 519/625/519 520/626/520 521/627/521
f 519/625/519 511/617/511 522/628/522
f 511/617/511 517/623/517 522/628/522
f 522/628/522 523/629/523 520/626/520
f 106/630/106 392/631/392 37/632/37
f 110/633/110 524/634/524 106/630/106
f 525/635/525 526/636/526 524/634/524
f 524/634/524 396/637/396 392/631/392
f 113/638/113 525/635/525 110/633/110
f 100/639/100 527/640/527 113/638/113
f 528/641/528 505/611/505 527/640/527
f 527/640/527 507/613/507 525/635/525
f 526/636/526 399/642/399 396/637/396
f 507/613/507 529/643/529 526/636/526
f 506/612/506 530/644/530 529/643/529
f 529/643/529 398/645/398 399/642/399
f 91/646/91 531/647/531 95/648/95
f 158/649/158 532/650/532 531/647/531
f 531/647/531 513/619/513 533/651/533
f 95/648/95 533/651/533 94/652/94
f 161/653/161 534/654/534 532/650/532
f 164/655/164 535/656/535 534/654/534
f 534/654/534 523/629/523 516/622/516
f 532/650/532 516/622/516 513/619/513
f 94/652/94 536/657/536 99/658/99
f 533/651/533 515/621/515 536/657/536
f 536/657/536 508/614/508 528/641/528
f 99/658/99 528/641/528 100/639/100
f 404/659/404 143/660/143 145/661/145
f 408/662/408 537/663/537 404/659/404
f 538/664/538 539/665/539 537/663/537
f 537/663/537 150/666/150 143/660/143
f 414/667/414 538/664/538 408/662/408
f 414/667/414 530/644/530 540/668/540
f 540/668/540 512/618/512 519/625/519
f 540/668/540 521/627/521 538/664/538
f 539/665/539 152/669/152 150/666/150
f 521/627/521 541/670/541 539/665/539
f 520/626/520 535/656/535 541/670/541
f 541/670/541 165/671/165 152/669/152
f 542/672/542 543/673/543 544/674/544
f 545/675/545 546/676/546 542/672/542
f 547/677/547 548/678/548 546/676/546
f 546/676/546 549/679/549 543/673/543
f 550/680/550 551/681/551 552/682/552
f 553/683/553 554/684/554 551/681/551
f 551/681/551 555/685/555 547/677/547
f 552/682/552 547/677/547 545/675/545
f 556/686/556 557/687/557 558/688/558
f 549/679/549 559/689/559 556/686/556
f 548/678/548 554/684/554 559/689/559
f 559/689/559 560/690/560 557/687/557
f 209/691/209 443/692/443 145/693/145
f 213/694/213 561/695/561 209/691/209
f 562/696/562 563/697/563 561/695/561
f 561/695/561 444/698/444 443/692/443
f 215/699/215 562/696/562 213/694/213
f 217/700/217 564/701/564 215/699/215
f 565/702/565 542/672/542 564/701/564
f 564/701/564 544/674/544 562/696/562
f 563/697/563 448/703/448 444/698/444
f 544/674/544 566/704/566 563/697/563
f 566/704/566 549/679/549 567/705/567
f 448/703/448 567/705/567 449/706/449
f 195/707/195 568/708/568 198/709/198
f 265/710/265 568/708/568 262/711/262
f 568/708/568 550/680/550 569/712/569
f 198/709/198 569/712/569 202/713/202
f 265/710/265 570/714/570 571/715/571
f 268/716/268 572/717/572 570/714/570
f 570/714/570 560/690/560 553/683/553
f 571/715/571 553/683/553 550/680/550
f 202/713/202 573/718/573 204/719/204
f 569/712/569 552/682/552 573/718/573
f 573/718/573 545/675/545 565/702/565
f 204/719/204 565/702/565 217/700/217
f 454/720/454 248/721/248 250/722/250
f 458/723/458 574/724/574 454/720/454
f 575/725/575 576/726/576 574/724/574
f 574/724/574 255/727/255 248/721/248
f 462/728/462 575/725/575 458/723/458
f 449/706/449 577/729/577 462/728/462
f 567/705/567 556/686/556 577/729/577
f 577/729/577 558/688/558 575/725/575
f 576/726/576 257/730/257 255/727/255
f 558/688/558 578/731/578 576/726/576
f 557/687/557 572/717/572 578/731/578
f 578/731/578 269/732/269 257/730/257
f 1/1/1 4/4/4 2/2/2
f 4/4/4 14/14/14 5/5/5
f 2/2/2 5/5/5 6/6/6
f 3/3/3 2/2/2 7/7/7
f 9/9/9 13/13/13 10/10/10
f 12/12/12 19/19/19 10/10/10
f 10/10/10 19/19/19 6/6/6
f 10/10/10 5/5/5 14/14/14
f 15/15/15 18/18/18 16/16/16
f 18/18/18 8/8/8 7/7/7
f 16/16/16 7/7/7 6/6/6
f 17/17/17 16/16/16 19/19/19
f 20/20/20 24/24/24 21/21/21
f 23/23/23 25/25/25 24/24/24
f 25/25/25 1/1/1 26/26/26
f 24/24/24 26/26/26 27/27/27
f 28/28/28 30/30/30 25/25/25
f 29/29/29 48/48/48 30/30/30
f 30/30/30 48/48/48 14/14/14
f 25/25/25 30/30/30 4/4/4
f 27/27/27 26/26/26 31/31/31
f 26/26/26 1/1/1 3/3/3
f 31/31/31 3/3/3 8/8/8
f 31/31/31 33/33/33 34/34/34
f 35/35/35 39/39/39 36/36/36
f 35/35/35 42/42/42 38/38/38
f 38/38/38 9/9/9 40/40/40
f 39/39/39 40/40/40 41/41/41
f 42/42/42 45/45/45 43/43/43
f 44/44/44 61/61/61 43/43/43
f 43/43/43 61/61/61 12/12/12
f 43/43/43 13/13/13 9/9/9
f 40/40/40 47/47/47 46/46/46
f 40/40/40 9/9/9 11/11/11
f 11/11/11 14/14/14 48/48/48
f 47/47/47 48/48/48 29/29/29
f 49/49/49 52/52/52 50/50/50
f 52/52/52 57/57/57 53/53/53
f 50/50/50 53/53/53 15/15/15
f 51/51/51 50/50/50 54/54/54
f 56/56/56 58/58/58 53/53/53
f 56/56/56 34/34/34 33/33/33
f 33/33/33 8/8/8 18/18/18
f 53/53/53 58/58/58 18/18/18
f 54/54/54 60/60/60 59/59/59
f 54/54/54 15/15/15 17/17/17
f 60/60/60 17/17/17 12/12/12
f 60/60/60 61/61/61 44/44/44
f 62/62/62 66/66/66 63/63/63
f 62/62/62 75/75/75 65/65/65
f 66/66/66 65/65/65 67/67/67
f 63/63/63 66/66/66 68/68/68
f 70/70/70 74/74/74 71/71/71
f 70/70/70 80/80/80 73/73/73
f 74/74/74 73/73/73 67/67/67
f 74/74/74 65/65/65 75/75/75
f 76/76/76 79/79/79 77/77/77
f 69/69/69 68/68/68 77/77/77
f 77/77/77 68/68/68 67/67/67
f 77/77/77 73/73/73 80/80/80
f 81/81/81 83/85/83 20/82/20
f 82/84/82 84/86/84 83/85/83
f 84/86/84 64/64/64 85/87/85
f 83/85/83 85/87/85 23/88/23
f 86/89/86 88/91/88 84/86/84
f 86/89/86 105/110/105 87/90/87
f 88/91/88 87/90/87 75/75/75
f 88/91/88 62/62/62 64/64/64
f 85/87/85 89/93/89 28/92/28
f 85/87/85 64/64/64 63/63/63
f 89/93/89 63/63/63 69/69/69
f 89/93/89 90/94/90 29/95/29
f 91/96/91 95/100/95 92/97/92
f 94/99/94 96/101/96 92/97/92
f 96/101/96 72/72/72 97/102/97
f 92/97/92 97/102/97 98/103/98
f 99/104/99 101/106/101 96/101/96
f 100/105/100 102/107/102 101/106/101
f 102/107/102 80/80/80 70/70/70
f 101/106/101 70/70/70 72/72/72
f 97/102/97 104/109/104 103/108/103
f 72/72/72 71/71/71 104/109/104
f 71/71/71 75/75/75 87/90/87
f 103/108/103 104/109/104 87/90/87
f 36/111/36 107/115/107 106/112/106
f 41/114/41 108/116/108 107/115/107
f 108/116/108 76/76/76 109/117/109
f 106/112/106 107/115/107 109/117/109
f 46/119/46 111/120/111 108/116/108
f 29/95/29 90/94/90 111/120/111
f 90/94/90 69/69/69 79/79/79
f 111/120/111 79/79/79 76/76/76
f 110/118/110 109/117/109 112/121/112
f 109/117/109 76/76/76 78/78/78
f 112/121/112 78/78/78 80/80/80
f 113/122/113 112/121/112 102/107/102
f 114/123/114 118/127/118 115/124/115
f 117/126/117 127/136/127 115/124/115
f 115/124/115 127/136/127 119/128/119
f 116/125/116 115/124/115 120/129/120
f 122/131/122 125/134/125 123/132/123
f 125/134/125 132/141/132 126/135/126
f 123/132/123 126/135/126 119/128/119
f 124/133/124 123/132/123 127/136/127
f 128/137/128 131/140/131 129/138/129
f 121/130/121 120/129/120 129/138/129
f 129/138/129 120/129/120 119/128/119
f 130/139/130 129/138/129 126/135/126
f 133/142/133 135/146/135 81/143/81
f 134/145/134 136/147/136 135/146/135
f 136/147/136 114/123/114 137/148/137
f 135/146/135 137/148/137 82/149/82
f 138/150/138 140/152/140 136/147/136
f 138/150/138 156/170/156 139/151/139
f 139/151/139 117/126/117 118/127/118
f 136/147/136 140/152/140 118/127/118
f 82/149/82 137/148/137 141/153/141
f 137/148/137 114/123/114 116/125/116
f 141/153/141 116/125/116 121/130/121
f 86/154/86 141/153/141 142/155/142
f 143/157/143 147/161/147 144/158/144
f 143/157/143 150/164/150 146/160/146
f 146/160/146 122/131/122 148/162/148
f 144/158/144 147/161/147 148/162/148
f 150/164/150 152/166/152 151/165/151
f 152/166/152 165/183/165 153/167/153
f 151/165/151 153/167/153 132/141/132
f 151/165/151 125/134/125 122/131/122
f 148/162/148 155/169/155 154/168/154
f 122/131/122 124/133/124 155/169/155
f 124/133/124 117/126/117 139/151/139
f 155/169/155 139/151/139 156/170/156
f 91/171/91 93/174/93 157/172/157
f 93/174/93 98/179/98 159/175/159
f 159/175/159 128/137/128 160/176/160
f 157/172/157 160/176/160 161/177/161
f 103/178/103 162/180/162 159/175/159
f 105/156/105 142/155/142 162/180/162
f 142/155/142 121/130/121 131/140/131
f 159/175/159 162/180/162 131/140/131
f 161/177/161 160/176/160 163/181/163
f 160/176/160 128/137/128 130/139/130
f 130/139/130 132/141/132 153/167/153
f 163/181/163 153/167/153 165/183/165
f 166/184/166 169/187/169 167/185/167
f 169/187/169 179/197/179 170/188/170
f 167/185/167 170/188/170 171/189/171
f 167/185/167 172/190/172 173/191/173
f 174/192/174 177/195/177 175/193/175
f 177/195/177 184/202/184 178/196/178
f 175/193/175 178/196/178 171/189/171
f 176/194/176 175/193/175 170/188/170
f 180/198/180 183/201/183 181/199/181
f 180/198/180 173/191/173 172/190/172
f 183/201/183 172/190/172 171/189/171
f 183/201/183 178/196/178 184/202/184
f 185/203/185 187/207/187 133/204/133
f 186/206/186 188/208/188 187/207/187
f 188/208/188 166/184/166 189/209/189
f 187/207/187 189/209/189 134/210/134
f 186/206/186 192/213/192 190/211/190
f 191/212/191 208/231/208 190/211/190
f 190/211/190 208/231/208 179/197/179
f 188/208/188 190/211/190 169/187/169
f 134/210/134 189/209/189 193/214/193
f 166/184/166 168/186/168 193/214/193
f 168/186/168 173/191/173 194/216/194
f 193/214/193 194/216/194 156/217/156
f 195/218/195 198/221/198 196/219/196
f 198/221/198 202/225/202 199/222/199
f 196/219/196 199/222/199 174/192/174
f 197/220/197 196/219/196 200/223/200
f 202/225/202 204/227/204 203/226/203
f 204/227/204 217/244/217 205/228/205
f 203/226/203 205/228/205 184/202/184
f 199/222/199 203/226/203 177/195/177
f 201/224/201 200/223/200 206/229/206
f 200/223/200 174/192/174 176/194/176
f 206/229/206 176/194/176 179/197/179
f 206/229/206 208/231/208 191/212/191
f 144/232/144 210/236/210 209/233/209
f 149/235/149 211/237/211 210/236/210
f 211/237/211 182/200/182 212/238/212
f 210/236/210 212/238/212 213/239/213
f 154/240/154 214/241/214 211/237/211
f 154/240/154 156/217/156 194/216/194
f 214/241/214 194/216/194 173/191/173
f 214/241/214 180/198/180 182/200/182
f 212/238/212 216/243/216 215/242/215
f 182/200/182 181/199/181 216/243/216
f 181/199/181 184/202/184 205/228/205
f 216/243/216 205/228/205 217/244/217
f 218/245/218 221/248/221 219/246/219
f 221/248/221 231/258/231 222/249/222
f 219/246/219 222/249/222 223/250/223
f 220/247/220 219/246/219 224/251/224
f 226/253/226 230/257/230 227/254/227
f 229/256/229 236/263/236 227/254/227
f 227/254/227 236/263/236 223/250/223
f 227/254/227 222/249/222 231/258/231
f 232/259/232 235/262/235 233/260/233
f 235/262/235 225/252/225 224/251/224
f 233/260/233 224/251/224 223/250/223
f 234/261/234 233/260/233 236/263/236
f 237/264/237 239/268/239 185/265/185
f 238/267/238 242/272/242 239/268/239
f 239/268/239 242/272/242 218/245/218
f 239/268/239 240/269/240 186/270/186
f 238/267/238 244/274/244 241/271/241
f 243/273/243 245/275/245 241/271/241
f 245/275/245 231/258/231 221/248/221
f 241/271/241 221/248/221 218/245/218
f 240/269/240 246/277/246 192/276/192
f 218/245/218 220/247/220 246/277/246
f 246/277/246 220/247/220 225/252/225
f 192/276/192 246/277/246 247/278/247
f 248/280/248 252/284/252 249/281/249
f 248/280/248 255/287/255 251/283/251
f 251/283/251 226/253/226 253/285/253
f 252/284/252 253/285/253 254/286/254
f 255/287/255 257/289/257 256/288/256
f 257/289/257 269/305/269 258/290/258
f 258/290/258 229/256/229 230/257/230
f 256/288/256 230/257/230 226/253/226
f 253/285/253 260/292/260 259/291/259
f 226/253/226 228/255/228 260/292/260
f 228/255/228 231/258/231 245/275/245
f 259/291/259 260/292/260 245/275/245
f 195/293/195 197/296/197 261/294/261
f 197/296/197 201/301/201 263/297/263
f 261/294/261 263/297/263 232/259/232
f 262/295/262 261/294/261 264/298/264
f 207/300/207 266/302/266 263/297/263
f 191/279/191 247/278/247 266/302/266
f 247/278/247 225/252/225 235/262/235
f 263/297/263 266/302/266 235/262/235
f 265/299/265 264/298/264 267/303/267
f 264/298/264 232/259/232 234/261/234
f 267/303/267 234/261/234 229/256/229
f 268/304/268 267/303/267 258/290/258
f 270/306/270 274/310/274 271/307/271
f 273/309/273 283/319/283 271/307/271
f 271/307/271 283/319/283 275/311/275
f 272/308/272 271/307/271 276/312/276
f 278/314/278 281/317/281 279/315/279
f 281/317/281 288/324/288 282/318/282
f 279/315/279 282/318/282 275/311/275
f 280/316/280 279/315/279 283/319/283
f 284/320/284 287/323/287 285/321/285
f 277/313/277 276/312/276 285/321/285
f 285/321/285 276/312/276 275/311/275
f 285/321/285 282/318/282 288/324/288
f 21/325/21 289/329/289 237/326/237
f 27/328/27 290/330/290 289/329/289
f 290/330/290 270/306/270 291/331/291
f 289/329/289 291/331/291 238/332/238
f 32/333/32 292/335/292 290/330/290
f 34/334/34 304/353/304 292/335/292
f 292/335/292 304/353/304 273/309/273
f 292/335/292 274/310/274 270/306/270
f 238/332/238 291/331/291 293/336/293
f 270/306/270 272/308/272 293/336/293
f 293/336/293 272/308/272 277/313/277
f 293/336/293 294/338/294 243/339/243
f 49/340/49 296/343/296 295/341/295
f 296/343/296 300/348/300 297/344/297
f 295/341/295 297/344/297 278/314/278
f 52/342/52 295/341/295 298/345/298
f 299/347/299 302/350/302 297/344/297
f 301/349/301 313/366/313 302/350/302
f 302/350/302 313/366/313 288/324/288
f 297/344/297 302/350/302 281/317/281
f 57/346/57 298/345/298 303/351/303
f 298/345/298 278/314/278 280/316/280
f 303/351/303 280/316/280 273/309/273
f 56/352/56 303/351/303 304/353/304
f 250/354/250 249/358/249 305/355/305
f 254/357/254 309/362/309 305/355/305
f 305/355/305 309/362/309 284/320/284
f 306/356/306 305/355/305 307/359/307
f 259/361/259 310/363/310 309/362/309
f 243/339/243 294/338/294 310/363/310
f 294/338/294 277/313/277 287/323/287
f 310/363/310 287/323/287 284/320/284
f 308/360/308 307/359/307 311/364/311
f 307/359/307 284/320/284 286/322/286
f 286/322/286 288/324/288 313/366/313
f 312/365/312 311/364/311 313/366/313
f 314/367/314 318/371/318 315/368/315
f 317/370/317 319/372/319 318/371/318
f 319/372/319 327/380/327 320/373/320
f 318/371/318 320/373/320 321/374/321
f 322/375/322 326/379/326 323/376/323
f 325/378/325 332/385/332 323/376/323
f 323/376/323 332/385/332 327/380/327
f 324/377/324 323/376/323 319/372/319
f 328/381/328 331/384/331 329/382/329
f 331/384/331 321/374/321 320/373/320
f 329/382/329 320/373/320 327/380/327
f 330/383/330 329/382/329 332/385/332
f 333/386/333 336/390/336 334/387/334
f 335/389/335 337/391/337 336/390/336
f 337/391/337 316/369/316 338/392/338
f 336/390/336 338/392/338 339/393/339
f 335/389/335 342/396/342 340/394/340
f 341/395/341 343/397/343 340/394/340
f 343/397/343 317/370/317 314/367/314
f 340/394/340 314/367/314 316/369/316
f 339/393/339 338/392/338 344/398/344
f 316/369/316 315/368/315 344/398/344
f 315/368/315 321/374/321 346/400/346
f 345/399/345 344/398/344 346/400/346
f 348/402/348 351/406/351 349/403/349
f 350/405/350 352/407/352 351/406/351
f 352/407/352 322/375/322 353/408/353
f 349/403/349 351/406/351 353/408/353
f 355/410/355 357/412/357 352/407/352
f 355/410/355 372/427/372 356/411/356
f 356/411/356 325/378/325 326/379/326
f 357/412/357 326/379/326 322/375/322
f 354/409/354 353/408/353 358/413/358
f 322/375/322 324/377/324 358/413/358
f 358/413/358 324/377/324 317/370/317
f 359/414/359 358/413/358 343/397/343
f 360/415/360 363/418/363 361/416/361
f 363/418/363 367/422/367 364/419/364
f 361/416/361 364/419/364 328/381/328
f 362/417/362 361/416/361 365/420/365
f 367/422/367 369/424/369 368/423/368
f 369/424/369 347/401/347 346/400/346
f 368/423/368 346/400/346 321/374/321
f 364/419/364 368/423/368 331/384/331
f 366/421/366 365/420/365 370/425/370
f 365/420/365 328/381/328 330/383/330
f 370/425/370 330/383/330 325/378/325
f 371/426/371 370/425/370 356/411/356
f 373/428/373 377/432/377 374/429/374
f 376/431/376 378/433/378 377/432/377
f 378/433/378 391/446/391 379/434/379
f 377/432/377 379/434/379 380/435/380
f 381/436/381 385/440/385 382/437/382
f 384/439/384 386/441/386 385/440/385
f 386/441/386 391/446/391 378/433/378
f 385/440/385 378/433/378 376/431/376
f 387/442/387 390/445/390 388/443/388
f 390/445/390 380/435/380 379/434/379
f 388/443/388 379/434/379 391/446/391
f 389/444/389 388/443/388 386/441/386
f 392/447/392 394/451/394 348/448/348
f 392/447/392 396/454/396 393/450/393
f 393/450/393 375/430/375 395/452/395
f 394/451/394 395/452/395 350/453/350
f 396/454/396 399/457/399 397/455/397
f 398/456/398 400/458/400 397/455/397
f 400/458/400 376/431/376 373/428/373
f 397/455/397 373/428/373 375/430/375
f 395/452/395 401/460/401 355/459/355
f 375/430/375 374/429/374 401/460/401
f 374/429/374 380/435/380 402/461/402
f 401/460/401 402/461/402 372/462/372
f 403/463/403 406/467/406 404/464/404
f 403/463/403 410/471/410 405/466/405
f 405/466/405 383/438/383 407/468/407
f 406/467/406 407/468/407 408/469/408
f 409/470/409 412/473/412 405/466/405
f 411/472/411 413/474/413 412/473/412
f 413/474/413 384/439/384 381/436/381
f 412/473/412 381/436/381 383/438/383
f 407/468/407 415/476/415 414/475/414
f 383/438/383 382/437/382 415/476/415
f 382/437/382 376/431/376 400/458/400
f 415/476/415 400/458/400 398/456/398
f 360/477/360 362/480/362 416/478/416
f 362/480/362 366/484/366 418/481/418
f 416/478/416 418/481/418 387/442/387
f 417/479/417 416/478/416 419/482/419
f 366/484/366 371/486/371 421/485/421
f 371/486/371 372/462/372 402/461/402
f 421/485/421 402/461/402 380/435/380
f 418/481/418 421/485/421 390/445/390
f 420/483/420 419/482/419 422/487/422
f 419/482/419 387/442/387 389/444/389
f 422/487/422 389/444/389 384/439/384
f 423/488/423 422/487/422 413/474/413
f 424/489/424 428/493/428 425/490/425
f 424/489/424 437/502/437 427/492/427
f 428/493/428 427/492/427 429/494/429
f 428/493/428 430/495/430 431/496/431
f 432/497/432 436/501/436 433/498/433
f 435/500/435 442/507/442 436/501/436
f 436/501/436 442/507/442 429/494/429
f 433/498/433 436/501/436 427/492/427
f 438/503/438 441/506/441 439/504/439
f 441/506/441 431/496/431 430/495/430
f 439/504/439 430/495/430 429/494/429
f 440/505/440 439/504/439 442/507/442
f 443/508/443 445/512/445 403/509/403
f 444/511/444 446/513/446 445/512/445
f 446/513/446 426/491/426 447/514/447
f 445/512/445 447/514/447 410/515/410
f 448/516/448 450/518/450 446/513/446
f 449/517/449 451/519/451 450/518/450
f 451/519/451 437/502/437 424/489/424
f 450/518/450 424/489/424 426/491/426
f 447/514/447 452/521/452 409/520/409
f 426/491/426 425/490/425 452/521/452
f 425/490/425 431/496/431 453/522/453
f 452/521/452 453/522/453 411/523/411
f 334/524/334 455/528/455 454/525/454
f 339/527/339 456/529/456 455/528/455
f 456/529/456 434/499/434 457/530/457
f 454/525/454 455/528/455 457/530/457
f 345/532/345 459/534/459 456/529/456
f 347/533/347 460/535/460 459/534/459
f 460/535/460 435/500/435 432/497/432
f 459/534/459 432/497/432 434/499/434
f 458/531/458 457/530/457 461/536/461
f 434/499/434 433/498/433 461/536/461
f 461/536/461 433/498/433 437/502/437
f 462/537/462 461/536/461 451/519/451
f 360/538/360 417/541/417 463/539/463
f 417/541/417 420/545/420 464/542/464
f 463/539/463 464/542/464 438/503/438
f 363/540/363 463/539/463 465/543/465
f 420/545/420 423/547/423 466/546/466
f 423/547/423 411/523/411 453/522/453
f 466/546/466 453/522/453 431/496/431
f 464/542/464 466/546/466 441/506/441
f 367/544/367 465/543/465 467/548/467
f 465/543/465 438/503/438 440/505/440
f 467/548/467 440/505/440 435/500/435
f 369/549/369 467/548/467 460/535/460
f 468/550/468 472/554/472 469/551/469
f 471/553/471 473/555/473 472/554/472
f 473/555/473 481/563/481 474/556/474
f 469/551/469 472/554/472 474/556/474
f 476/558/476 479/561/479 477/559/477
f 479/561/479 486/568/486 480/562/480
f 477/559/477 480/562/480 481/563/481
f 478/560/478 477/559/477 473/555/473
f 482/564/482 485/567/485 483/565/483
f 475/557/475 474/556/474 485/567/485
f 474/556/474 481/563/481 480/562/480
f 485/567/485 480/562/480 486/568/486
f 306/569/306 487/573/487 333/570/333
f 308/572/308 488/574/488 487/573/487
f 488/574/488 470/552/470 489/575/489
f 487/573/487 489/575/489 335/576/335
f 312/577/312 490/579/490 488/574/488
f 301/578/301 491/580/491 490/579/490
f 491/580/491 471/553/471 468/550/468
f 490/579/490 468/550/468 470/552/470
f 489/575/489 492/582/492 342/581/342
f 470/552/470 469/551/469 492/582/492
f 469/551/469 475/557/475 493/583/493
f 492/582/492 493/583/493 341/584/341
f 49/585/49 51/588/51 494/586/494
f 51/588/51 55/592/55 495/589/495
f 494/586/494 495/589/495 476/558/476
f 296/587/296 494/586/494 496/590/496
f 55/592/55 59/594/59 497/593/497
f 59/594/59 44/610/44 498/595/498
f 497/593/497 498/595/498 486/568/486
f 495/589/495 497/593/497 479/561/479
f 300/591/300 496/590/496 499/596/499
f 496/590/496 476/558/476 478/560/478
f 499/596/499 478/560/478 471/553/471
f 299/597/299 499/596/499 491/580/491
f 349/598/349 500/602/500 35/599/35
f 354/601/354 501/603/501 500/602/500
f 501/603/501 484/566/484 502/604/502
f 500/602/500 502/604/502 42/605/42
f 359/606/359 503/607/503 501/603/501
f 341/584/341 493/583/493 503/607/503
f 493/583/493 475/557/475 482/564/482
f 503/607/503 482/564/482 484/566/484
f 502/604/502 504/609/504 45/608/45
f 484/566/484 483/565/483 504/609/504
f 483/565/483 486/568/486 498/595/498
f 504/609/504 498/595/498 44/610/44
f 505/611/505 509/615/509 506/612/506
f 508/614/508 510/616/510 509/615/509
f 510/616/510 518/624/518 511/617/511
f 509/615/509 511/617/511 512/618/512
f 513/619/513 516/622/516 514/620/514
f 516/622/516 523/629/523 517/623/517
f 514/620/514 517/623/517 518/624/518
f 515/621/515 514/620/514 510/616/510
f 519/625/519 522/628/522 520/626/520
f 519/625/519 512/618/512 511/617/511
f 511/617/511 518/624/518 517/623/517
f 522/628/522 517/623/517 523/629/523
f 106/630/106 524/634/524 392/631/392
f 110/633/110 525/635/525 524/634/524
f 525/635/525 507/613/507 526/636/526
f 524/634/524 526/636/526 396/637/396
f 113/638/113 527/640/527 525/635/525
f 100/639/100 528/641/528 527/640/527
f 528/641/528 508/614/508 505/611/505
f 527/640/527 505/611/505 507/613/507
f 526/636/526 529/643/529 399/642/399
f 507/613/507 506/612/506 529/643/529
f 506/612/506 512/618/512 530/644/530
f 529/643/529 530/644/530 398/645/398
f 91/646/91 158/649/158 531/647/531
f 158/649/158 161/653/161 532/650/532
f 531/647/531 532/650/532 513/619/513
f 95/648/95 531/647/531 533/651/533
f 161/653/161 164/655/164 534/654/534
f 164/655/164 165/671/165 535/656/535
f 534/654/534 535/656/535 523/629/523
f 532/650/532 534/654/534 516/622/516
f 94/652/94 533/651/533 536/657/536
f 533/651/533 513/619/513 515/621/515
f 536/657/536 515/621/515 508/614/508
f 99/658/99 536/657/536 528/641/528
f 404/659/404 537/663/537 143/660/143
f 408/662/408 538/664/538 537/663/537
f 538/664/538 521/627/521 539/665/539
f 537/663/537 539/665/539 150/666/150
f 414/667/414 540/668/540 538/664/538
f 414/667/414 398/645/398 530/644/530
f 540/668/540 530/644/530 512/618/512
f 540/668/540 519/625/519 521/627/521
f 539/665/539 541/670/541 152/669/152
f 521/627/521 520/626/520 541/670/541
f 520/626/520 523/629/523 535/656/535
f 541/670/541 535/656/535 165/671/165
f 542/672/542 546/676/546 543/673/543
f 545/675/545 547/677/547 546/676/546
f 547/677/547 555/685/555 548/678/548
f 546/676/546 548/678/548 549/679/549
f 550/680/550 553/683/553 551/681/551
f 553/683/553 560/690/560 554/684/554
f 551/681/551 554/684/554 555/685/555
f 552/682/552 551/681/551 547/677/547
f 556/686/556 559/689/559 557/687/557
f 549/679/549 548/678/548 559/689/559
f 548/678/548 555/685/555 554/684/554
f 559/689/559 554/684/554 560/690/560
f 209/691/209 561/695/561 443/692/443
f 213/694/213 562/696/562 561/695/561
f 562/696/562 544/674/544 563/697/563
f 561/695/561 563/697/563 444/698/444
f 215/699/215 564/701/564 562/696/562
f 217/700/217 565/702/565 564/701/564
f 565/702/565 545/675/545 542/672/542
f 564/701/564 542/672/542 544/674/544
f 563/697/563 566/704/566 448/703/448
f 544/674/544 543/673/543 566/704/566
f 566/704/566 543/673/543 549/679/549
f 448/703/448 566/704/566 567/705/567
f 195/707/195 262/711/262 568/708/568
f 265/710/265 571/715/571 568/708/568
f 568/708/568 571/715/571 550/680/550
f 198/709/198 568/708/568 569/712/569
f 265/710/265 268/716/268 570/714/570
f 268/716/268 269/732/269 572/717/572
f 570/714/570 572/717/572 560/690/560
f 571/715/571 570/714/570 553/683/553
f 202/713/202 569/712/569 573/718/573
f 569/712/569 550/680/550 552/682/552
f 573/718/573 552/682/552 545/675/545
f 204/719/204 573/718/573 565/702/565
f 454/720/454 574/724/574 248/721/248
f 458/723/458 575/725/575 574/724/574
f 575/725/575 558/688/558 576/726/576
f 574/724/574 576/726/576 255/727/255
f 462/728/462 577/729/577 575/725/575
f 449/706/449 567/705/567 577/729/577
f 567/705/567 549/679/549 556/686/556
f 577/729/577 556/686/556 558/688/558
f 576/726/576 578/731/578 257/730/257
f 558/688/558 557/687/557 578/731/578
f 557/687/557 560/690/560 572/717/572
f 578/731/578 572/717/572 269/732/269
